<svg width="44" height="44" viewBox="0 0 44 44" fill="none" xmlns="http://www.w3.org/2000/svg">
<path d="M33.4314 15.1541C32.7843 15.2259 32.4248 15.7999 32.6405 16.3739L38.8235 32.3038C38.9673 32.6626 39.2549 32.8778 39.6144 32.8778C41.0523 33.0213 42.2026 34.2412 42.2026 35.7481V38.403H32.1373C31.634 38.403 31.2026 38.8336 31.2026 39.3359C31.2026 39.8382 31.634 40.2687 32.1373 40.2687H42.2026V42.1343H23.7974V36.6091H33.8627C34.366 36.6091 34.7974 36.1786 34.7974 35.6763C34.7974 35.174 34.366 34.7435 33.8627 34.7435H24.0131C24.4444 33.6671 25.451 32.8778 26.6732 32.8778H31.0588C31.7059 32.8778 32.1373 32.232 31.9216 31.658L26.098 16.3022C25.9543 15.9434 25.5948 15.6564 25.1634 15.7281L18.9085 16.1587C17.6144 16.2304 16.5359 15.2259 16.5359 13.9342C16.5359 12.9297 16.5359 6.75864 16.5359 4.10367C16.5359 2.81207 17.6144 1.80748 18.9085 1.87924L29.3333 2.5968V6.25635C29.3333 6.75864 29.7647 7.18918 30.268 7.18918H37.6013V9.98766H27.5359C26.8889 9.98766 26.4575 10.6335 26.6732 11.2075L34.0065 31.4427C34.1503 31.945 34.7255 32.1603 35.1569 32.0168C35.6601 31.8732 35.8758 31.2992 35.732 30.8687L28.8301 11.7816H38.5359C39.0392 11.7816 39.4706 11.351 39.4706 10.8487V6.25635C39.4706 5.75406 39.0392 5.32352 38.5359 5.32352H31.1307V2.66855L40.0458 3.2426C41.1961 3.31436 42.1307 4.31894 42.1307 5.46704V12.4274C42.1307 13.5755 41.1961 14.58 40.0458 14.6518L33.4314 15.1541ZM21.7843 22.7602C22.3595 20.9663 21.8562 18.9572 21.4248 17.7373L24.6601 17.522L26.6013 22.7602H21.7843ZM9.20261 10.8487H14.6667V12.7144H9.20261V10.8487ZM14.6667 4.3907V6.25635H9.20261V4.3907H14.6667ZM9.20261 8.05025H14.6667V8.98308H9.20261V8.05025ZM44 12.4991V5.53879C44 3.38611 42.3464 1.59221 40.1895 1.4487L30.6275 0.802898C30.4118 0.731144 30.1961 0.659386 29.9804 0.731144L18.9804 0.0135841C17.2549 -0.129929 15.6013 0.874653 14.9542 2.52504H8.26797C7.76471 2.52504 7.33333 2.95558 7.33333 3.45787V8.05025H0.934641C0.431373 8.05025 0 8.48079 0 8.98308C0 9.48537 0.431373 9.91591 0.934641 9.91591H7.33333V13.5755C7.33333 14.0778 7.76471 14.5083 8.26797 14.5083H14.7386C15.098 16.661 16.9673 18.0961 19.0523 17.9526H19.4837C19.8431 18.7419 20.9216 21.6121 19.4837 23.0473C19.1961 23.3343 19.1242 23.6931 19.268 24.0518C19.4118 24.4106 19.7712 24.6259 20.1307 24.6259H27.2484L29.6928 31.0839H26.6732C24.1569 31.0839 22.0719 33.0931 22 35.6046C22 35.6763 22 35.461 22 42.1343H0.934641C0.431373 42.1343 0 42.5649 0 43.0672C0 43.5695 0.431373 44 0.934641 44C2.15686 44 42.1307 44 43.0654 44C43.5686 44 44 43.5695 44 43.0672V35.7481C44 33.5236 42.4902 31.658 40.3333 31.1557L34.7974 16.8762L40.1895 16.5175C42.3464 16.3739 44 14.58 44 12.4991Z" fill="#0F0D0D"/>
<path d="M19.2676 7.18915H21.065V9.05481H19.2676V7.18915Z" fill="#0F0D0D"/>
<path d="M10.0664 31.0839H11.8638V32.9496H10.0664V31.0839Z" fill="#0F0D0D"/>
<path d="M10.0664 34.7435H11.8638V36.6091H10.0664V34.7435Z" fill="#0F0D0D"/>
<path d="M11.9355 32.8779H13.7329V34.7435H11.9355V32.8779Z" fill="#0F0D0D"/>
<path d="M8.26758 32.8779H10.065V34.7435H8.26758V32.8779Z" fill="#0F0D0D"/>
<path d="M2.73242 16.374H4.52981V18.2396H2.73242V16.374Z" fill="#0F0D0D"/>
<path d="M2.73242 20.0335H4.52981V21.8992H2.73242V20.0335Z" fill="#0F0D0D"/>
<path d="M4.60156 18.1679H6.39895V20.0336H4.60156V18.1679Z" fill="#0F0D0D"/>
<path d="M0.935547 18.1679H2.73293V20.0336H0.935547V18.1679Z" fill="#0F0D0D"/>
<path d="M22.9355 7.18915H24.7329V9.05481H22.9355V7.18915Z" fill="#0F0D0D"/>
<path d="M26.6016 7.18915H28.3989V9.05481H26.6016V7.18915Z" fill="#0F0D0D"/>
<path d="M11.0005 24.6258C11.0005 24.1235 11.4319 23.693 11.9352 23.693C12.4384 23.693 12.8698 24.1235 12.8698 24.6258C12.8698 25.1281 12.4384 25.5586 11.9352 25.5586C11.4319 25.5586 11.0005 25.1281 11.0005 24.6258ZM14.6672 24.6258C14.6672 23.1189 13.445 21.8991 11.9352 21.8991C10.4253 21.8991 9.20312 23.1189 9.20312 24.6258C9.20312 26.1327 10.4253 27.3525 11.9352 27.3525C13.445 27.3525 14.6672 26.1327 14.6672 24.6258Z" fill="#0F0D0D"/>
</svg>
