<svg width="48" height="48" viewBox="0 0 48 48" fill="none" xmlns="http://www.w3.org/2000/svg">
<path d="M24 24V6" stroke="black" stroke-width="2" stroke-linecap="round" stroke-linejoin="round"/>
<path d="M8.41195 15L39.5889 33" stroke="black" stroke-width="2" stroke-linecap="round" stroke-linejoin="round"/>
<path d="M41.6998 27.2898C42.4792 23.0722 41.7294 18.715 39.585 15.0005C37.4407 11.286 34.0423 8.45768 30.0002 7.02344V20.5351L41.6998 27.2898Z" stroke="black" stroke-width="2" stroke-linecap="round" stroke-linejoin="round"/>
<path d="M23.9996 6C20.846 6.00058 17.7478 6.8297 15.0154 8.40432C12.2831 9.97895 10.0123 12.2438 8.43061 14.9721C6.84891 17.7004 6.01176 20.7964 6.003 23.95C5.99424 27.1036 6.81418 30.2042 8.3807 32.9412C9.94722 35.6783 12.2053 37.9557 14.9289 39.5455C17.6525 41.1353 20.746 41.9816 23.8996 41.9997C27.0532 42.0178 30.1562 41.2071 32.8978 39.6487C35.6395 38.0903 37.9236 35.8389 39.5215 33.12" stroke="black" stroke-width="2" stroke-linecap="round" stroke-linejoin="round"/>
</svg>
