<svg width="48" height="48" viewBox="0 0 48 48" fill="none" xmlns="http://www.w3.org/2000/svg">
<path d="M7.5 42C9.98528 42 12 39.9853 12 37.5C12 35.0147 9.98528 33 7.5 33C5.01472 33 3 35.0147 3 37.5C3 39.9853 5.01472 42 7.5 42Z" stroke="#000814" stroke-width="2" stroke-linecap="round" stroke-linejoin="round"/>
<path d="M18 22.5C20.4853 22.5 22.5 20.4853 22.5 18C22.5 15.5147 20.4853 13.5 18 13.5C15.5147 13.5 13.5 15.5147 13.5 18C13.5 20.4853 15.5147 22.5 18 22.5Z" stroke="#000814" stroke-width="2" stroke-linecap="round" stroke-linejoin="round"/>
<path d="M30 34.5C32.4853 34.5 34.5 32.4853 34.5 30C34.5 27.5147 32.4853 25.5 30 25.5C27.5147 25.5 25.5 27.5147 25.5 30C25.5 32.4853 27.5147 34.5 30 34.5Z" stroke="#000814" stroke-width="2" stroke-linecap="round" stroke-linejoin="round"/>
<path d="M40.5 15C42.9853 15 45 12.9853 45 10.5C45 8.01472 42.9853 6 40.5 6C38.0147 6 36 8.01472 36 10.5C36 12.9853 38.0147 15 40.5 15Z" stroke="#000814" stroke-width="2" stroke-linecap="round" stroke-linejoin="round"/>
<path d="M15.8674 21.9629L9.63477 33.5378" stroke="#000814" stroke-width="2" stroke-linecap="round" stroke-linejoin="round"/>
<path d="M26.8177 26.8177L21.1816 21.1816" stroke="#000814" stroke-width="2" stroke-linecap="round" stroke-linejoin="round"/>
<path d="M38.3676 14.4629L32.1348 26.0382" stroke="#000814" stroke-width="2" stroke-linecap="round" stroke-linejoin="round"/>
</svg>
