<svg width="40" height="40" viewBox="0 0 40 40" fill="none" xmlns="http://www.w3.org/2000/svg">
<path fill-rule="evenodd" clip-rule="evenodd" d="M32.1274 4.96293C32.4398 4.95175 32.7439 5.06513 32.9727 5.27814C33.2016 5.49115 33.3364 5.78634 33.3476 6.09877L33.8538 20.235C33.865 20.5475 33.7517 20.8515 33.5386 21.0804C33.3256 21.3092 33.0304 21.444 32.718 21.4552C32.4056 21.4664 32.1015 21.353 31.8727 21.14C31.6438 20.927 31.509 20.6318 31.4978 20.3194L31.0934 9.02689L8.04512 33.7897C7.93952 33.9031 7.8126 33.9947 7.67162 34.0591C7.53064 34.1235 7.37835 34.1595 7.22345 34.165C7.06856 34.1706 6.91409 34.1456 6.76886 34.0914C6.62363 34.0373 6.49049 33.955 6.37704 33.8494C6.26359 33.7438 6.17206 33.6169 6.10766 33.4759C6.04325 33.3349 6.00725 33.1827 6.00171 33.0278C5.99616 32.8729 6.02118 32.7184 6.07533 32.5732C6.12948 32.4279 6.2117 32.2948 6.31731 32.1814L29.368 7.42082L18.0755 7.82521C17.7631 7.8364 17.459 7.72302 17.2302 7.51001C17.0013 7.297 16.8665 7.00181 16.8553 6.68938C16.8441 6.37695 16.9575 6.07287 17.1705 5.84403C17.3835 5.6152 17.6787 5.48036 17.9911 5.46917L32.1274 4.96293Z" fill="#0F0D0D"/>
</svg>
