<svg width="32" height="32" viewBox="0 0 32 32" fill="none" xmlns="http://www.w3.org/2000/svg">
<path d="M8.31373 30.6406L13.3333 26.1443V30.6406H8.31373ZM4.02614 4.02838C5.12418 4.02838 27.6601 4.02838 28.3922 4.02838L29.6993 5.33546C29.3333 5.33546 5.54248 5.33546 3.97386 5.33546C4.02614 5.33546 4.02614 4.02838 4.02614 4.02838ZM1.35948 6.01515V3.34869H2.66667V6.01515H1.35948ZM8 1.67562L10.5621 2.66901H8V1.67562ZM4.02614 2.66901L6.69281 1.62334V2.66901H4.02614ZM14.1176 2.66901L12.549 2.04161L17.3072 2.66901H14.1176ZM13.3333 11.6095L8.8366 6.69483H13.3333V11.6095ZM8.36601 19.2951L13.3333 14.7988V23.2687L8.36601 19.2951ZM8 20.7068L12.9673 24.6803L8 29.1767V20.7068ZM13.0719 13.2825L8 17.8312V7.7405L13.0719 13.2825ZM31.3203 30.6406H14.6928V6.69483H22.6928V15.3739C22.6928 15.7399 23.0065 16.0536 23.3725 16.0536C25.2026 16.0536 26.719 17.5698 26.719 19.3997C26.719 21.2296 25.2026 22.7458 23.3725 22.7458C21.5425 22.7458 20.0261 21.2296 20.0261 19.3997C20.0261 19.0337 19.7124 18.72 19.3464 18.72C18.9804 18.72 18.6667 19.0337 18.6667 19.3997C18.6667 21.9616 20.7582 24.0529 23.3203 24.0529C25.8824 24.0529 27.9739 21.9616 27.9739 19.3997C27.9739 17.0469 26.2484 15.1125 24 14.7988V6.69483H31.3203C31.5817 6.69483 31.8431 6.53798 31.9477 6.27656C32.0523 6.01515 32 5.75373 31.7908 5.5446L29.1242 2.87814C29.0196 2.77358 28.8105 2.66901 28.6536 2.66901H27.3464C6.48366 -0.102013 7.37255 0.00255585 7.21569 0.00255585C7.11111 0.00255585 7.52941 -0.154293 1.88235 1.98932H0.679739C0.313726 1.98932 0 2.30302 0 2.66901V6.64255C0 7.00853 0.313726 7.32223 0.679739 7.32223H3.34641C3.71242 7.32223 4.02614 7.00853 4.02614 6.64255H6.69281V30.6406H0.679739C0.313726 30.6406 0 30.9543 0 31.3203C0 31.6863 0.313726 32 0.679739 32C8.94118 32 28.0261 32 31.3203 32C31.6863 32 32 31.6863 32 31.3203C32 30.9543 31.6863 30.6406 31.3203 30.6406Z" fill="#0F0D0D"/>
<path d="M17.3081 26.667H18.6152V27.9741H17.3081V26.667Z" fill="#0F0D0D"/>
<path d="M19.9741 26.667H21.2812V27.9741H19.9741V26.667Z" fill="#0F0D0D"/>
<path d="M22.6406 26.667H23.9477V27.9741H22.6406V26.667Z" fill="#0F0D0D"/>
<path d="M25.3066 26.667H26.6137V27.9741H25.3066V26.667Z" fill="#0F0D0D"/>
<path d="M27.9741 26.667H29.2812V27.9741H27.9741V26.667Z" fill="#0F0D0D"/>
<path d="M2.77095 14.0145C2.77095 13.7008 3.03237 13.4394 3.34607 13.4394C3.65977 13.4394 3.92119 13.7008 3.92119 14.0145C3.92119 14.3282 3.65977 14.5896 3.34607 14.5896C3.03237 14.5374 2.77095 14.3282 2.77095 14.0145ZM5.22827 14.0145C5.22827 12.9689 4.39174 12.1323 3.34607 12.1323C2.3004 12.1323 1.46387 12.9689 1.46387 14.0145C1.46387 15.0602 2.3004 15.8967 3.34607 15.8967C4.39174 15.8967 5.22827 15.0602 5.22827 14.0145Z" fill="#0F0D0D"/>
<path d="M28.6537 13.2303C28.34 13.2303 28.0786 12.9689 28.0786 12.6552C28.0786 12.3415 28.34 12.08 28.6537 12.08C28.9674 12.08 29.2288 12.3415 29.2288 12.6552C29.2288 12.9689 28.9674 13.2303 28.6537 13.2303ZM30.5359 12.6552C30.5359 11.6095 29.6994 10.7729 28.6537 10.7729C27.608 10.7729 26.7715 11.6095 26.7715 12.6552C26.7715 13.7008 27.608 14.5374 28.6537 14.5374C29.6994 14.5374 30.5359 13.7008 30.5359 12.6552Z" fill="#0F0D0D"/>
</svg>
