<svg width="44" height="44" viewBox="0 0 44 44" fill="none" xmlns="http://www.w3.org/2000/svg">
<path d="M14.6666 34.7405C15.1698 34.7405 15.6012 34.3098 15.6012 33.8074V22.8971C15.6012 22.3946 15.1698 21.964 14.6666 21.964C14.1633 21.964 13.7319 22.3946 13.7319 22.8971V33.8791C13.7319 34.3816 14.1633 34.7405 14.6666 34.7405Z" fill="#EC4A05"/>
<path d="M25.6667 4.5938H20.2026V2.79935H25.6667V4.5938ZM9.20263 7.32137V1.86623H18.3334C18.3334 2.72757 18.3334 5.88581 18.3334 7.32137H9.20263ZM21.0654 12.8483H6.3987V9.1876C8.62746 9.1876 19.5556 9.1876 21.0654 9.1876V12.8483ZM25.6667 16.509C24.2288 16.509 3.2353 16.509 1.86928 16.509V14.7145C6.97387 14.7145 20.2745 14.7145 25.6667 14.7145V16.509ZM22.9347 38.4013H4.60131V34.7406H11C11.5033 34.7406 11.9347 34.31 11.9347 33.8075V22.8972C11.9347 22.3948 11.5033 21.9641 11 21.9641H4.60131V18.3034H22.9347V38.4013ZM25.6667 42.062H1.86928V40.2675C3.30719 40.2675 24.3007 40.2675 25.6667 40.2675V42.062ZM4.60131 23.7586H10.0654V32.8744H4.60131V23.7586ZM26.6013 0.933117H20.2026C20.2026 0.430668 19.7713 0 19.268 0H8.26799C7.76472 0 7.33334 0.430668 7.33334 0.933117V7.32137H5.53596C5.03269 7.32137 4.60131 7.75204 4.60131 8.25449V12.8483H0.934642C0.431373 12.8483 0 13.279 0 13.7814V17.4421C0 17.9445 0.431373 18.3752 0.934642 18.3752H2.73203C2.73203 20.6003 2.73203 36.248 2.73203 38.4731H0.934642C0.431373 38.4731 0 38.9038 0 39.4062V43.0669C0 43.5693 0.431373 44 0.934642 44H26.6013C27.1046 44 27.536 43.5693 27.536 43.0669V39.4062C27.536 38.9038 27.1046 38.4731 26.6013 38.4731H24.804V18.3752H26.6013C27.1046 18.3752 27.536 17.9445 27.536 17.4421V13.7096C27.536 13.2072 27.1046 12.7765 26.6013 12.7765H22.9347V8.18271C22.9347 7.68026 22.5033 7.24959 22 7.24959H20.2026V6.31647H26.6013C27.1046 6.31647 27.536 5.88581 27.536 5.38336V1.72268C27.4641 1.36378 27.1046 0.933117 26.6013 0.933117Z" fill="#EC4A05"/>
<path d="M36.1641 5.38325L42.5628 1.72256C42.9942 1.50723 43.138 0.933002 42.9223 0.502333C42.7066 0.0716639 42.1314 -0.0718923 41.7 0.143442L35.3013 3.80413C34.87 4.01946 34.7262 4.59369 34.9419 5.02436C35.2294 5.45502 35.7327 5.59858 36.1641 5.38325Z" fill="#EC4A05"/>
<path d="M41.7 16.3654C42.1314 16.5808 42.7066 16.4372 42.9223 16.0065C43.138 15.5759 42.9942 15.0016 42.5628 14.7863L36.1641 11.1256C35.7327 10.9103 35.1576 11.0538 34.9419 11.4845C34.7262 11.9152 34.87 12.4894 35.3013 12.7047L41.7 16.3654Z" fill="#EC4A05"/>
<path d="M43.0654 7.32127H35.732C35.2287 7.32127 34.7974 7.75194 34.7974 8.25438C34.7974 8.75683 35.2287 9.1875 35.732 9.1875H43.0654C43.5686 9.1875 44 8.75683 44 8.25438C44 7.75194 43.5686 7.32127 43.0654 7.32127Z" fill="#EC4A05"/>
<path d="M33.9352 20.1697C33.4319 20.1697 33.0005 19.739 33.0005 19.2365C33.0005 18.7341 33.4319 18.3034 33.9352 18.3034C34.4384 18.3034 34.8698 18.7341 34.8698 19.2365C34.7979 19.739 34.4384 20.1697 33.9352 20.1697ZM33.9352 16.509C32.4253 16.509 31.2031 17.7292 31.2031 19.2365C31.2031 20.7439 32.4253 21.9641 33.9352 21.9641C35.445 21.9641 36.6672 20.7439 36.6672 19.2365C36.6672 17.7292 35.445 16.509 33.9352 16.509Z" fill="#EC4A05"/>
<path d="M30.2686 23.7585H32.0659V25.553H30.2686V23.7585Z" fill="#EC4A05"/>
<path d="M33.9351 23.7585H35.7324V25.553H33.9351V23.7585Z" fill="#EC4A05"/>
<path d="M37.6011 23.7585H39.3985V25.553H37.6011V23.7585Z" fill="#EC4A05"/>
<path d="M41.2676 23.7585H43.065V25.553H41.2676V23.7585Z" fill="#EC4A05"/>
<path d="M30.2686 28.3525H32.0659V30.147H30.2686V28.3525Z" fill="#EC4A05"/>
<path d="M33.9351 28.3525H35.7324V30.147H33.9351V28.3525Z" fill="#EC4A05"/>
<path d="M37.6011 28.3525H39.3985V30.147H37.6011V28.3525Z" fill="#EC4A05"/>
<path d="M41.2676 28.3525H43.065V30.147H41.2676V28.3525Z" fill="#EC4A05"/>
<path d="M30.2686 32.946H32.0659V34.7405H30.2686V32.946Z" fill="#EC4A05"/>
<path d="M33.9351 32.946H35.7324V34.7405H33.9351V32.946Z" fill="#EC4A05"/>
<path d="M37.6011 32.946H39.3985V34.7405H37.6011V32.946Z" fill="#EC4A05"/>
<path d="M41.2676 32.946H43.065V34.7405H41.2676V32.946Z" fill="#EC4A05"/>
</svg>
