<svg width="32" height="32" viewBox="0 0 32 32" fill="none" xmlns="http://www.w3.org/2000/svg">
<path d="M10.6666 25.2659C11.0326 25.2659 11.3463 24.9527 11.3463 24.5872V16.6525C11.3463 16.2871 11.0326 15.9739 10.6666 15.9739C10.3005 15.9739 9.98682 16.2871 9.98682 16.6525V24.6394C9.98682 25.0049 10.3005 25.2659 10.6666 25.2659Z" fill="#0F0D0D"/>
<path d="M18.6667 3.34095H14.6928V2.03589H18.6667V3.34095ZM6.69282 5.32463V1.35726H13.3334C13.3334 1.98369 13.3334 4.28059 13.3334 5.32463H6.69282ZM15.3203 9.34421H4.6536V6.68189C6.27452 6.68189 14.2222 6.68189 15.3203 6.68189V9.34421ZM18.6667 12.0065C17.6209 12.0065 2.35294 12.0065 1.35948 12.0065V10.7015C5.0719 10.7015 14.7451 10.7015 18.6667 10.7015V12.0065ZM16.6798 27.9282H3.34641V25.2659H8.00001C8.36603 25.2659 8.67975 24.9527 8.67975 24.5873V16.6525C8.67975 16.2871 8.36603 15.9739 8.00001 15.9739H3.34641V13.3116H16.6798V27.9282ZM18.6667 30.5905H1.35948V29.2855C2.40523 29.2855 17.6732 29.2855 18.6667 29.2855V30.5905ZM3.34641 17.279H7.32027V23.9086H3.34641V17.279ZM19.3464 0.678629H14.6928C14.6928 0.313213 14.3791 0 14.0131 0H6.01308C5.64707 0 5.33334 0.313213 5.33334 0.678629V5.32463H4.02615C3.66014 5.32463 3.34641 5.63785 3.34641 6.00326V9.34421H0.67974C0.313726 9.34421 0 9.65742 0 10.0228V12.6852C0 13.0506 0.313726 13.3638 0.67974 13.3638H1.98693C1.98693 14.9821 1.98693 26.3622 1.98693 27.9804H0.67974C0.313726 27.9804 0 28.2936 0 28.6591V31.3214C0 31.6868 0.313726 32 0.67974 32H19.3464C19.7124 32 20.0262 31.6868 20.0262 31.3214V28.6591C20.0262 28.2936 19.7124 27.9804 19.3464 27.9804H18.0392V13.3638H19.3464C19.7124 13.3638 20.0262 13.0506 20.0262 12.6852V9.97064C20.0262 9.60522 19.7124 9.29201 19.3464 9.29201H16.6798V5.95106C16.6798 5.58564 16.366 5.27243 16 5.27243H14.6928V4.5938H19.3464C19.7124 4.5938 20.0262 4.28059 20.0262 3.91517V1.25286C19.9739 0.991842 19.7124 0.678629 19.3464 0.678629Z" fill="#0F0D0D"/>
<path d="M26.3013 3.91511L30.9549 1.25279C31.2686 1.09619 31.3732 0.678569 31.2163 0.365355C31.0595 0.0521414 30.6412 -0.0522633 30.3274 0.104344L25.6738 2.76666C25.3601 2.92327 25.2555 3.34089 25.4124 3.6541C25.6216 3.96731 25.9876 4.07172 26.3013 3.91511Z" fill="#0F0D0D"/>
<path d="M30.3274 11.9022C30.6412 12.0588 31.0595 11.9544 31.2163 11.6412C31.3732 11.3279 31.2686 10.9103 30.9549 10.7537L26.3013 8.0914C25.9876 7.9348 25.5693 8.0392 25.4124 8.35242C25.2555 8.66563 25.3601 9.08325 25.6738 9.23985L30.3274 11.9022Z" fill="#0F0D0D"/>
<path d="M31.3202 5.32463H25.9869C25.6209 5.32463 25.3071 5.63784 25.3071 6.00326C25.3071 6.36867 25.6209 6.68188 25.9869 6.68188H31.3202C31.6862 6.68188 31.9999 6.36867 31.9999 6.00326C31.9999 5.63784 31.6862 5.32463 31.3202 5.32463Z" fill="#0F0D0D"/>
<path d="M24.6803 14.6688C24.3143 14.6688 24.0006 14.3556 24.0006 13.9902C24.0006 13.6248 24.3143 13.3116 24.6803 13.3116C25.0463 13.3116 25.36 13.6248 25.36 13.9902C25.3077 14.3556 25.0463 14.6688 24.6803 14.6688ZM24.6803 12.0065C23.5822 12.0065 22.6934 12.8939 22.6934 13.9902C22.6934 15.0864 23.5822 15.9739 24.6803 15.9739C25.7783 15.9739 26.6672 15.0864 26.6672 13.9902C26.6672 12.8939 25.7783 12.0065 24.6803 12.0065Z" fill="#0F0D0D"/>
<path d="M22.0137 17.2789H23.3209V18.584H22.0137V17.2789Z" fill="#0F0D0D"/>
<path d="M24.6802 17.2789H25.9874V18.584H24.6802V17.2789Z" fill="#0F0D0D"/>
<path d="M27.3462 17.2789H28.6534V18.584H27.3462V17.2789Z" fill="#0F0D0D"/>
<path d="M30.0127 17.2789H31.3199V18.584H30.0127V17.2789Z" fill="#0F0D0D"/>
<path d="M22.0137 20.62H23.3209V21.925H22.0137V20.62Z" fill="#0F0D0D"/>
<path d="M24.6802 20.62H25.9874V21.925H24.6802V20.62Z" fill="#0F0D0D"/>
<path d="M27.3462 20.62H28.6534V21.925H27.3462V20.62Z" fill="#0F0D0D"/>
<path d="M30.0127 20.62H31.3199V21.925H30.0127V20.62Z" fill="#0F0D0D"/>
<path d="M22.0137 23.9608H23.3209V25.2659H22.0137V23.9608Z" fill="#0F0D0D"/>
<path d="M24.6802 23.9608H25.9874V25.2659H24.6802V23.9608Z" fill="#0F0D0D"/>
<path d="M27.3462 23.9608H28.6534V25.2659H27.3462V23.9608Z" fill="#0F0D0D"/>
<path d="M30.0127 23.9608H31.3199V25.2659H30.0127V23.9608Z" fill="#0F0D0D"/>
</svg>
