<svg width="44" height="44" viewBox="0 0 44 44" fill="none" xmlns="http://www.w3.org/2000/svg">
<path d="M11.4314 42.1309L18.3333 35.9484V42.1309H11.4314ZM5.53595 5.53902C7.04575 5.53902 38.0327 5.53902 39.0392 5.53902L40.8366 7.33626C40.3333 7.33626 7.62092 7.33626 5.46405 7.33626C5.53595 7.33626 5.53595 5.53902 5.53595 5.53902ZM1.86928 8.27083V4.60445H3.66667V8.27083H1.86928ZM11 2.30398L14.5229 3.66989H11V2.30398ZM5.53595 3.66989L9.20261 2.23209V3.66989H5.53595ZM19.4118 3.66989L17.2549 2.80721L23.7974 3.66989H19.4118ZM18.3333 15.963L12.1503 9.20539H18.3333V15.963ZM11.5033 26.5308L18.3333 20.3483V31.9944L11.5033 26.5308ZM11 28.4718L17.8301 33.9354L11 40.118V28.4718ZM17.9739 18.2635L11 24.5179V10.6432L17.9739 18.2635ZM43.0654 42.1309H20.2026V9.20539H31.2026V21.1391C31.2026 21.6423 31.634 22.0736 32.1373 22.0736C34.6536 22.0736 36.7386 24.1584 36.7386 26.6746C36.7386 29.1907 34.6536 31.2755 32.1373 31.2755C29.6209 31.2755 27.5359 29.1907 27.5359 26.6746C27.5359 26.1714 27.1046 25.74 26.6013 25.74C26.098 25.74 25.6667 26.1714 25.6667 26.6746C25.6667 30.1972 28.5425 33.0728 32.0654 33.0728C35.5882 33.0728 38.4641 30.1972 38.4641 26.6746C38.4641 23.4396 36.0915 20.7796 33 20.3483V9.20539H43.0654C43.4248 9.20539 43.7843 8.98972 43.9281 8.63028C44.0719 8.27083 44 7.91138 43.7124 7.62382L40.0458 3.95745C39.902 3.81367 39.6144 3.66989 39.3987 3.66989H37.6013C8.91503 -0.140266 10.1373 0.00351334 9.92157 0.00351334C9.77778 0.00351334 10.3529 -0.212154 2.58824 2.73532H0.934641C0.431373 2.73532 0 3.16666 0 3.66989V9.1335C0 9.63673 0.431373 10.0681 0.934641 10.0681H4.60131C5.10458 10.0681 5.53595 9.63673 5.53595 9.1335H9.20261V42.1309H0.934641C0.431373 42.1309 0 42.5622 0 43.0654C0 43.5687 0.431373 44 0.934641 44C12.2941 44 38.5359 44 43.0654 44C43.5686 44 44 43.5687 44 43.0654C44 42.5622 43.5686 42.1309 43.0654 42.1309Z" fill="#EC4A05"/>
<path d="M23.7988 36.6671H25.5961V38.4644H23.7988V36.6671Z" fill="#EC4A05"/>
<path d="M27.4644 36.6671H29.2616V38.4644H27.4644V36.6671Z" fill="#EC4A05"/>
<path d="M31.1309 36.6671H32.9281V38.4644H31.1309V36.6671Z" fill="#EC4A05"/>
<path d="M34.7969 36.6671H36.5941V38.4644H34.7969V36.6671Z" fill="#EC4A05"/>
<path d="M38.4644 36.6671H40.2616V38.4644H38.4644V36.6671Z" fill="#EC4A05"/>
<path d="M3.80994 19.2699C3.80994 18.8385 4.16939 18.4791 4.60072 18.4791C5.03206 18.4791 5.39151 18.8385 5.39151 19.2699C5.39151 19.7012 5.03206 20.0607 4.60072 20.0607C4.16939 19.9888 3.80994 19.7012 3.80994 19.2699ZM7.18875 19.2699C7.18875 17.8321 6.03852 16.6819 4.60072 16.6819C3.16293 16.6819 2.0127 17.8321 2.0127 19.2699C2.0127 20.7077 3.16293 21.8579 4.60072 21.8579C6.03852 21.8579 7.18875 20.7077 7.18875 19.2699Z" fill="#EC4A05"/>
<path d="M39.3986 18.1915C38.9672 18.1915 38.6078 17.8321 38.6078 17.4007C38.6078 16.9694 38.9672 16.61 39.3986 16.61C39.8299 16.61 40.1894 16.9694 40.1894 17.4007C40.1894 17.8321 39.8299 18.1915 39.3986 18.1915ZM41.9866 17.4007C41.9866 15.9629 40.8364 14.8127 39.3986 14.8127C37.9608 14.8127 36.8105 15.9629 36.8105 17.4007C36.8105 18.8385 37.9608 19.9888 39.3986 19.9888C40.8364 19.9888 41.9866 18.8385 41.9866 17.4007Z" fill="#EC4A05"/>
</svg>
