<svg width="45" height="44" viewBox="0 0 45 44" fill="none" xmlns="http://www.w3.org/2000/svg">
<path d="M37.4992 30.9032H23.4554V25.3112H37.4992V30.9032ZM29.9994 38.4082H14.9997V32.8162H29.9994V38.4082ZM7.49984 25.3112H21.5437V30.9032H7.49984V25.3112ZM44.0432 25.3112C44.5579 25.3112 44.999 24.8697 44.999 24.3547C44.999 23.8396 44.5579 23.3981 44.0432 23.3981H0.955862C0.441167 23.3981 0 23.8396 0 24.3547C0 24.8697 0.441167 25.3112 0.955862 25.3112H5.66164V30.9032H0.955862C0.441167 30.9032 0 31.3447 0 31.8597C0 32.3748 0.441167 32.8162 0.955862 32.8162H13.1615V38.4082H0.955862C0.441167 38.4082 0 38.8497 0 39.3648C0 39.8798 0.441167 40.3213 0.955862 40.3213H44.0432C44.5579 40.3213 44.999 39.8798 44.999 39.3648C44.999 38.8497 44.5579 38.4082 44.0432 38.4082H31.8375V32.8162H44.0432C44.5579 32.8162 44.999 32.3748 44.999 31.8597C44.999 31.3447 44.5579 30.9032 44.0432 30.9032H39.3374V25.3112H44.0432Z" fill="#EC4A05"/>
<path d="M12.2065 42.1608H14.0447V44.0002H12.2065V42.1608Z" fill="#EC4A05"/>
<path d="M16.9126 42.1608H18.7508V44.0002H16.9126V42.1608Z" fill="#EC4A05"/>
<path d="M21.5444 42.1608H23.3826V44.0002H21.5444V42.1608Z" fill="#EC4A05"/>
<path d="M26.2505 42.1608H28.0887V44.0002H26.2505V42.1608Z" fill="#EC4A05"/>
<path d="M30.9561 42.1608H32.7943V44.0002H30.9561V42.1608Z" fill="#EC4A05"/>
<path d="M13.5298 18.9835L20.2943 12.2142C20.3679 12.1406 20.4414 12.1406 20.5149 12.1406C20.5885 12.1406 20.662 12.2142 20.662 12.2878L23.456 19.7193C23.456 19.7929 23.456 19.8664 23.456 19.94C23.456 20.0136 23.3825 20.0136 23.309 20.0136L13.7504 19.3514C13.6768 19.3514 13.6033 19.2778 13.6033 19.2042C13.4563 19.1306 13.4563 19.0571 13.5298 18.9835ZM35.5881 1.8396H42.1321C42.6468 1.8396 43.088 2.28107 43.088 2.79612C43.088 3.31118 42.6468 3.75265 42.1321 3.75265H35.5881V1.8396ZM13.5298 21.1909L23.0884 21.8531C24.559 21.9266 25.7354 20.4551 25.1472 19.0571L24.3384 16.8497H28.0883C28.603 16.8497 29.0442 16.4082 29.0442 15.8932V3.67907H33.7499V4.6356C33.7499 5.15065 34.1911 5.59212 34.7058 5.59212H42.2056C43.7497 5.59212 44.9997 4.34128 44.9997 2.79612C44.9997 1.25097 43.7497 0.000125885 42.2056 0.000125885H34.7058C34.1911 0.000125885 33.7499 0.441599 33.7499 0.956652V1.91318H28.1618C27.6471 1.91318 27.206 2.35465 27.206 2.8697V15.0838H23.6766L22.4267 11.7728C21.912 10.3748 20.0738 9.93328 19.0444 11.037L12.2798 17.8062C10.9563 18.9099 11.7651 21.0437 13.5298 21.1909Z" fill="#EC4A05"/>
<path d="M35.5875 12.1405C35.0728 12.1405 34.6317 11.699 34.6317 11.184C34.6317 10.6689 35.0728 10.2275 35.5875 10.2275C36.1022 10.2275 36.5434 10.6689 36.5434 11.184C36.5434 11.699 36.1022 12.1405 35.5875 12.1405ZM35.5875 8.38798C34.0434 8.38798 32.7935 9.63882 32.7935 11.184C32.7935 12.7291 34.0434 13.98 35.5875 13.98C37.1316 13.98 38.3816 12.7291 38.3816 11.184C38.4551 9.63882 37.1316 8.38798 35.5875 8.38798Z" fill="#EC4A05"/>
<path d="M2.79406 4.63542C3.30875 4.63542 3.74992 5.07689 3.74992 5.59194C3.74992 6.10699 3.30875 6.54847 2.79406 6.54847C2.27936 6.54847 1.8382 6.10699 1.8382 5.59194C1.91172 5.07689 2.27936 4.63542 2.79406 4.63542ZM2.79406 8.38794C4.33814 8.38794 5.58811 7.1371 5.58811 5.59194C5.58811 4.04678 4.33814 2.79594 2.79406 2.79594C1.24997 2.79594 0 4.04678 0 5.59194C0 7.1371 1.24997 8.38794 2.79406 8.38794Z" fill="#EC4A05"/>
<path d="M8.45605 8.38782H10.2943V10.2273H8.45605V8.38782Z" fill="#EC4A05"/>
<path d="M8.45605 12.1405H10.2943V13.98H8.45605V12.1405Z" fill="#EC4A05"/>
<path d="M10.2944 10.3009H12.1326V12.1404H10.2944V10.3009Z" fill="#EC4A05"/>
<path d="M6.54443 10.3009H8.38263V12.1404H6.54443V10.3009Z" fill="#EC4A05"/>
<path d="M40.2944 15.8929H42.1326V17.7324H40.2944V15.8929Z" fill="#EC4A05"/>
<path d="M40.2944 19.6454H42.1326V21.4849H40.2944V19.6454Z" fill="#EC4A05"/>
<path d="M42.2046 17.806H44.0428V19.6455H42.2046V17.806Z" fill="#EC4A05"/>
<path d="M38.4561 17.806H40.2943V19.6455H38.4561V17.806Z" fill="#EC4A05"/>
</svg>
