<svg width="34" height="34" viewBox="0 0 34 34" fill="none" xmlns="http://www.w3.org/2000/svg">
<path d="M26.5634 32.3432L25.2845 31.0622C25.3401 31.0066 25.4513 30.8952 27.453 28.8903C27.731 28.6118 27.731 28.1663 27.453 27.8878C27.175 27.6093 26.7302 27.6093 26.4522 27.8878C24.4505 29.8927 24.3393 30.0041 24.2837 30.0598L21.6705 27.4423C21.6705 26.4398 21.6705 25.326 21.6705 24.3792C21.6705 24.2121 21.6149 23.9894 21.4481 23.878L17.5004 19.9238C17.2224 19.6454 16.7776 19.6454 16.4996 19.9238L12.5519 23.878C12.4407 23.9894 12.3295 24.2121 12.3295 24.3792C12.3295 24.4906 12.3295 24.3792 12.3295 27.4423L7.43663 32.3432L1.70973 26.6069L2.65495 25.6601L4.48978 27.498C4.76778 27.7764 5.21259 27.7764 5.4906 27.498C5.7686 27.2195 5.7686 26.774 5.4906 26.4955L3.65576 24.6577L6.60262 21.706C7.93704 21.706 8.32625 21.706 9.66067 21.706C9.82747 21.706 10.0499 21.6503 10.1611 21.4832L14.1087 17.5291C14.3868 17.2506 14.3868 16.8051 14.1087 16.5266L10.1611 12.5725C10.0499 12.4611 9.82747 12.3497 9.66067 12.3497C9.60507 12.3497 9.66067 12.3497 6.60262 12.3497L3.65576 9.39804L6.15781 6.89189C6.43581 6.61343 6.43581 6.1679 6.15781 5.88943C5.8798 5.61098 5.435 5.61098 5.15699 5.88943L2.65495 8.39558L1.70973 7.44881L7.43663 1.71253L12.3295 6.61343C12.3295 7.95004 12.3295 8.33989 12.3295 9.67649C12.3295 9.84357 12.3851 10.0663 12.5519 10.1777L16.4996 14.1319C16.7776 14.4103 17.2224 14.4103 17.5004 14.1319L21.4481 10.1777C21.5593 10.0663 21.6705 9.84357 21.6705 9.67649C21.6705 8.39558 21.6705 7.89435 21.6705 6.61343L24.6173 3.66175L27.1194 6.1679C27.3974 6.44636 27.8422 6.44636 28.1202 6.1679C28.3982 5.88943 28.3982 5.4439 28.1202 5.16544L25.6182 2.6593L26.5634 1.71253L32.2903 7.44881L27.3974 12.3497C26.063 12.3497 25.6738 12.3497 24.3393 12.3497C24.1725 12.3497 23.9501 12.4054 23.8389 12.5725L19.8913 16.5266C19.6132 16.8051 19.6132 17.2506 19.8913 17.5291L23.8389 21.4832C23.9501 21.5946 24.1725 21.706 24.3393 21.706C24.3393 21.706 26.5078 21.706 27.3974 21.706L32.2903 26.6069L26.5634 32.3432ZM20.2249 25.6601C18.2232 26.4398 15.888 26.4398 13.7751 25.6601V24.602L17 21.3718L20.2249 24.602V25.6601ZM12.1627 29.6143L13.5527 28.2219C13.6639 28.1106 13.7751 27.8878 13.7751 27.7207V27.1638C15.8324 27.8321 18.112 27.8321 20.2249 27.1638V27.7207C20.2249 27.8878 20.2805 28.1106 20.4473 28.2219L21.8373 29.6143C18.7236 30.7838 15.2764 30.8395 12.1627 29.6143ZM9.38267 13.7977L12.6075 17.0278L9.38267 20.258H8.38185C7.60343 18.2531 7.60343 15.914 8.38185 13.7977H9.38267ZM4.43418 12.1826L5.8242 13.5749C5.9354 13.6863 6.15781 13.7977 6.32461 13.7977H6.88062C6.21341 15.8583 6.21341 18.1417 6.88062 20.258H6.32461C6.15781 20.258 5.9354 20.3137 5.8242 20.4808L4.43418 21.8731C3.26656 18.7543 3.21096 15.3014 4.43418 12.1826ZM13.7751 8.39558C15.7768 7.61589 18.112 7.61589 20.2249 8.39558V9.45373L17 12.6839L13.7751 9.45373V8.39558ZM21.8373 4.44144L20.4473 5.83374C20.3361 5.94513 20.2249 6.1679 20.2249 6.33497V6.89189C18.1676 6.22359 15.888 6.22359 13.7751 6.89189V6.33497C13.7751 6.1679 13.7195 5.94513 13.5527 5.83374L12.1627 4.44144C15.2764 3.27191 18.7236 3.21622 21.8373 4.44144ZM24.6173 20.258L21.3925 17.0278L24.6173 13.7977H25.6182C26.3966 15.8026 26.3966 18.1417 25.6182 20.258H24.6173ZM29.5658 21.8731L28.1758 20.4808C28.0646 20.3694 27.8422 20.258 27.6754 20.258H27.1194C27.7866 18.1974 27.7866 15.914 27.1194 13.7977H27.6754C27.8422 13.7977 28.0646 13.742 28.1758 13.5749L29.5658 12.1826C30.7334 15.3014 30.789 18.7543 29.5658 21.8731ZM33.7915 26.1057L30.6778 22.9869C32.2903 19.1998 32.2903 14.9115 30.6778 11.1245L33.7915 8.00573C34.0695 7.72727 34.0695 7.28174 33.7915 7.00328L27.0638 0.208847C26.7858 -0.0696144 26.341 -0.0696144 26.063 0.208847L22.9493 3.3276C19.1684 1.71253 14.8872 1.71253 11.1063 3.3276L7.99264 0.208847C7.71464 -0.0696144 7.26983 -0.0696144 6.99182 0.208847L0.208504 6.94758C-0.0695012 7.22605 -0.0695012 7.67158 0.208504 7.95004L3.32216 11.0688C1.70973 14.8559 1.70973 19.1441 3.32216 22.9312L0.208504 26.05C-0.0695012 26.3284 -0.0695012 26.774 0.208504 27.0524L6.93622 33.7912C7.21423 34.0696 7.65904 34.0696 7.93704 33.7912L11.0507 30.6724C14.8316 32.2875 19.1128 32.2875 22.8937 30.6724L26.0074 33.7912C26.2854 34.0696 26.7302 34.0696 27.0082 33.7912L33.7359 27.0524C34.0695 26.8296 34.0695 26.3841 33.7915 26.1057Z" fill="#00091B"/>
<path d="M16.5945 17.83C16.2217 17.83 15.9021 17.4465 15.9021 16.9992C15.9021 16.5518 16.2217 16.1683 16.5945 16.1683C16.9673 16.1683 17.2868 16.5518 17.2868 16.9992C17.2868 17.4465 16.9673 17.83 16.5945 17.83ZM16.5945 14.5706C15.4761 14.5706 14.5707 15.6571 14.5707 16.9992C14.5707 18.3413 15.4761 19.4277 16.5945 19.4277C17.7129 19.4277 18.6183 18.3413 18.6183 16.9992C18.6183 15.6571 17.7129 14.5706 16.5945 14.5706Z" fill="#00091B"/>
</svg>
