<svg width="34" height="34" viewBox="0 0 34 34" fill="none" xmlns="http://www.w3.org/2000/svg">
<path d="M14.5714 12.0599L15.1656 10.5226L16.1905 11.4146L15.5963 12.9512L14.5714 12.0599Z" fill="#00091B"/>
<path d="M18.619 12.744L17.6014 12.1427L17 13.1604L18.0177 13.7617L18.619 12.744Z" fill="#00091B"/>
<path d="M19.4286 14.7867L20.0232 13.7618L21.0476 14.3565L20.4535 15.3809L19.4286 14.7867Z" fill="#00091B"/>
<path d="M11.0937 23.1397L11.7381 23.4751L12.3825 23.8105L10.1564 27.4997C10.1564 27.4997 9.21908 26.9408 8.86759 26.7731L11.0937 23.1397ZM9.39482 28.7854L10.0392 29.1208C10.3907 29.3444 10.8594 29.1767 11.0351 28.8413L14.0228 23.9223C14.2571 23.5869 14.0814 23.1397 13.7299 22.972L13.1441 22.5807L16.8933 16.4319C17.1276 16.0965 16.9519 15.6493 16.6004 15.4816C16.2489 15.2581 15.7803 15.4257 15.6045 15.7611L11.8553 21.9099L11.2109 21.5745C10.8594 21.3509 10.3907 21.5186 10.215 21.854L7.22729 26.7731C6.99297 27.1085 7.16871 27.5556 7.5202 27.7233L8.1646 28.0587L6.58289 30.5182C6.34857 30.8536 6.52431 31.3008 6.8758 31.4685C7.22729 31.6921 7.69595 31.5244 7.87169 31.189L9.39482 28.7854Z" fill="#00091B"/>
<path d="M7.11111 32.1362C5.77778 31.3455 5.27778 29.5947 6.05556 28.1827L14.4444 13.4983C14.6111 13.2724 14.5556 12.9336 14.3889 12.7076C13.2778 11.2957 13.0556 9.37542 13.7222 7.73754C15.2222 8.58472 23.6667 13.6113 24.6667 14.1761C23.6111 15.588 21.8333 16.3223 20.0556 16.0399C19.7778 15.9834 19.5 16.1528 19.3333 16.3787L10.9444 31.1196C10.1667 32.4751 8.44444 32.9834 7.11111 32.1362ZM17.7222 5.64784L16.5 7.73754C15.5556 7.17276 15.0556 6.89037 14.4444 6.49502C14.8333 6.09967 16.5 5.25249 17.7222 5.64784ZM24.5 5.87375C26.3889 7.39867 26.9444 10.1661 25.7222 12.3688L25.3889 12.99L21.7222 10.8439L24.5 5.87375ZM33.2778 32.5316H11.6667C11.8333 32.3056 12 32.0797 12.1667 31.7973L20.3333 17.5648C22.7222 17.7342 25.0556 16.4917 26.2778 14.3455L27 13.103C28.7778 9.99668 27.7222 6.04319 24.6667 4.23588C24.3333 4.00997 23.8889 4.1794 23.7222 4.51827L20.5 10.1096L17.7222 8.47176L19.3333 5.64784C19.5556 5.30897 19.3889 4.85714 19.0556 4.68771C16.8333 3.38871 14.0556 4.12292 12.7778 6.38206C11.5556 8.52824 11.6667 11.1827 13 13.2159L4.83333 27.505C3.88889 29.1429 4.16667 31.1761 5.33333 32.5316H0.722222C0.333333 32.5316 0 32.8704 0 33.2658C0 33.6611 0.333333 34 0.722222 34C1.11111 34 32.6111 34 33.2778 34C33.6667 34 34 33.6611 34 33.2658C34 32.8704 33.6667 32.5316 33.2778 32.5316Z" fill="#00091B"/>
<path d="M6.88192 1.33071C7.25454 1.33071 7.57392 1.65026 7.57392 2.02307C7.57392 2.39587 7.25454 2.71542 6.88192 2.71542C6.50931 2.71542 6.18993 2.39587 6.18993 2.02307C6.18993 1.597 6.50931 1.33071 6.88192 1.33071ZM6.88192 4.04688C7.99976 4.04688 8.90467 3.14149 8.90467 2.02307C8.90467 0.904644 7.99976 -0.000743866 6.88192 -0.000743866C5.76409 -0.000743866 4.85917 0.904644 4.85917 2.02307C4.80594 3.08823 5.76409 4.04688 6.88192 4.04688Z" fill="#00091B"/>
<path d="M31.1668 20.7584C31.5396 20.7584 31.8591 21.078 31.8591 21.4508C31.8591 21.8236 31.5396 22.1432 31.1668 22.1432C30.7939 22.1432 30.4744 21.8236 30.4744 21.4508C30.4744 21.0247 30.7939 20.7584 31.1668 20.7584ZM31.1668 23.4746C32.2852 23.4746 33.1906 22.5692 33.1906 21.4508C33.1906 20.3324 32.2852 19.427 31.1668 19.427C30.0483 19.427 29.1429 20.3324 29.1429 21.4508C29.1429 22.5692 30.0483 23.4746 31.1668 23.4746Z" fill="#00091B"/>
<path d="M22.9543 28.739C22.9543 29.1116 22.6348 29.431 22.262 29.431C21.8892 29.431 21.5696 29.1116 21.5696 28.739C21.5696 28.3664 21.8892 28.047 22.262 28.047C22.6348 28.047 22.9543 28.3664 22.9543 28.739ZM20.2382 28.739C20.2382 29.8568 21.1435 30.7617 22.262 30.7617C23.3804 30.7617 24.2858 29.8568 24.2858 28.739C24.2858 27.6211 23.3804 26.7162 22.262 26.7162C21.1435 26.663 20.2382 27.6211 20.2382 28.739Z" fill="#00091B"/>
<path d="M3.23816 10.5235H4.85721V12.1426H3.23816V10.5235Z" fill="#00091B"/>
<path d="M3.23816 12.9513H4.85721V14.5703H3.23816V12.9513Z" fill="#00091B"/>
<path d="M4.85706 12.1416H6.4761V12.9512H4.85706V12.1416Z" fill="#00091B"/>
<path d="M1.61914 12.1416H3.23819V12.9512H1.61914V12.1416Z" fill="#00091B"/>
<path d="M24.2856 19.4278H25.0952V21.0469H24.2856V19.4278Z" fill="#00091B"/>
<path d="M24.2856 22.6661H25.0952V24.2852H24.2856V22.6661Z" fill="#00091B"/>
<path d="M25.0952 21.047H26.7143V22.666H25.0952V21.047Z" fill="#00091B"/>
<path d="M22.6666 21.047H24.2857V22.666H22.6666V21.047Z" fill="#00091B"/>
<path d="M29.9523 0.809617H31.5713V1.61914H29.9523V0.809617Z" fill="#00091B"/>
<path d="M29.9523 3.23642H31.5713V4.85547H29.9523V3.23642Z" fill="#00091B"/>
<path d="M31.5714 1.61728H33.1905V3.23633H31.5714V1.61728Z" fill="#00091B"/>
<path d="M29.1429 1.61728H29.9525V3.23633H29.1429V1.61728Z" fill="#00091B"/>
</svg>
