<svg width="44" height="44" viewBox="0 0 44 44" fill="none" xmlns="http://www.w3.org/2000/svg">
<path d="M17.7582 32.5499C19.915 30.6776 21.5686 28.4452 22.8627 25.9247L25.6667 20.3797L28.183 22.9001L25.0915 29.0213C23.9412 31.3257 22.3595 33.4141 20.4183 35.1424L13.085 41.6236L10.4967 39.0311L17.7582 32.5499ZM18.1895 21.1718C15.6732 22.4681 13.4444 24.1964 11.5752 26.2848L5.17647 33.4861L2.58824 30.9656L9.05882 23.6203C10.7843 21.6759 12.7974 20.0916 15.1699 18.9394L21.281 15.8429L23.7974 18.3633L18.1895 21.1718ZM29.8366 15.4108C29.6928 15.5548 29.4052 15.6988 29.1895 15.6988C28.6863 15.6988 28.2549 15.2667 28.2549 14.7627C28.2549 14.2586 28.6863 13.8265 29.1895 13.8265C29.4052 13.8265 29.6928 13.8985 29.8366 14.1145C30.1961 14.4746 30.1961 15.0507 29.8366 15.4108ZM32.3529 3.67263L35.6601 6.98523L30.3399 12.2422C29.3333 11.7381 28.0392 11.9541 27.1765 12.7463C26.098 13.8265 26.098 15.5548 27.1765 16.635C28.2549 17.7152 29.9804 17.7152 31.0588 16.635C31.9216 15.7708 32.0654 14.4746 31.5621 13.4664L36.8824 8.13744L40.1895 11.45L32.3529 20.5957L29.4052 21.4599C28.6863 20.7397 23.1503 15.1947 22.4314 14.4746L23.2941 11.5221L32.3529 3.67263ZM43.0654 42.1277H15.2418L21.6405 36.4386C23.7974 34.5663 25.451 32.3339 26.7451 29.8134L30.0523 23.1882L33.1438 22.252C33.2876 22.18 33.4314 22.108 33.5752 21.964L42.1307 12.0982C42.4183 11.7381 42.4183 11.162 42.0588 10.8739L33.0719 1.80028C32.7124 1.44022 32.2092 1.44022 31.8497 1.72827L21.9281 10.2978C21.7843 10.4419 21.7124 10.5859 21.6405 10.7299L20.634 14.1145L14.2353 17.2831C11.719 18.5794 9.4902 20.3077 7.62092 22.396L0.575163 30.3895C0.287582 30.7496 0.287582 31.3257 0.647059 31.6137L4.52941 35.5024C4.88889 35.8625 5.53595 35.8625 5.89543 35.4304L12.9412 27.437C14.6667 25.4926 16.6797 23.9083 19.0523 22.7561L23.5817 20.4517L21.281 24.9885C20.1307 27.2929 18.549 29.3813 16.6078 31.1096L8.62745 38.1669C8.19608 38.527 8.19608 39.1031 8.55556 39.5352L11.1438 42.1277H0.934641C0.431373 42.1277 0 42.5597 0 43.0638C0 43.5679 0.431373 44 0.934641 44H43.0654C43.5686 44 44 43.5679 44 43.0638C44 42.5597 43.5686 42.1277 43.0654 42.1277Z" fill="#EC4A05"/>
<path d="M11.9352 1.80047C12.4384 1.80047 12.8698 2.23255 12.8698 2.73664C12.8698 3.24074 12.4384 3.67282 11.9352 3.67282C11.4319 3.67282 11.0005 3.24074 11.0005 2.73664C11.0005 2.16054 11.4319 1.80047 11.9352 1.80047ZM11.9352 5.47314C13.445 5.47314 14.6672 4.24892 14.6672 2.73664C14.6672 1.22437 13.445 0.000144005 11.9352 0.000144005C10.4253 0.000144005 9.20312 1.22437 9.20312 2.73664C9.20312 4.17691 10.4253 5.47314 11.9352 5.47314Z" fill="#EC4A05"/>
<path d="M39.3989 30.2454C39.3989 29.7413 39.8303 29.3093 40.3336 29.3093C40.8369 29.3093 41.2682 29.7413 41.2682 30.2454C41.2682 30.7495 40.8369 31.1816 40.3336 31.1816C39.8303 31.1096 39.3989 30.7495 39.3989 30.2454ZM43.0656 30.2454C43.0656 28.7332 41.8434 27.5089 40.3336 27.5089C38.8238 27.5089 37.6016 28.7332 37.6016 30.2454C37.6016 31.7577 38.8238 32.9819 40.3336 32.9819C41.8434 32.9819 43.0656 31.7577 43.0656 30.2454Z" fill="#EC4A05"/>
<path d="M26.6011 37.591H28.3985V39.3914H26.6011V37.591Z" fill="#EC4A05"/>
<path d="M30.2686 37.591H32.0659V39.3914H30.2686V37.591Z" fill="#EC4A05"/>
<path d="M33.9351 37.591H35.7324V39.3914H33.9351V37.591Z" fill="#EC4A05"/>
<path d="M37.6016 37.591H39.3989V39.3914H37.6016V37.591Z" fill="#EC4A05"/>
<path d="M3.6665 8.20944H5.46389V10.0098H3.6665V8.20944Z" fill="#EC4A05"/>
<path d="M7.33398 8.20944H9.13137V10.0098H7.33398V8.20944Z" fill="#EC4A05"/>
<path d="M11.0005 8.20944H12.7979V10.0098H11.0005V8.20944Z" fill="#EC4A05"/>
<path d="M14.667 8.20944H16.4644V10.0098H14.667V8.20944Z" fill="#EC4A05"/>
</svg>
