<svg width="32" height="32" viewBox="0 0 32 32" fill="none" xmlns="http://www.w3.org/2000/svg">
<path d="M12.915 23.6727C14.4837 22.311 15.6863 20.6874 16.6275 18.8543L18.6667 14.8216L20.4967 16.6546L18.2484 21.1064C17.4118 22.7823 16.2614 24.3011 14.8497 25.5581L9.51634 30.2717L7.63399 28.3862L12.915 23.6727ZM13.2288 15.3977C11.3987 16.3404 9.77778 17.5974 8.4183 19.1162L3.76471 24.3535L1.88235 22.5204L6.58824 17.1784C7.84314 15.7643 9.30719 14.6121 11.0327 13.7741L15.4771 11.5221L17.3072 13.3551L13.2288 15.3977ZM21.6993 11.2078C21.5948 11.3126 21.3856 11.4173 21.2288 11.4173C20.8627 11.4173 20.549 11.1031 20.549 10.7365C20.549 10.3699 20.8627 10.0556 21.2288 10.0556C21.3856 10.0556 21.5948 10.108 21.6993 10.2651C21.9608 10.527 21.9608 10.946 21.6993 11.2078ZM23.5294 2.671L25.9346 5.08017L22.0654 8.90341C21.3333 8.5368 20.3922 8.69392 19.7647 9.27003C18.9804 10.0556 18.9804 11.3126 19.7647 12.0982C20.549 12.8838 21.8039 12.8838 22.5882 12.0982C23.2157 11.4697 23.3203 10.527 22.9542 9.79376L26.8235 5.91814L29.2288 8.32731L23.5294 14.9787L21.3856 15.6072C20.8627 15.0835 16.8366 11.0507 16.3137 10.527L16.9412 8.37968L23.5294 2.671ZM31.3203 30.6383H11.085L15.7386 26.5008C17.3072 25.1391 18.5098 23.5155 19.451 21.6825L21.8562 16.8641L24.1046 16.1833C24.2092 16.1309 24.3137 16.0785 24.4183 15.9738L30.6405 8.79867C30.8497 8.5368 30.8497 8.11782 30.5882 7.90832L24.0523 1.3093C23.7908 1.04743 23.4248 1.04743 23.1634 1.25693L15.9477 7.48934C15.8431 7.59408 15.7908 7.69883 15.7386 7.80358L15.0065 10.2651L10.3529 12.5695C8.52288 13.5123 6.90196 14.7692 5.54248 16.288L0.418301 22.1015C0.20915 22.3633 0.20915 22.7823 0.470588 22.9918L3.29412 25.82C3.55556 26.0818 4.02614 26.0818 4.28758 25.7676L9.41177 19.9542C10.6667 18.5401 12.1307 17.3879 13.8562 16.5499L17.1503 14.874L15.4771 18.1735C14.6405 19.8494 13.4902 21.3682 12.0784 22.6252L6.27451 27.7578C5.96078 28.0196 5.96078 28.4386 6.22222 28.7529L8.10458 30.6383H0.679739C0.313726 30.6383 0 30.9525 0 31.3191C0 31.6858 0.313726 32 0.679739 32H31.3203C31.6863 32 32 31.6858 32 31.3191C32 30.9525 31.6863 30.6383 31.3203 30.6383Z" fill="#0F0D0D"/>
<path d="M8.68029 1.30943C9.0463 1.30943 9.36003 1.62367 9.36003 1.99029C9.36003 2.3569 9.0463 2.67114 8.68029 2.67114C8.31427 2.67114 8.00055 2.3569 8.00055 1.99029C8.00055 1.5713 8.31427 1.30943 8.68029 1.30943ZM8.68029 3.98047C9.77833 3.98047 10.6672 3.09012 10.6672 1.99029C10.6672 0.890449 9.77833 0.000104666 8.68029 0.000104666C7.58225 0.000104666 6.69336 0.890449 6.69336 1.99029C6.69336 3.03775 7.58225 3.98047 8.68029 3.98047Z" fill="#0F0D0D"/>
<path d="M28.6539 21.9966C28.6539 21.63 28.9676 21.3158 29.3336 21.3158C29.6996 21.3158 30.0133 21.63 30.0133 21.9966C30.0133 22.3632 29.6996 22.6775 29.3336 22.6775C28.9676 22.6251 28.6539 22.3632 28.6539 21.9966ZM31.3205 21.9966C31.3205 20.8968 30.4316 20.0065 29.3336 20.0065C28.2356 20.0065 27.3467 20.8968 27.3467 21.9966C27.3467 23.0965 28.2356 23.9868 29.3336 23.9868C30.4316 23.9868 31.3205 23.0965 31.3205 21.9966Z" fill="#0F0D0D"/>
<path d="M19.3462 27.3389H20.6534V28.6482H19.3462V27.3389Z" fill="#0F0D0D"/>
<path d="M22.0137 27.3389H23.3209V28.6482H22.0137V27.3389Z" fill="#0F0D0D"/>
<path d="M24.6802 27.3389H25.9874V28.6482H24.6802V27.3389Z" fill="#0F0D0D"/>
<path d="M27.3467 27.3389H28.6539V28.6482H27.3467V27.3389Z" fill="#0F0D0D"/>
<path d="M2.6665 5.97045H3.97369V7.27979H2.6665V5.97045Z" fill="#0F0D0D"/>
<path d="M5.33398 5.97045H6.64117V7.27979H5.33398V5.97045Z" fill="#0F0D0D"/>
<path d="M8.00049 5.97045H9.30768V7.27979H8.00049V5.97045Z" fill="#0F0D0D"/>
<path d="M10.667 5.97045H11.9742V7.27979H10.667V5.97045Z" fill="#0F0D0D"/>
</svg>
