<svg width="28" height="28" viewBox="0 0 28 28" fill="none" xmlns="http://www.w3.org/2000/svg">
<path d="M8.30246 11.8885L4.7734 13.6328V11.4295L8.30246 9.68525V11.8885ZM8.30246 15.377L4.7734 17.1213V14.918L8.30246 13.1738V15.377ZM8.30246 18.9115L4.72696 20.6557V18.4525L8.25603 16.7082V18.9115H8.30246ZM8.30246 22.4L4.95914 24.0525L4.7734 23.7311V21.941L8.30246 20.1967V22.4ZM8.30246 23.777L6.53793 26.3934L5.60923 25.0623L8.30246 23.7311V23.777ZM4.72696 7.57377H8.25603V8.4L4.72696 10.1443V7.57377ZM11.4136 1.14754L8.4882 6.42623H4.44835L2.82312 3.48853H8.20959C8.53464 3.48853 8.81325 3.21312 8.81325 2.8918C8.81325 2.57049 8.53464 2.29508 8.20959 2.29508C1.94086 2.29508 2.2659 2.29508 2.17303 2.29508L1.52294 1.10164H11.4136V1.14754ZM10.2992 8.67541C10.5778 8.53771 10.7171 8.17049 10.5778 7.89508C10.4385 7.61967 10.067 7.48197 9.78838 7.61967L9.46334 7.80328V7.16066L12.946 0.872131C13.1781 0.504919 12.8531 1.90735e-06 12.4352 1.90735e-06H0.594239C0.129888 1.90735e-06 -0.148723 0.459017 0.0834527 0.872131L3.56608 7.16066V10.741L2.73025 11.1541C2.45164 11.2918 2.31234 11.659 2.45164 11.9344C2.59095 12.2098 2.96243 12.3475 3.24104 12.2098L3.56608 12.0262V14.2295L2.73025 14.6426C2.45164 14.7803 2.31234 15.1475 2.45164 15.423C2.59095 15.6984 2.96243 15.8361 3.24104 15.6984L3.56608 15.5148V17.718L2.73025 18.1311C2.45164 18.2689 2.31234 18.6361 2.45164 18.9115C2.59095 19.1869 2.96243 19.3246 3.24104 19.1869L3.56608 19.0033V21.2066L2.73025 21.6197C2.45164 21.7574 2.31234 22.1246 2.45164 22.4C2.59095 22.6754 2.96243 22.8131 3.24104 22.6754L3.56608 22.4918V23.8689C3.56608 24.0066 3.61252 24.0984 3.65895 24.1902L3.89113 24.5115L2.73025 25.1082C2.45164 25.2459 2.31234 25.6131 2.45164 25.8885C2.59095 26.1639 2.96243 26.3016 3.24104 26.1639L4.54122 25.5213L6.02714 27.7246C6.25932 28.0918 6.7701 28.0918 7.00228 27.7246L9.37047 24.2361C9.4169 24.1443 9.46334 24.0066 9.46334 23.9148V23.0885L10.2992 22.6754C10.5778 22.5377 10.7171 22.1705 10.5778 21.8951C10.4385 21.6197 10.067 21.482 9.78838 21.6197L9.46334 21.8033V19.6L10.2992 19.1869C10.5778 19.0492 10.7171 18.682 10.5778 18.4066C10.4385 18.1311 10.067 17.9934 9.78838 18.1311L9.46334 18.3148V16.1115L10.2992 15.6984C10.5778 15.5607 10.7171 15.1934 10.5778 14.918C10.4385 14.6426 10.067 14.5049 9.78838 14.6426L9.46334 14.8262V12.623L10.2992 12.2098C10.5778 12.0721 10.7171 11.7049 10.5778 11.4295C10.4385 11.1541 10.067 11.0164 9.78838 11.1541L9.46334 11.3377V9.13443L10.2992 8.67541Z" fill="#000814"/>
<path d="M16.5861 26.8066L17.2362 25.6131C17.3755 25.659 16.9576 25.6131 23.2727 25.6131C23.5978 25.6131 23.8764 25.3377 23.8764 25.0164C23.8764 24.6951 23.5978 24.4197 23.2727 24.4197H17.8863L19.5115 21.482H23.5514L26.4768 26.7607L16.5861 26.8066ZM23.2727 19.6V20.4262H19.7437V17.8557L23.2727 19.6ZM19.6972 14.3213L23.2263 16.0656V18.2689L19.6972 16.5246V14.3213ZM19.6972 10.7869L23.2263 12.5311V14.7344L19.6972 12.9902V10.7869ZM19.6972 7.29836L23.2263 9.04262V11.2459L19.6972 9.50164V7.29836ZM19.6972 4.17705L19.883 3.85574L23.2263 5.5082V7.75738L19.6972 6.01311V4.17705ZM21.5082 1.56066L23.2727 4.17705V4.22295L20.5795 2.8918L21.5082 1.56066ZM27.9163 27.1279L24.4336 20.8393V20.1508L24.7587 20.3344C25.0373 20.4721 25.4088 20.3803 25.5481 20.059C25.6874 19.7836 25.5945 19.4164 25.2695 19.2787L24.4336 18.8656V16.6623L24.7587 16.8459C25.0373 16.9836 25.4088 16.8918 25.5481 16.5705C25.6874 16.2951 25.5945 15.9279 25.2695 15.7902L24.4336 15.377V13.1738L24.7587 13.3574C25.0373 13.4951 25.4088 13.4033 25.5481 13.082C25.6874 12.8066 25.5945 12.4393 25.2695 12.3016L24.4336 11.8885V9.68525L24.7587 9.86885C25.0373 10.0066 25.4088 9.91475 25.5481 9.59344C25.6874 9.31803 25.5945 8.95082 25.2695 8.81312L24.4336 8.4V6.19672L24.7587 6.38033C25.0373 6.51803 25.4088 6.42623 25.5481 6.10492C25.6874 5.82951 25.5945 5.4623 25.2695 5.32459L24.4336 4.91148V4.08525C24.4336 3.94754 24.3872 3.85574 24.3408 3.76394L21.9726 0.275412C21.7404 -0.0918026 21.2296 -0.0918026 20.9974 0.275412L19.5115 2.47869L18.2113 1.74426C17.9327 1.60656 17.5612 1.69836 17.4219 2.01967C17.2826 2.29508 17.3755 2.6623 17.7005 2.8L18.8614 3.39672L18.6292 3.71803C18.5828 3.80984 18.5364 3.94754 18.5364 4.03934V5.4164L18.2113 5.23279C17.9327 5.09508 17.5612 5.18689 17.4219 5.5082C17.2826 5.78361 17.3755 6.15082 17.7005 6.28852L18.5364 6.70164V8.90492L18.2113 8.76721C17.9327 8.62951 17.5612 8.72131 17.4219 9.04262C17.2826 9.31803 17.3755 9.68525 17.7005 9.82295L18.5364 10.2361V12.4393L18.2113 12.2557C17.9327 12.118 17.5612 12.2098 17.4219 12.5311C17.2826 12.8066 17.3755 13.1738 17.7005 13.3115L18.5364 13.7246V15.9279L18.2113 15.7902C17.9327 15.6525 17.5612 15.7443 17.4219 16.0656C17.2826 16.341 17.3755 16.7082 17.7005 16.8459L18.5364 17.259V20.8393L15.0537 27.1279C14.8216 27.4951 15.1466 28 15.5645 28H27.4055C27.8698 28 28.1484 27.4951 27.9163 27.1279Z" fill="#000814"/>
<path d="M13.3494 10.9035C13.0495 10.9035 12.7924 10.6404 12.7924 10.3333C12.7924 10.0263 13.0495 9.76316 13.3494 9.76316C13.6492 9.76316 13.9063 10.0263 13.9063 10.3333C13.9063 10.6404 13.6492 10.9035 13.3494 10.9035ZM13.3494 8.66667C12.4497 8.66667 11.7214 9.41228 11.7214 10.3333C11.7214 11.2544 12.4497 12 13.3494 12C14.249 12 14.9773 11.2544 14.9773 10.3333C14.9773 9.41228 14.249 8.66667 13.3494 8.66667Z" fill="#000814"/>
<path d="M13.3494 24.6842C13.0495 24.6842 12.7924 24.3684 12.7924 24C12.7924 23.6316 13.0495 23.3158 13.3494 23.3158C13.6492 23.3158 13.9063 23.6316 13.9063 24C13.9063 24.4211 13.6492 24.6842 13.3494 24.6842ZM13.3494 22C12.4497 22 11.7214 22.8947 11.7214 24C11.7214 25.1053 12.4497 26 13.3494 26C14.249 26 14.9773 25.1053 14.9773 24C14.9773 22.9474 14.249 22 13.3494 22Z" fill="#000814"/>
<path d="M13.0237 15.3327H14.326V16.666H13.0237V15.3327Z" fill="#000814"/>
<path d="M13.0237 17.3327H14.326V18.666H13.0237V17.3327Z" fill="#000814"/>
<path d="M14.3252 16.6673H14.9764V17.334H14.3252V16.6673Z" fill="#000814"/>
<path d="M11.7214 16.6673H13.0238V17.334H11.7214V16.6673Z" fill="#000814"/>
<path d="M14.3252 3.33268H15.6275V4.66602H14.3252V3.33268Z" fill="#000814"/>
<path d="M14.3252 6.00065H15.6275V7.33398H14.3252V6.00065Z" fill="#000814"/>
<path d="M15.6282 4.66667H16.9305V6H15.6282V4.66667Z" fill="#000814"/>
<path d="M13.6748 4.66667H14.326V6H13.6748V4.66667Z" fill="#000814"/>
</svg>
