<svg width="28" height="28" viewBox="0 0 28 28" fill="none" xmlns="http://www.w3.org/2000/svg">
<path d="M1.23108 3.67478H6.42982C6.52102 3.67478 6.61223 3.7198 6.70344 3.76483L10.6253 5.97106H16.9185V4.84543C16.4625 4.84543 11.811 4.84543 10.5341 4.84543C10.4429 4.84543 10.3517 4.8004 10.2605 4.75538L6.33861 2.54915H1.27669L1.23108 3.67478ZM12.8598 8.26734H15.14V7.14171H12.8598V8.26734ZM9.34841 11.6892H18.6514C18.6514 10.8788 18.6514 10.2034 18.6514 9.39297C17.6937 9.39297 10.3061 9.39297 9.34841 9.39297C9.34841 10.2034 9.34841 10.8788 9.34841 11.6892ZM5.88258 11.1039C5.88258 11.9144 5.88258 18.2629 5.88258 19.1184H8.20833V11.1039H5.88258ZM1.23108 13.4002V16.8221H4.69691V13.4002H1.23108ZM9.34841 20.8744H18.6514C18.6514 20.0639 18.6514 19.3885 18.6514 18.5781H9.34841C9.34841 19.3885 9.34841 20.0639 9.34841 20.8744ZM22.1172 19.1634C22.1172 17.8577 22.1172 14.751 22.1172 11.1489H19.7915V19.1634H22.1172ZM26.7687 16.8671V13.4452H23.3029V16.8671H26.7687ZM9.34841 17.4074H18.6514V12.8599H9.34841V17.4074ZM15.14 2.72925C15.14 2.59417 15.0488 2.50412 14.912 2.50412H13.0422C12.9054 2.50412 12.8142 2.59417 12.8142 2.72925V3.62975H15.14V2.72925ZM0.0454082 4.21508V1.9188C0.0454082 1.60362 0.319027 1.33347 0.638247 1.33347H6.42982C6.52102 1.33347 6.61223 1.37849 6.70344 1.42352L10.6253 3.62975H11.6286V2.72925C11.6286 1.96382 12.267 1.33347 13.0422 1.33347H14.912C15.6872 1.33347 16.3257 1.96382 16.3257 2.72925V3.62975H17.4657C17.7849 3.62975 18.0586 3.8999 18.0586 4.21508V6.51136C18.0586 6.82653 17.7849 7.09668 17.4657 7.09668H16.3257V8.22231H19.2442C19.5635 8.22231 19.8371 8.49246 19.8371 8.80764V9.93327H22.7557C23.0749 9.93327 23.3485 10.2034 23.3485 10.5186V12.2295H27.4072C27.7264 12.2295 28 12.4997 28 12.8149V17.4074C28 17.7226 27.7264 17.9928 27.4072 17.9928H23.3485V19.7037C23.3485 20.0189 23.0749 20.289 22.7557 20.289H19.8371V21.4147C19.8371 21.7298 19.5635 22 19.2442 22H8.75557C8.43635 22 8.16273 21.7298 8.16273 21.4147V20.289H5.24414C4.92492 20.289 4.6513 20.0189 4.6513 19.7037V17.9928H0.592644C0.273424 17.9928 -0.00019455 17.7226 -0.00019455 17.4074V12.8599C-0.00019455 12.5447 0.273424 12.2746 0.592644 12.2746H4.6513V10.5636C4.6513 10.2484 4.92492 9.97829 5.24414 9.97829H8.16273V8.80764C8.16273 8.49246 8.43635 8.22231 8.75557 8.22231H11.6742V7.09668H10.5341C10.4429 7.09668 10.3517 7.05166 10.2605 7.00663L6.33861 4.8004H0.683849C0.319027 4.8004 0.0454082 4.53025 0.0454082 4.21508Z" fill="#0F0D0D"/>
<path d="M16.9307 14.6667H15.6283V16H16.9307V14.6667Z" fill="#0F0D0D"/>
<path d="M14.3257 14.6667H13.6745V16H14.3257V14.6667Z" fill="#0F0D0D"/>
<path d="M12.3721 14.6667H11.0697V16H12.3721V14.6667Z" fill="#0F0D0D"/>
<path d="M22.0522 26.3594C22.1895 26.0781 22.2353 25.7969 22.098 25.5156L21.3202 23.9219L20.5424 25.5156C20.4052 25.7969 20.4052 26.125 20.5882 26.3594C20.7254 26.6406 21 26.7813 21.3202 26.7813C21.6405 26.7813 21.8692 26.6406 22.0522 26.3594ZM0.640335 26.7813H19.4901C19.2156 26.2188 19.2156 25.5625 19.4901 24.9531L20.8169 22.3282C20.9084 22.1407 21.1372 22 21.3202 22C21.549 22 21.732 22.1407 21.8235 22.3282L23.1045 24.9531C23.3791 25.5156 23.3791 26.1719 23.1045 26.7813H27.4052C27.7255 26.7813 28 27.0625 28 27.3906C28 27.7188 27.7255 28 27.4052 28H0.594584C0.274319 28 -0.000192642 27.7188 -0.000192642 27.3906C0.0455589 27.0625 0.320072 26.7813 0.640335 26.7813Z" fill="#0F0D0D"/>
<path d="M6.74199 24.3333C6.74199 24.0263 6.48495 23.7632 6.18507 23.7632C5.88519 23.7632 5.62815 24.0263 5.62815 24.3333C5.62815 24.6404 5.88519 24.9035 6.18507 24.9035C6.52779 24.8597 6.74199 24.6404 6.74199 24.3333ZM4.55715 24.3333C4.55715 23.4123 5.28543 22.6667 6.18507 22.6667C7.08471 22.6667 7.81299 23.4123 7.81299 24.3333C7.81299 25.2544 7.08471 26 6.18507 26C5.32827 26 4.55715 25.2544 4.55715 24.3333Z" fill="#0F0D0D"/>
<path d="M24.4166 1.0952C24.1169 1.0952 23.86 1.35836 23.86 1.66538C23.86 1.97239 24.1169 2.23555 24.4166 2.23555C24.7164 2.23555 24.9733 1.97239 24.9733 1.66538C24.9733 1.3145 24.7164 1.0952 24.4166 1.0952ZM24.4166 3.33203C23.5175 3.33203 22.7896 2.58642 22.7896 1.66538C22.7896 0.744329 23.5175 -0.00128031 24.4166 -0.00128031C25.3158 -0.00128031 26.0437 0.744329 26.0437 1.66538C26.0865 2.54256 25.3158 3.33203 24.4166 3.33203Z" fill="#0F0D0D"/>
<path d="M24.0938 4.66863H23.4426V6.00195H24.0938V4.66863Z" fill="#0F0D0D"/>
<path d="M24.0938 7.33529H23.4426V8.00195H24.0938V7.33529Z" fill="#0F0D0D"/>
<path d="M23.4414 6.00066H22.1391V7.33398H23.4414V6.00066Z" fill="#0F0D0D"/>
<path d="M25.395 6.00066H24.0927V7.33398H25.395V6.00066Z" fill="#0F0D0D"/>
<path d="M3.90576 6.66732H2.60343V7.33398H3.90576V6.66732Z" fill="#0F0D0D"/>
<path d="M3.90576 8.66668H2.60343V10H3.90576V8.66668Z" fill="#0F0D0D"/>
<path d="M2.60449 7.99935H1.30216V8.66602H2.60449V7.99935Z" fill="#0F0D0D"/>
<path d="M4.55811 7.99935H3.90694V8.66602H4.55811V7.99935Z" fill="#0F0D0D"/>
</svg>
