<svg width="28" height="28" viewBox="0 0 28 28" fill="none" xmlns="http://www.w3.org/2000/svg">
<path d="M6.86275 19.2614L8.73856 21.1373L3.29412 26.5817L1.4183 24.7059L6.86275 19.2614ZM6.40523 15.2353L12.7647 21.5948L11.8039 22.5556C11.5752 22.3268 5.81046 16.5621 5.44444 16.1961L6.40523 15.2353ZM16.2876 5.35294L17.6601 6.72549L23.5163 12.5817L22.5556 13.5425L19.3987 10.3856C19.1699 10.1569 18.8039 10.1569 18.5752 10.3856C18.3464 10.6144 18.3464 10.9804 18.5752 11.2092L21.732 14.366L20.7712 15.3268L13.4967 8.14379C13.8627 7.77778 15.7386 5.94771 16.2876 5.35294ZM23.8824 1.37255C24.1569 1.09804 24.5686 1.09804 24.8431 1.37255C25.1176 1.64706 25.1176 2.05882 24.8431 2.33333L21.6863 5.4902C20.9542 6.22222 20.9542 7.36601 21.6863 8.09804C22.4183 8.83006 23.5621 8.83006 24.2941 8.09804C24.3856 8.00653 25.7124 6.67974 25.6209 6.77124C25.8954 6.49673 26.3072 6.49673 26.5817 6.77124C26.8562 7.04575 26.8562 7.45752 26.5817 7.73203L23.4248 10.8889L18.8497 6.31372L23.8824 1.37255ZM27.4052 26.8105H4.66667L9.51634 21.9608L11.3464 23.7908C11.5752 24.0196 11.9412 24.0196 12.1699 23.7908L13.9542 22.0065C14.183 21.7778 14.183 21.4118 13.9542 21.183L10.7516 17.9804C11.5752 16.7451 11.4379 15.098 10.3856 14L5.90196 9.51634C5.12418 8.73856 5.12418 7.50327 5.90196 6.77124L8.60131 4.0719C9.37909 3.29412 10.6144 3.29412 11.3464 4.0719L13.634 6.35948L12.2614 7.73203C12.0327 7.96078 12.0327 8.3268 12.2614 8.55556L20.3137 16.6078C20.5425 16.8366 20.9085 16.8366 21.1373 16.6078C24.3856 13.3595 22.4183 15.3268 24.7059 13.0392C24.9346 12.8105 24.9346 12.4444 24.7059 12.2157L24.2941 11.7124L27.451 8.55556C28.183 7.82353 28.183 6.67974 27.451 5.94771C26.719 5.21568 25.5752 5.21568 24.8431 5.94771C24.7059 6.08497 23.5163 7.27451 23.5163 7.27451C23.2418 7.54902 22.8301 7.54902 22.5556 7.27451C22.281 7 22.281 6.58823 22.5556 6.31372L25.7124 3.15686C26.4444 2.42484 26.4444 1.28105 25.7124 0.549019C24.9804 -0.183006 23.8366 -0.183006 23.1046 0.549019L18.0719 5.53595L16.6993 4.1634C16.4706 3.93464 16.1046 3.93464 15.8758 4.1634L14.5033 5.53595L12.2157 3.24837C10.9804 2.01307 9.01307 2.01307 7.82353 3.24837L5.12418 5.94771C3.88889 7.18301 3.88889 9.15033 5.12418 10.3399L9.60784 14.8235C10.2026 15.4641 10.3399 16.3791 9.97386 17.1111L6.86275 14C6.63399 13.7712 6.26797 13.7712 6.03922 14L4.2549 15.7843C4.02614 16.0131 4.02614 16.3791 4.2549 16.6078L6.08497 18.4379L0.183007 24.2941C-0.0457516 24.5229 -0.0457516 24.8889 0.183007 25.1176L1.87582 26.8105H0.594771C0.27451 26.8105 0 27.085 0 27.4052C0 27.7255 0.27451 28 0.594771 28H27.4052C27.7255 28 28 27.7255 28 27.4052C28 27.085 27.7255 26.8105 27.4052 26.8105Z" fill="#000814"/>
<path d="M23.3507 21.335C23.3507 21.7033 23.0349 22.0189 22.6665 22.0189C22.2981 22.0189 21.9823 21.7033 21.9823 21.335C21.9823 20.9668 22.2981 20.6512 22.6665 20.6512C23.0349 20.6512 23.3507 20.9668 23.3507 21.335ZM20.6665 21.335C20.6665 22.4397 21.5612 23.334 22.6665 23.334C23.7718 23.334 24.6665 22.4397 24.6665 21.335C24.6665 20.2303 23.7718 19.3361 22.6665 19.3361C21.5612 19.2835 20.6665 20.2303 20.6665 21.335Z" fill="#000814"/>
<path d="M2.33317 1.76316C2.64019 1.76316 2.90335 2.02632 2.90335 2.33333C2.90335 2.64035 2.64019 2.90351 2.33317 2.90351C2.02615 2.90351 1.763 2.64035 1.763 2.33333C1.763 2.02632 2.02615 1.76316 2.33317 1.76316ZM2.33317 4C3.25422 4 3.99984 3.25439 3.99984 2.33333C3.99984 1.41228 3.25422 0.666667 2.33317 0.666667C1.41212 0.666667 0.666504 1.41228 0.666504 2.33333C0.666504 3.25439 1.41212 4 2.33317 4Z" fill="#000814"/>
<path d="M17.3335 21.9993H18.6668V22.666H17.3335V21.9993Z" fill="#000814"/>
<path d="M17.3335 24.0007H18.6668V25.334H17.3335V24.0007Z" fill="#000814"/>
<path d="M18.6665 22.6667H19.9998V24H18.6665V22.6667Z" fill="#000814"/>
<path d="M16 22.6667H17.3333V24H16V22.6667Z" fill="#000814"/>
<path d="M1.3335 10.0007H2.66683V11.334H1.3335V10.0007Z" fill="#000814"/>
<path d="M1.3335 12.0007H2.66683V13.334H1.3335V12.0007Z" fill="#000814"/>
<path d="M2.6665 11.3333H3.99984V12H2.6665V11.3333Z" fill="#000814"/>
<path d="M0.666504 11.3333H1.33317V12H0.666504V11.3333Z" fill="#000814"/>
</svg>
