<svg width="28" height="28" viewBox="0 0 28 28" fill="none" xmlns="http://www.w3.org/2000/svg">
<path d="M23.3333 19.3978H14.5948V15.8731H23.3333V19.3978ZM18.6667 24.1282H9.33333V20.6035H18.6667V24.1282ZM4.66667 15.8731H13.4052V19.3978H4.66667V15.8731ZM27.4052 15.8731C27.7255 15.8731 28 15.5949 28 15.2702C28 14.9456 27.7255 14.6673 27.4052 14.6673H0.594771C0.27451 14.6673 0 14.9456 0 15.2702C0 15.5949 0.27451 15.8731 0.594771 15.8731H3.52288V19.3978H0.594771C0.27451 19.3978 0 19.676 0 20.0007C0 20.3253 0.27451 20.6035 0.594771 20.6035H8.18954V24.1282H0.594771C0.27451 24.1282 0 24.4064 0 24.7311C0 25.0557 0.27451 25.334 0.594771 25.334H27.4052C27.7255 25.334 28 25.0557 28 24.7311C28 24.4064 27.7255 24.1282 27.4052 24.1282H19.8105V20.6035H27.4052C27.7255 20.6035 28 20.3253 28 20.0007C28 19.676 27.7255 19.3978 27.4052 19.3978H24.4771V15.8731H27.4052Z" fill="#000814"/>
<path d="M7.33325 26.6667H8.66659V28H7.33325V26.6667Z" fill="#000814"/>
<path d="M10.6667 26.6667H11.3334V28H10.6667V26.6667Z" fill="#000814"/>
<path d="M13.3333 26.6667H14.6666V28H13.3333V26.6667Z" fill="#000814"/>
<path d="M16 26.6667H17.3333V28H16V26.6667Z" fill="#000814"/>
<path d="M19.3333 26.6667H19.9999V28H19.3333V26.6667Z" fill="#000814"/>
<path d="M8.5139 12.1601L12.7025 7.82397C12.748 7.77683 12.7935 7.77683 12.8391 7.77683C12.8846 7.77683 12.9301 7.82397 12.9301 7.8711L14.6602 12.6315C14.6602 12.6786 14.6602 12.7257 14.6602 12.7729C14.6602 12.82 14.6147 12.82 14.5691 12.82L8.65048 12.3958C8.60495 12.3958 8.55942 12.3487 8.55942 12.3015C8.46837 12.2544 8.46837 12.2073 8.5139 12.1601ZM22.1723 1.17831H26.2243C26.543 1.17831 26.8162 1.4611 26.8162 1.79103C26.8162 2.12096 26.543 2.40375 26.2243 2.40375H22.1723V1.17831ZM8.5139 13.5741L14.4325 13.9983C15.3431 14.0454 16.0716 13.1028 15.7073 12.2073L15.2065 10.7933H17.5285C17.8472 10.7933 18.1203 10.5105 18.1203 10.1806V2.35662H21.0341V2.96934C21.0341 3.29926 21.3073 3.58206 21.626 3.58206H26.2699C27.2259 3.58206 27.9999 2.78081 27.9999 1.79103C27.9999 0.80125 27.2259 0 26.2699 0H21.626C21.3073 0 21.0341 0.282794 21.0341 0.61272V1.22544H17.574C17.2553 1.22544 16.9821 1.50823 16.9821 1.83816V9.66213H14.7968L14.0228 7.54117C13.7041 6.64566 12.5659 6.36286 11.9285 7.06985L7.73992 11.406C6.92041 12.113 7.42122 13.4798 8.5139 13.5741Z" fill="#000814"/>
<path d="M21.999 7.56952C21.6307 7.56952 21.3151 7.30637 21.3151 6.99935C21.3151 6.69233 21.6307 6.42917 21.999 6.42917C22.3672 6.42917 22.6828 6.69233 22.6828 6.99935C22.6828 7.30637 22.3672 7.56952 21.999 7.56952ZM21.999 5.33268C20.8943 5.33268 20 6.0783 20 6.99935C20 7.9204 20.8943 8.66602 21.999 8.66602C23.1036 8.66602 23.9979 7.9204 23.9979 6.99935C24.0505 6.0783 23.1036 5.33268 21.999 5.33268Z" fill="#000814"/>
<path d="M1.66667 3.09714C1.97368 3.09714 2.23684 3.3603 2.23684 3.66732C2.23684 3.97434 1.97368 4.23749 1.66667 4.23749C1.35965 4.23749 1.09649 3.97434 1.09649 3.66732C1.14035 3.3603 1.35965 3.09714 1.66667 3.09714ZM1.66667 5.33398C2.58772 5.33398 3.33333 4.58837 3.33333 3.66732C3.33333 2.74627 2.58772 2.00065 1.66667 2.00065C0.745614 2.00065 0 2.74627 0 3.66732C0 4.58837 0.745614 5.33398 1.66667 5.33398Z" fill="#000814"/>
<path d="M5.33325 5.33268H5.99992V6.66602H5.33325V5.33268Z" fill="#000814"/>
<path d="M5.33325 7.99935H5.99992V8.66602H5.33325V7.99935Z" fill="#000814"/>
<path d="M6 6.66667H7.33333V8H6V6.66667Z" fill="#000814"/>
<path d="M4 6.66667H5.33333V8H4V6.66667Z" fill="#000814"/>
<path d="M24.6667 10.0007H26.0001V11.334H24.6667V10.0007Z" fill="#000814"/>
<path d="M24.6667 12.6667H26.0001V14H24.6667V12.6667Z" fill="#000814"/>
<path d="M26 11.3327H27.3333V12.666H26V11.3327Z" fill="#000814"/>
<path d="M24 11.3327H24.6667V12.666H24V11.3327Z" fill="#000814"/>
</svg>
