<svg width="32" height="32" viewBox="0 0 32 32" fill="none" xmlns="http://www.w3.org/2000/svg">
<path d="M10.6668 25.2659C11.0328 25.2659 11.3465 24.9527 11.3465 24.5872V16.6525C11.3465 16.2871 11.0328 15.9739 10.6668 15.9739C10.3008 15.9739 9.98706 16.2871 9.98706 16.6525V24.6394C9.98706 25.0049 10.3008 25.2659 10.6668 25.2659Z" fill="#0F0D0D"/>
<path d="M18.6667 3.34098H14.6928V2.03592H18.6667V3.34098ZM6.69282 5.32466V1.35729H13.3334C13.3334 1.98372 13.3334 4.28062 13.3334 5.32466H6.69282ZM15.3203 9.34424H4.6536V6.68192C6.27452 6.68192 14.2222 6.68192 15.3203 6.68192V9.34424ZM18.6667 12.0066C17.6209 12.0066 2.35294 12.0066 1.35948 12.0066V10.7015C5.0719 10.7015 14.7451 10.7015 18.6667 10.7015V12.0066ZM16.6798 27.9283H3.34641V25.2659H8.00001C8.36603 25.2659 8.67975 24.9527 8.67975 24.5873V16.6526C8.67975 16.2871 8.36603 15.9739 8.00001 15.9739H3.34641V13.3116H16.6798V27.9283ZM18.6667 30.5906H1.35948V29.2855C2.40523 29.2855 17.6732 29.2855 18.6667 29.2855V30.5906ZM3.34641 17.279H7.32027V23.9087H3.34641V17.279ZM19.3464 0.67866H14.6928C14.6928 0.313244 14.3791 3.02196e-05 14.0131 3.02196e-05H6.01308C5.64707 3.02196e-05 5.33334 0.313244 5.33334 0.67866V5.32466H4.02615C3.66014 5.32466 3.34641 5.63788 3.34641 6.00329V9.34424H0.67974C0.313726 9.34424 0 9.65745 0 10.0229V12.6852C0 13.0506 0.313726 13.3638 0.67974 13.3638H1.98693C1.98693 14.9821 1.98693 26.3622 1.98693 27.9805H0.67974C0.313726 27.9805 0 28.2937 0 28.6591V31.3214C0 31.6868 0.313726 32 0.67974 32H19.3464C19.7124 32 20.0262 31.6868 20.0262 31.3214V28.6591C20.0262 28.2937 19.7124 27.9805 19.3464 27.9805H18.0392V13.3638H19.3464C19.7124 13.3638 20.0262 13.0506 20.0262 12.6852V9.97067C20.0262 9.60525 19.7124 9.29204 19.3464 9.29204H16.6798V5.95109C16.6798 5.58567 16.366 5.27246 16 5.27246H14.6928V4.59383H19.3464C19.7124 4.59383 20.0262 4.28062 20.0262 3.9152V1.25289C19.9739 0.991874 19.7124 0.67866 19.3464 0.67866Z" fill="#0F0D0D"/>
<path d="M26.301 3.91511L30.9546 1.25279C31.2684 1.09619 31.3729 0.678569 31.2161 0.365355C31.0592 0.0521413 30.6409 -0.0522633 30.3272 0.104344L25.6736 2.76666C25.3599 2.92327 25.2553 3.34089 25.4122 3.6541C25.6213 3.96731 25.9873 4.07172 26.301 3.91511Z" fill="#0F0D0D"/>
<path d="M30.3272 11.9022C30.6409 12.0588 31.0592 11.9544 31.2161 11.6412C31.3729 11.3279 31.2684 10.9103 30.9546 10.7537L26.301 8.0914C25.9873 7.9348 25.569 8.0392 25.4122 8.35242C25.2553 8.66563 25.3599 9.08325 25.6736 9.23985L30.3272 11.9022Z" fill="#0F0D0D"/>
<path d="M31.32 5.32463H25.9866C25.6206 5.32463 25.3069 5.63784 25.3069 6.00326C25.3069 6.36867 25.6206 6.68188 25.9866 6.68188H31.32C31.686 6.68188 31.9997 6.36867 31.9997 6.00326C31.9997 5.63784 31.686 5.32463 31.32 5.32463Z" fill="#0F0D0D"/>
<path d="M24.6803 14.6688C24.3143 14.6688 24.0006 14.3556 24.0006 13.9902C24.0006 13.6248 24.3143 13.3116 24.6803 13.3116C25.0463 13.3116 25.36 13.6248 25.36 13.9902C25.3077 14.3556 25.0463 14.6688 24.6803 14.6688ZM24.6803 12.0065C23.5822 12.0065 22.6934 12.8939 22.6934 13.9902C22.6934 15.0864 23.5822 15.9739 24.6803 15.9739C25.7783 15.9739 26.6672 15.0864 26.6672 13.9902C26.6672 12.8939 25.7783 12.0065 24.6803 12.0065Z" fill="#0F0D0D"/>
<path d="M22.0134 17.2789H23.3206V18.584H22.0134V17.2789Z" fill="#0F0D0D"/>
<path d="M24.6799 17.2789H25.9871V18.584H24.6799V17.2789Z" fill="#0F0D0D"/>
<path d="M27.3464 17.2789H28.6536V18.584H27.3464V17.2789Z" fill="#0F0D0D"/>
<path d="M30.0129 17.2789H31.3201V18.584H30.0129V17.2789Z" fill="#0F0D0D"/>
<path d="M22.0134 20.62H23.3206V21.925H22.0134V20.62Z" fill="#0F0D0D"/>
<path d="M24.6799 20.62H25.9871V21.925H24.6799V20.62Z" fill="#0F0D0D"/>
<path d="M27.3464 20.62H28.6536V21.925H27.3464V20.62Z" fill="#0F0D0D"/>
<path d="M30.0129 20.62H31.3201V21.925H30.0129V20.62Z" fill="#0F0D0D"/>
<path d="M22.0134 23.9608H23.3206V25.2659H22.0134V23.9608Z" fill="#0F0D0D"/>
<path d="M24.6799 23.9608H25.9871V25.2659H24.6799V23.9608Z" fill="#0F0D0D"/>
<path d="M27.3464 23.9608H28.6536V25.2659H27.3464V23.9608Z" fill="#0F0D0D"/>
<path d="M30.0129 23.9608H31.3201V25.2659H30.0129V23.9608Z" fill="#0F0D0D"/>
</svg>
