<svg width="32" height="32" viewBox="0 0 32 32" fill="none" xmlns="http://www.w3.org/2000/svg">
<path d="M8.31373 30.6406L13.3333 26.1442V30.6406H8.31373ZM4.02614 4.02835C5.12418 4.02835 27.6601 4.02835 28.3922 4.02835L29.6993 5.33543C29.3333 5.33543 5.54248 5.33543 3.97386 5.33543C4.02614 5.33543 4.02614 4.02835 4.02614 4.02835ZM1.35948 6.01512V3.34866H2.66667V6.01512H1.35948ZM8 1.67559L10.5621 2.66898H8V1.67559ZM4.02614 2.66898L6.69281 1.62331V2.66898H4.02614ZM14.1176 2.66898L12.549 2.04158L17.3072 2.66898H14.1176ZM13.3333 11.6094L8.8366 6.6948H13.3333V11.6094ZM8.36601 19.2951L13.3333 14.7987V23.2686L8.36601 19.2951ZM8 20.7068L12.9673 24.6803L8 29.1767V20.7068ZM13.0719 13.2825L8 17.8312V7.74047L13.0719 13.2825ZM31.3203 30.6406H14.6928V6.6948H22.6928V15.3738C22.6928 15.7398 23.0065 16.0535 23.3725 16.0535C25.2026 16.0535 26.719 17.5697 26.719 19.3997C26.719 21.2296 25.2026 22.7458 23.3725 22.7458C21.5425 22.7458 20.0261 21.2296 20.0261 19.3997C20.0261 19.0337 19.7124 18.72 19.3464 18.72C18.9804 18.72 18.6667 19.0337 18.6667 19.3997C18.6667 21.9616 20.7582 24.0529 23.3203 24.0529C25.8824 24.0529 27.9739 21.9616 27.9739 19.3997C27.9739 17.0469 26.2484 15.1124 24 14.7987V6.6948H31.3203C31.5817 6.6948 31.8431 6.53795 31.9477 6.27653C32.0523 6.01512 32 5.7537 31.7908 5.54457L29.1242 2.87811C29.0196 2.77355 28.8105 2.66898 28.6536 2.66898H27.3464C6.48366 -0.102043 7.37255 0.00252533 7.21569 0.00252533C7.11111 0.00252533 7.52941 -0.154324 1.88235 1.98929H0.679739C0.313726 1.98929 0 2.30299 0 2.66898V6.64252C0 7.0085 0.313726 7.3222 0.679739 7.3222H3.34641C3.71242 7.3222 4.02614 7.0085 4.02614 6.64252H6.69281V30.6406H0.679739C0.313726 30.6406 0 30.9543 0 31.3203C0 31.6863 0.313726 32 0.679739 32C8.94118 32 28.0261 32 31.3203 32C31.6863 32 32 31.6863 32 31.3203C32 30.9543 31.6863 30.6406 31.3203 30.6406Z" fill="#0F0D0D"/>
<path d="M17.3081 26.667H18.6152V27.9741H17.3081V26.667Z" fill="#0F0D0D"/>
<path d="M19.9744 26.667H21.2815V27.9741H19.9744V26.667Z" fill="#0F0D0D"/>
<path d="M22.6404 26.667H23.9475V27.9741H22.6404V26.667Z" fill="#0F0D0D"/>
<path d="M25.3066 26.667H26.6137V27.9741H25.3066V26.667Z" fill="#0F0D0D"/>
<path d="M27.9739 26.667H29.281V27.9741H27.9739V26.667Z" fill="#0F0D0D"/>
<path d="M2.77095 14.0145C2.77095 13.7008 3.03237 13.4394 3.34607 13.4394C3.65977 13.4394 3.92119 13.7008 3.92119 14.0145C3.92119 14.3282 3.65977 14.5896 3.34607 14.5896C3.03237 14.5374 2.77095 14.3282 2.77095 14.0145ZM5.22827 14.0145C5.22827 12.9689 4.39174 12.1323 3.34607 12.1323C2.3004 12.1323 1.46387 12.9689 1.46387 14.0145C1.46387 15.0602 2.3004 15.8967 3.34607 15.8967C4.39174 15.8967 5.22827 15.0602 5.22827 14.0145Z" fill="#0F0D0D"/>
<path d="M28.6539 13.2303C28.3402 13.2303 28.0788 12.9689 28.0788 12.6552C28.0788 12.3415 28.3402 12.08 28.6539 12.08C28.9676 12.08 29.229 12.3415 29.229 12.6552C29.229 12.9689 28.9676 13.2303 28.6539 13.2303ZM30.5361 12.6552C30.5361 11.6095 29.6996 10.7729 28.6539 10.7729C27.6083 10.7729 26.7717 11.6095 26.7717 12.6552C26.7717 13.7008 27.6083 14.5374 28.6539 14.5374C29.6996 14.5374 30.5361 13.7008 30.5361 12.6552Z" fill="#0F0D0D"/>
</svg>
