<svg width="28" height="21" viewBox="0 0 28 21" fill="none" xmlns="http://www.w3.org/2000/svg">
<path d="M21.5015 0.988281C23.032 0.988071 24.5013 1.58905 25.5925 2.66164C26.6838 3.73422 27.3095 5.19248 27.3349 6.72196C27.4849 8.16288 27.4632 10.2884 26.4882 12.7422C25.4915 15.2508 23.5482 17.9861 20.0014 20.6447C19.8263 20.776 19.6271 20.8715 19.4151 20.9257C19.203 20.98 18.9824 20.9921 18.7657 20.9611C18.3281 20.8986 17.9333 20.665 17.6681 20.3115C17.4029 19.9581 17.289 19.5138 17.3515 19.0765C17.414 18.6391 17.6478 18.2445 18.0014 17.9794C20.6081 16.0254 22.1015 14.1264 22.9565 12.4656C22.1549 12.6714 21.3186 12.7043 20.5033 12.5622C19.688 12.4201 18.9123 12.1062 18.2277 11.6414C17.543 11.1766 16.9652 10.5715 16.5326 9.86633C16.1 9.16117 15.8224 8.37207 15.7184 7.55145C15.6143 6.73082 15.6862 5.89747 15.9292 5.10675C16.1722 4.31602 16.5808 3.58603 17.1278 2.96526C17.6747 2.34449 18.3476 1.84716 19.1017 1.5063C19.8558 1.16544 20.6738 0.988855 21.5015 0.988281ZM6.50125 0.988281C8.03176 0.988071 9.50105 1.58905 10.5923 2.66164C11.6835 3.73422 12.3093 5.19248 12.3347 6.72196C12.4847 8.16288 12.463 10.2884 11.488 12.7422C10.493 15.2508 8.54794 17.9861 5.00122 20.6447C4.82613 20.776 4.62688 20.8715 4.41485 20.9257C4.20283 20.98 3.98218 20.9921 3.7655 20.9611C3.32791 20.8986 2.93308 20.665 2.66786 20.3115C2.40264 19.9581 2.28876 19.5138 2.35127 19.0765C2.41378 18.6391 2.64757 18.2445 3.0012 17.9794C5.6079 16.0254 7.10126 14.1264 7.95627 12.4656C7.15465 12.6714 6.31841 12.7043 5.50309 12.5622C4.68777 12.4201 3.91204 12.1062 3.22743 11.6414C2.54282 11.1766 1.96501 10.5715 1.53237 9.86633C1.09973 9.16117 0.822178 8.37207 0.718145 7.55145C0.614112 6.73082 0.685981 5.89747 0.92898 5.10675C1.17198 4.31602 1.58054 3.58603 2.12753 2.96526C2.67452 2.34449 3.34741 1.84716 4.1015 1.5063C4.85559 1.16544 5.67362 0.988855 6.50125 0.988281Z" fill="white"/>
</svg>
