<svg width="24" height="24" viewBox="0 0 24 24" fill="none" xmlns="http://www.w3.org/2000/svg">
<path d="M8.39216 22.9412L8.19608 20.9412H21.8039L22 22.9412H8.39216ZM2.70588 20.9412H4.54902C4.82353 20.9412 5.05882 20.7059 5.05882 20.4314C5.05882 20.1569 4.82353 19.9216 4.54902 19.9216H2.94118L4.47059 13.9216C4.54902 13.9216 4.5098 13.9216 5.52941 13.9216C5.80392 13.9216 6.03922 13.6863 6.03922 13.4118C6.03922 13.1373 5.80392 12.902 5.52941 12.902H4.70588L5.88235 8.27451L6.70588 16.4706H5.52941C5.2549 16.4706 5.01961 16.7059 5.01961 16.9804C5.01961 17.2549 5.2549 17.4902 5.52941 17.4902H6.82353L7.37255 22.9804H2.19608L2.70588 20.9412ZM20.2745 5.96078L20.5882 8.94118H6.98039L6.66667 5.96078H20.2745ZM20.1176 17.451H21.451L21.6863 19.9608H20.1176V17.451ZM8.54902 12.4706H7.33333L7.09804 9.96078H8.58824V12.4706H8.54902ZM7.72549 16.4706L7.41177 13.4902H21.0196L21.3333 16.4706H7.72549ZM20.6667 9.96078L20.902 12.4706H19.5294V9.96078H20.6667ZM18.549 9.96078V12.4706H17.0588V9.96078H18.549ZM16.0392 9.96078V12.4706H14.549V9.96078H16.0392ZM13.5294 9.96078V12.4706H12.0392V9.96078H13.5294ZM11.0588 9.96078V12.4706H9.56863V9.96078H11.0588ZM8.07843 19.9608L7.84314 17.451H9.4902V19.9608H8.07843ZM10.4706 19.9608V17.451H11.8824V19.9608H10.4706ZM12.8627 19.9608V17.451H14.2745V19.9608H12.8627ZM15.2941 19.9608V17.451H16.7059V19.9608H15.2941ZM17.6863 19.9608V17.451H19.098V19.9608H17.6863ZM8.54902 0.980391C8.82353 0.980391 9.05882 1.21568 9.05882 1.4902C9.05882 1.76471 8.82353 2 8.54902 2C8.27451 2 8.03922 1.76471 8.03922 1.4902C8.03922 1.17647 8.27451 0.980391 8.54902 0.980391ZM18.549 0.980391C18.8235 0.980391 19.0588 1.21568 19.0588 1.4902C19.0588 1.76471 18.8235 2 18.549 2C18.2745 2 18.0392 1.76471 18.0392 1.4902C18.0392 1.17647 18.2745 0.980391 18.549 0.980391ZM23.5294 22.9412H22.9804L21.2157 5.41176C21.1765 5.13725 20.9804 4.98039 20.7059 4.98039H19.0196V2.90196C19.6078 2.70588 20 2.15686 20 1.4902C20 0.666666 19.3333 0 18.5098 0C17.6863 0 17.0196 0.666666 17.0196 1.4902C17.0196 2.15686 17.451 2.70588 18 2.90196V4.98039H9.05882V2.90196C9.64706 2.70588 10.0392 2.15686 10.0392 1.4902C10.0392 0.666666 9.37255 0 8.54902 0C7.72549 0 7.05882 0.666666 7.05882 1.4902C7.05882 2.15686 7.4902 2.70588 8.03922 2.90196V4.98039C7.64706 4.98039 6.15686 4.98039 6.07843 4.98039C5.88235 4.98039 5.68627 5.13725 5.60784 5.33333C5.60784 5.37255 1.96078 19.7255 1.13725 22.9804H0.509804C0.235294 22.9804 0 23.2157 0 23.4902C0 23.7647 0.235294 24 0.509804 24C1.29412 24 22 24 23.4902 24C23.7647 24 24 23.7647 24 23.4902C24.0392 23.1765 23.8039 22.9412 23.5294 22.9412Z" fill="#0F0D0D"/>
<path d="M12.0396 3.96069H16.0396C16.3141 3.96069 16.5494 3.7254 16.5494 3.45089C16.5494 3.17638 16.3141 2.94109 16.0396 2.94109H12.0396C11.7651 2.94109 11.5298 3.17638 11.5298 3.45089C11.5298 3.7254 11.7651 3.96069 12.0396 3.96069Z" fill="#0F0D0D"/>
<path d="M2.03906 1.96077H3.01945V2.94116H2.03906V1.96077Z" fill="#0F0D0D"/>
<path d="M2.03906 3.96077H3.01945V4.94116H2.03906V3.96077Z" fill="#0F0D0D"/>
<path d="M3.05859 2.9803H4.03899V3.96069H3.05859V2.9803Z" fill="#0F0D0D"/>
<path d="M1.05908 2.9803H2.03947V3.96069H1.05908V2.9803Z" fill="#0F0D0D"/>
</svg>
