<svg width="44" height="44" viewBox="0 0 44 44" fill="none" xmlns="http://www.w3.org/2000/svg">
<path d="M10.7843 30.268L13.732 33.2157L5.17647 41.7712L2.22876 38.8235L10.7843 30.268ZM10.0654 23.9412L20.0588 33.9346L18.549 35.4444C18.1895 35.085 9.13072 26.0261 8.55556 25.451L10.0654 23.9412ZM25.5948 8.41176L27.7516 10.5686L36.9543 19.7712L35.4444 21.281L30.4837 16.3203C30.1242 15.9608 29.549 15.9608 29.1895 16.3203C28.8301 16.6797 28.8301 17.2549 29.1895 17.6144L34.1503 22.5752L32.6405 24.085L21.2092 12.7974C21.7843 12.2222 24.732 9.34641 25.5948 8.41176ZM37.5294 2.15686C37.9608 1.72549 38.6078 1.72549 39.0392 2.15686C39.4706 2.58823 39.4706 3.23529 39.0392 3.66666L34.0784 8.62745C32.9281 9.77777 32.9281 11.5752 34.0784 12.7255C35.2288 13.8758 37.0261 13.8758 38.1765 12.7255C38.3203 12.5817 40.4052 10.4967 40.2614 10.6405C40.6928 10.2091 41.3399 10.2091 41.7712 10.6405C42.2026 11.0719 42.2026 11.719 41.7712 12.1503L36.8105 17.1111L29.6209 9.92157L37.5294 2.15686ZM43.0654 42.1307H7.33333L14.9542 34.5098L17.8301 37.3856C18.1895 37.7451 18.7647 37.7451 19.1242 37.3856L21.9281 34.5817C22.2876 34.2222 22.2876 33.6471 21.9281 33.2876L16.8954 28.2549C18.1895 26.3137 17.9739 23.7255 16.3203 22L9.27451 14.9542C8.05229 13.732 8.05229 11.7908 9.27451 10.6405L13.5163 6.39869C14.7386 5.17647 16.6797 5.17647 17.8301 6.39869L21.4248 9.99346L19.268 12.1503C18.9085 12.5098 18.9085 13.085 19.268 13.4444L31.9216 26.098C32.281 26.4575 32.8562 26.4575 33.2157 26.098C38.3203 20.9935 35.2288 24.085 38.8235 20.4902C39.183 20.1307 39.183 19.5556 38.8235 19.1961L38.1765 18.4052L43.1373 13.4444C44.2876 12.2941 44.2876 10.4967 43.1373 9.34641C41.9869 8.19608 40.1895 8.19608 39.0392 9.34641C38.8235 9.56209 36.9543 11.4314 36.9543 11.4314C36.5229 11.8627 35.8758 11.8627 35.4444 11.4314C35.0131 11 35.0131 10.3529 35.4444 9.92157L40.4052 4.96078C41.5556 3.81046 41.5556 2.01307 40.4052 0.862743C39.2549 -0.287582 37.4575 -0.287582 36.3072 0.862743L28.3987 8.69934L26.2418 6.54248C25.8824 6.18301 25.3072 6.18301 24.9477 6.54248L22.7909 8.69934L19.1961 5.10457C17.2549 3.1634 14.1634 3.1634 12.2941 5.10457L8.05229 9.34641C6.11111 11.2876 6.11111 14.3791 8.05229 16.2484L15.098 23.2941C16.0327 24.3007 16.2484 25.7386 15.6732 26.8889L10.7843 22C10.4248 21.6405 9.84967 21.6405 9.4902 22L6.68628 24.8039C6.3268 25.1634 6.3268 25.7386 6.68628 26.098L9.56209 28.9739L0.287582 38.1765C-0.0718954 38.5359 -0.0718954 39.1111 0.287582 39.4706L2.94771 42.1307H0.934641C0.431373 42.1307 0 42.5621 0 43.0654C0 43.5686 0.431373 44 0.934641 44H43.0654C43.5686 44 44 43.5686 44 43.0654C44 42.5621 43.5686 42.1307 43.0654 42.1307Z" fill="white"/>
<path d="M36.6667 33.9345C36.6667 34.4377 36.2353 34.8691 35.732 34.8691C35.2288 34.8691 34.7974 34.4377 34.7974 33.9345C34.7974 33.4312 35.2288 32.9998 35.732 32.9998C36.2353 32.9998 36.6667 33.4312 36.6667 33.9345ZM33 33.9345C33 35.4443 34.2222 36.6665 35.732 36.6665C37.2418 36.6665 38.4641 35.4443 38.4641 33.9345C38.4641 32.4247 37.2418 31.2025 35.732 31.2025C34.2222 31.1306 33 32.4247 33 33.9345Z" fill="white"/>
<path d="M3.66757 2.73202C4.17084 2.73202 4.60221 3.16339 4.60221 3.66666C4.60221 4.16992 4.17084 4.6013 3.66757 4.6013C3.1643 4.6013 2.73293 4.16992 2.73293 3.66666C2.73293 3.16339 3.1643 2.73202 3.66757 2.73202ZM3.66757 6.39868C5.17738 6.39868 6.3996 5.17646 6.3996 3.66666C6.3996 2.15685 5.17738 0.934629 3.66757 0.934629C2.15777 0.934629 0.935547 2.15685 0.935547 3.66666C0.935547 5.17646 2.15777 6.39868 3.66757 6.39868Z" fill="white"/>
<path d="M27.4648 33.9345H29.2622V35.7319H27.4648V33.9345Z" fill="white"/>
<path d="M27.4648 37.6013H29.2622V39.3987H27.4648V37.6013Z" fill="white"/>
<path d="M29.334 35.7319H31.1314V37.5293H29.334V35.7319Z" fill="white"/>
<path d="M25.668 35.7319H27.4654V37.5293H25.668V35.7319Z" fill="white"/>
<path d="M2.73242 15.6013H4.52981V17.3987H2.73242V15.6013Z" fill="white"/>
<path d="M2.73242 19.268H4.52981V21.0654H2.73242V19.268Z" fill="white"/>
<path d="M4.60156 17.3987H6.39895V19.196H4.60156V17.3987Z" fill="white"/>
<path d="M0.935547 17.3987H2.73293V19.196H0.935547V17.3987Z" fill="white"/>
</svg>
