<svg width="38" height="38" viewBox="0 0 38 38" fill="none" xmlns="http://www.w3.org/2000/svg">
<path d="M36.4386 33.219H1.61673V31.6667H19.0277C19.463 31.6667 19.8361 31.2941 19.8361 30.8595C19.8361 30.4248 19.463 30.0523 19.0277 30.0523H1.61673V28.5C8.6433 28.5 29.1634 28.5 36.5008 28.5L36.4386 33.219ZM30.0961 35.6405C30.0961 36.0752 29.723 36.4477 29.2877 36.4477C28.8524 36.4477 28.4793 36.0752 28.4793 35.6405C28.4793 35.2059 28.8524 34.8333 29.2877 34.8333C29.723 34.8333 30.0961 35.2059 30.0961 35.6405ZM9.51384 35.6405C9.51384 36.0752 9.14075 36.4477 8.70548 36.4477C8.2702 36.4477 7.89711 36.0752 7.89711 35.6405C7.89711 35.2059 8.2702 34.8333 8.70548 34.8333C9.14075 34.8333 9.51384 35.2059 9.51384 35.6405ZM19.0277 25.5196L23.4426 26.9477H14.6128L19.0277 25.5196ZM11.5037 21.4216L19.0277 19.4346L26.5517 21.4216L19.0277 23.8431L11.5037 21.4216ZM11.4415 15.7092L19.0277 13.1013L26.6139 15.7092L19.0277 17.7582L11.4415 15.7092ZM13.4313 9.5H24.6241L19.0277 11.4248L13.4313 9.5ZM28.5415 7.94771H9.51384V4.78104H28.5415V7.94771ZM37.247 26.8856H28.6659L21.6393 24.6503L29.5986 22.1046C29.9095 21.9804 30.1583 21.6699 30.1583 21.3595C30.1583 20.9869 29.9095 20.6765 29.5986 20.6144L22.1368 18.6275L29.5986 16.6405C29.9095 16.5784 30.1583 16.268 30.1583 15.8954C30.1583 15.5229 29.9717 15.2124 29.5986 15.1503L21.4528 12.3562C30.0961 9.37582 29.5986 9.56209 29.6608 9.5C29.9095 9.37582 30.0961 9.06536 30.0961 8.81699C30.0961 6.27124 30.0961 3.41503 30.0961 0.931374C30.0961 0.496731 29.723 0.124184 29.2877 0.124184C28.8524 0.124184 28.4793 0.496731 28.4793 0.931374V3.16667H9.51384V0.80719C9.51384 0.372547 9.14075 0 8.70548 0C8.2702 0 7.89711 0.372547 7.89711 0.80719C7.89711 0.80719 7.89711 8.7549 7.89711 8.81699C7.95929 9.12745 8.14584 9.37582 8.39457 9.43791C8.45675 9.43791 14.7993 11.6732 16.5404 12.232L8.39457 15.0261C8.08366 15.1503 7.83493 15.4608 7.83493 15.7712C7.83493 16.1438 8.08366 16.3922 8.39457 16.5163L15.8564 18.5033L8.39457 20.4902C8.08366 20.5523 7.83493 20.8627 7.83493 21.2353C7.83493 21.6078 8.02148 21.9183 8.39457 21.9804L16.3539 24.5261L9.38948 26.8856H0.808366C0.373092 26.8856 0 27.2582 0 27.6928V34.0261C0 34.4608 0.373092 34.8333 0.808366 34.8333H6.46693C6.40474 35.0817 6.34256 35.3301 6.34256 35.6405C6.34256 36.9444 7.39966 38 8.70548 38C10.0113 38 11.0684 36.9444 11.0684 35.6405C11.0684 35.3922 11.0062 35.0817 10.944 34.8333H27.0492C26.987 35.0817 26.9248 35.3301 26.9248 35.6405C26.9248 36.9444 27.9819 38 29.2877 38C30.5935 38 31.6506 36.9444 31.6506 35.6405C31.6506 35.3922 31.5884 35.0817 31.5263 34.8333H37.1848C37.6201 34.8333 37.9932 34.4608 37.9932 34.0261V27.6928C38.0554 27.2582 37.6823 26.8856 37.247 26.8856Z" fill="white"/>
<path d="M34.0241 10.5346C34.431 10.5346 34.7799 10.8917 34.7799 11.3084C34.7799 11.7251 34.431 12.0822 34.0241 12.0822C33.6171 12.0822 33.2682 11.7251 33.2682 11.3084C33.2682 10.8917 33.6171 10.5346 34.0241 10.5346ZM34.0241 13.5703C35.245 13.5703 36.2334 12.5584 36.2334 11.3084C36.2334 10.0584 35.245 9.0465 34.0241 9.0465C32.8031 9.0465 31.8148 10.0584 31.8148 11.3084C31.8148 12.5584 32.8031 13.5703 34.0241 13.5703Z" fill="white"/>
<path d="M3.5344 20.4877C4.02277 20.4877 4.44138 20.8449 4.44138 21.2615C4.44138 21.6782 4.02277 22.0353 3.5344 22.0353C3.04603 22.0353 2.62743 21.6782 2.62743 21.2615C2.62743 20.8449 3.04603 20.4877 3.5344 20.4877ZM3.5344 23.5234C4.99952 23.5234 6.18556 22.5115 6.18556 21.2615C6.18556 20.0115 4.99952 18.9996 3.5344 18.9996C2.06929 18.9996 0.88324 20.0115 0.88324 21.2615C0.88324 22.5115 2.06929 23.5234 3.5344 23.5234Z" fill="white"/>
<path d="M3.53497 10.8584H5.30242V12.668H3.53497V10.8584Z" fill="white"/>
<path d="M3.53497 14.4761H5.30242V15.3809H3.53497V14.4761Z" fill="white"/>
<path d="M5.30151 12.667H7.06896V14.4766H5.30151V12.667Z" fill="white"/>
<path d="M1.76654 12.667H3.53398V14.4766H1.76654V12.667Z" fill="white"/>
<path d="M33.5813 18.0948H35.3487V19.9043H33.5813V18.0948Z" fill="white"/>
<path d="M33.5813 21.7144H35.3487V22.6191H33.5813V21.7144Z" fill="white"/>
<path d="M35.3497 19.9053H37.1172V21.7148H35.3497V19.9053Z" fill="white"/>
<path d="M32.6981 19.9053H33.5818V21.7148H32.6981V19.9053Z" fill="white"/>
</svg>
