<svg width="25" height="25" viewBox="0 0 25 25" fill="none" xmlns="http://www.w3.org/2000/svg">
<path d="M18.8145 22.8639L17.9104 21.9597C17.9497 21.9204 18.0283 21.8418 19.4435 20.4266C19.6401 20.23 19.6401 19.9155 19.4435 19.719C19.247 19.5224 18.9325 19.5224 18.7359 19.719C17.3207 21.1342 17.2421 21.2128 17.2027 21.2521L15.3551 19.4045C15.3551 18.6968 15.3551 17.9106 15.3551 17.2423C15.3551 17.1244 15.3158 16.9671 15.1978 16.8885L12.4067 14.0973C12.2101 13.9008 11.8956 13.9008 11.6991 14.0973L8.9079 16.8885C8.82927 16.9671 8.75065 17.1244 8.75065 17.2423C8.75065 17.3209 8.75065 17.2423 8.75065 19.4045L5.29119 22.8639L1.24205 18.8148L1.91035 18.1465L3.20765 19.4438C3.40421 19.6403 3.71871 19.6403 3.91527 19.4438C4.11183 19.2472 4.11183 18.9327 3.91527 18.7362L2.61797 17.4389L4.70151 15.3553C5.645 15.3553 5.92018 15.3553 6.86367 15.3553C6.98161 15.3553 7.13885 15.316 7.21748 15.1981L10.0086 12.4069C10.2052 12.2104 10.2052 11.8959 10.0086 11.6993L7.21748 8.90814C7.13885 8.82952 6.98161 8.75089 6.86367 8.75089C6.82436 8.75089 6.86367 8.75089 4.70151 8.75089L2.61797 6.66735L4.38701 4.89831C4.58357 4.70175 4.58357 4.38726 4.38701 4.1907C4.19045 3.99413 3.87596 3.99413 3.67939 4.1907L1.91035 5.95974L1.24205 5.29143L5.29119 1.24229L8.75065 4.70175C8.75065 5.64524 8.75065 5.92043 8.75065 6.86391C8.75065 6.98185 8.78996 7.1391 8.9079 7.21772L11.6991 10.0089C11.8956 10.2054 12.2101 10.2054 12.4067 10.0089L15.1978 7.21772C15.2764 7.1391 15.3551 6.98185 15.3551 6.86391C15.3551 5.95974 15.3551 5.60593 15.3551 4.70175L17.4386 2.61821L19.2077 4.38726C19.4042 4.58382 19.7187 4.58382 19.9153 4.38726C20.1118 4.1907 20.1118 3.8762 19.9153 3.67964L18.1462 1.9106L18.8145 1.24229L22.8637 5.29143L19.4042 8.75089C18.4607 8.75089 18.1855 8.75089 17.2421 8.75089C17.1241 8.75089 16.9669 8.7902 16.8882 8.90814L14.0971 11.6993C13.9005 11.8959 13.9005 12.2104 14.0971 12.4069L16.8882 15.1981C16.9669 15.2767 17.1241 15.3553 17.2421 15.3553C17.2421 15.3553 18.7752 15.3553 19.4042 15.3553L22.8637 18.8148L18.8145 22.8639ZM14.333 18.1465C12.9177 18.6968 11.2666 18.6968 9.77276 18.1465V17.3995L12.0529 15.1194L14.333 17.3995V18.1465ZM8.63271 20.9376L9.61551 19.9548C9.69414 19.8762 9.77276 19.719 9.77276 19.601V19.2079C11.2273 19.6796 12.8391 19.6796 14.333 19.2079V19.601C14.333 19.719 14.3723 19.8762 14.4902 19.9548L15.473 20.9376C13.2715 21.7632 10.8342 21.8025 8.63271 20.9376ZM6.66711 9.77301L8.94721 12.0531L6.66711 14.3332H5.95949C5.40912 12.918 5.40912 11.2669 5.95949 9.77301H6.66711ZM3.16834 8.63296L4.15114 9.61576C4.22976 9.69438 4.38701 9.77301 4.50495 9.77301H4.89807C4.42632 11.2276 4.42632 12.8393 4.89807 14.3332H4.50495C4.38701 14.3332 4.22976 14.3725 4.15114 14.4904L3.16834 15.4733C2.34279 13.2718 2.30347 10.8344 3.16834 8.63296ZM9.77276 5.95974C11.188 5.40937 12.8391 5.40937 14.333 5.95974V6.70667L12.0529 8.98676L9.77276 6.70667V5.95974ZM15.473 3.16858L14.4902 4.15138C14.4116 4.23001 14.333 4.38726 14.333 4.50519V4.89831C12.8784 4.42657 11.2666 4.42657 9.77276 4.89831V4.50519C9.77276 4.38726 9.73345 4.23001 9.61551 4.15138L8.63271 3.16858C10.8342 2.34303 13.2715 2.30372 15.473 3.16858ZM17.4386 14.3332L15.1585 12.0531L17.4386 9.77301H18.1462C18.6966 11.1882 18.6966 12.8393 18.1462 14.3332H17.4386ZM20.9374 15.4733L19.9546 14.4904C19.876 14.4118 19.7187 14.3332 19.6008 14.3332H19.2077C19.6794 12.8787 19.6794 11.2669 19.2077 9.77301H19.6008C19.7187 9.77301 19.876 9.73369 19.9546 9.61576L20.9374 8.63296C21.7629 10.8344 21.8022 13.2718 20.9374 15.4733ZM23.9251 18.461L21.7236 16.2595C22.8637 13.5863 22.8637 10.5592 21.7236 7.88603L23.9251 5.68455C24.1217 5.48799 24.1217 5.1735 23.9251 4.97694L19.1683 0.180868C18.9718 -0.0156918 18.6573 -0.0156918 18.4607 0.180868L16.2592 2.38234C13.586 1.24229 10.559 1.24229 7.88578 2.38234L5.68431 0.180868C5.48775 -0.0156918 5.17325 -0.0156918 4.97669 0.180868L0.180623 4.93762C-0.0159369 5.13418 -0.0159369 5.44868 0.180623 5.64524L2.3821 7.84672C1.24205 10.5199 1.24205 13.547 2.3821 16.2202L0.180623 18.4217C-0.0159369 18.6182 -0.0159369 18.9327 0.180623 19.1293L4.93738 23.886C5.13394 24.0826 5.44844 24.0826 5.645 23.886L7.84647 21.6846C10.5197 22.8246 13.5467 22.8246 16.2199 21.6846L18.4214 23.886C18.618 24.0826 18.9325 24.0826 19.129 23.886L23.8858 19.1293C24.1217 18.972 24.1217 18.6575 23.9251 18.461Z" fill="#0F0D0D"/>
<path d="M12.0534 12.5642C11.7782 12.5642 11.5424 12.3283 11.5424 12.0531C11.5424 11.778 11.7782 11.5421 12.0534 11.5421C12.3286 11.5421 12.5645 11.778 12.5645 12.0531C12.5645 12.3283 12.3286 12.5642 12.0534 12.5642ZM12.0534 10.5593C11.2279 10.5593 10.5596 11.2276 10.5596 12.0531C10.5596 12.8787 11.2279 13.547 12.0534 13.547C12.879 13.547 13.5473 12.8787 13.5473 12.0531C13.5473 11.2276 12.879 10.5593 12.0534 10.5593Z" fill="#0F0D0D"/>
</svg>
