<svg width="25" height="25" viewBox="0 0 25 25" fill="none" xmlns="http://www.w3.org/2000/svg">
<path d="M10.3667 8.598L10.8593 7.74838L11.7089 8.24134L11.2163 9.09058L10.3667 8.598Z" fill="#0F0D0D"/>
<path d="M13.4729 9.24644L12.6088 8.7358L12.0981 9.59996L12.9623 10.1106L13.4729 9.24644Z" fill="#0F0D0D"/>
<path d="M13.856 10.6302L14.3489 9.78061L15.1981 10.2736L14.7056 11.1228L13.856 10.6302Z" fill="#0F0D0D"/>
<path d="M8.09121 16.5526L8.52329 16.7882L8.95537 17.0239L7.46273 19.6164C7.46273 19.6164 6.83425 19.2236 6.59857 19.1058L8.09121 16.5526ZM6.95209 20.5198L7.38417 20.7555C7.61985 20.9126 7.93409 20.7948 8.05193 20.5591L10.0552 17.1025C10.2123 16.8668 10.0945 16.5526 9.85881 16.4347L9.46601 16.1598L11.9799 11.839C12.137 11.6033 12.0192 11.2891 11.7835 11.1712C11.5478 11.0141 11.2336 11.1319 11.1158 11.3676L8.60185 15.6884L8.16977 15.4527C7.93409 15.2956 7.61985 15.4134 7.50201 15.6491L5.49874 19.1058C5.34162 19.3414 5.45946 19.6557 5.69514 19.7735L6.12722 20.0092L5.06666 21.7375C4.90954 21.9732 5.02738 22.2874 5.26306 22.4053C5.49874 22.5624 5.81298 22.4445 5.93082 22.2089L6.95209 20.5198Z" fill="#0F0D0D"/>
<path d="M5.02783 22.8373C4.08511 22.2874 3.73159 21.0697 4.28151 20.0877L10.2128 9.87494C10.3306 9.71782 10.2913 9.48214 10.1735 9.32502C9.3879 8.34302 9.23078 7.00751 9.70214 5.86839C10.7627 6.45759 16.7332 9.9535 17.4403 10.3463C16.694 11.3283 15.437 11.8389 14.18 11.6425C13.9836 11.6033 13.7872 11.7211 13.6694 11.8782L7.73814 22.1303C7.18822 23.073 5.97055 23.4265 5.02783 22.8373ZM12.5303 4.41503L11.6661 5.86839C10.9984 5.47559 10.6449 5.27919 10.2128 5.00423C10.4877 4.72927 11.6661 4.14007 12.5303 4.41503ZM17.3224 4.57215C18.658 5.63271 19.0508 7.55742 18.1866 9.08934L17.9509 9.52142L15.3584 8.02878L17.3224 4.57215ZM23.5287 23.1123H8.24878C8.36662 22.9551 8.48446 22.798 8.6023 22.6016L14.3764 12.7031C16.0655 12.8209 17.7152 11.9568 18.5794 10.4641L19.09 9.59998C20.347 7.43958 19.6007 4.68999 17.4403 3.43303C17.2046 3.27591 16.8904 3.39375 16.7725 3.62943L14.4943 7.51814L12.5303 6.37903L13.6694 4.41503C13.8265 4.17935 13.7087 3.86511 13.473 3.74727C11.9018 2.84383 9.93782 3.35447 9.03438 4.92567C8.17022 6.41831 8.24878 8.26446 9.1915 9.67854L3.41735 19.6164C2.74959 20.7555 2.94599 22.1695 3.77087 23.1123H0.510639C0.235679 23.1123 0 23.3479 0 23.6229C0 23.8979 0.235679 24.1335 0.510639 24.1335C0.785598 24.1335 23.0573 24.1335 23.5287 24.1335C23.8036 24.1335 24.0393 23.8979 24.0393 23.6229C24.0393 23.3479 23.8036 23.1123 23.5287 23.1123Z" fill="#0F0D0D"/>
<path d="M5.02887 1.11562C5.30383 1.11562 5.53951 1.3513 5.53951 1.62626C5.53951 1.90122 5.30383 2.1369 5.02887 2.1369C4.75391 2.1369 4.51823 1.90122 4.51823 1.62626C4.51823 1.31202 4.75391 1.11562 5.02887 1.11562ZM5.02887 3.1189C5.85374 3.1189 6.5215 2.45114 6.5215 1.62626C6.5215 0.801382 5.85374 0.133624 5.02887 0.133624C4.20399 0.133624 3.53623 0.801382 3.53623 1.62626C3.49695 2.41186 4.20399 3.1189 5.02887 3.1189Z" fill="#0F0D0D"/>
<path d="M22.0356 14.6278C22.3106 14.6278 22.5462 14.8635 22.5462 15.1385C22.5462 15.4134 22.3106 15.6491 22.0356 15.6491C21.7606 15.6491 21.525 15.4134 21.525 15.1385C21.525 14.8242 21.7606 14.6278 22.0356 14.6278ZM22.0356 16.6311C22.8605 16.6311 23.5282 15.9633 23.5282 15.1385C23.5282 14.3136 22.8605 13.6458 22.0356 13.6458C21.2107 13.6458 20.543 14.3136 20.543 15.1385C20.543 15.9633 21.2107 16.6311 22.0356 16.6311Z" fill="#0F0D0D"/>
<path d="M16.5375 20.6375C16.5375 20.9124 16.3018 21.1481 16.0268 21.1481C15.7519 21.1481 15.5162 20.9124 15.5162 20.6375C15.5162 20.3625 15.7519 20.1269 16.0268 20.1269C16.3018 20.1269 16.5375 20.3625 16.5375 20.6375ZM14.5342 20.6375C14.5342 21.4624 15.2019 22.1301 16.0268 22.1301C16.8517 22.1301 17.5195 21.4624 17.5195 20.6375C17.5195 19.8126 16.8517 19.1449 16.0268 19.1449C15.2019 19.1056 14.5342 19.8126 14.5342 20.6375Z" fill="#0F0D0D"/>
<path d="M2.51367 7.59674H3.49567V8.57874H2.51367V7.59674Z" fill="#0F0D0D"/>
<path d="M2.51367 9.59991H3.49567V10.5819H2.51367V9.59991Z" fill="#0F0D0D"/>
<path d="M3.49658 8.61786H4.47858V9.59985H3.49658V8.61786Z" fill="#0F0D0D"/>
<path d="M1.49268 8.61786H2.47467V9.59985H1.49268V8.61786Z" fill="#0F0D0D"/>
<path d="M17.0083 14.1171H17.9903V15.0991H17.0083V14.1171Z" fill="#0F0D0D"/>
<path d="M17.0083 16.1205H17.9903V17.1025H17.0083V16.1205Z" fill="#0F0D0D"/>
<path d="M18.0293 15.0991H19.0113V16.0811H18.0293V15.0991Z" fill="#0F0D0D"/>
<path d="M16.0269 15.0991H17.0089V16.0811H16.0269V15.0991Z" fill="#0F0D0D"/>
<path d="M21.5259 0.604916H22.5079V1.58691H21.5259V0.604916Z" fill="#0F0D0D"/>
<path d="M21.5259 2.60821H22.5079V3.59021H21.5259V2.60821Z" fill="#0F0D0D"/>
<path d="M22.5469 1.58685H23.5289V2.56885H22.5469V1.58685Z" fill="#0F0D0D"/>
<path d="M20.543 1.58685H21.525V2.56885H20.543V1.58685Z" fill="#0F0D0D"/>
</svg>
