<svg width="24" height="24" viewBox="0 0 24 24" fill="none" xmlns="http://www.w3.org/2000/svg">
<path d="M1.48777 3.01463H6.30343L9.16151 5.40289C9.23981 5.48119 9.35726 5.52034 9.47472 5.52034H14.956C15.0734 5.52034 15.1909 5.48119 15.2692 5.40289L18.1273 3.01463H22.4731L22.9038 9.00485H1.0571L1.48777 3.01463ZM0.508973 9.98364H23.4519C23.726 9.98364 23.9609 9.74873 23.9609 9.43552L23.4519 2.46651C23.4519 2.19245 23.217 1.99669 22.9429 1.99669H17.9706C17.8532 1.99669 17.7357 2.03584 17.6574 2.11414L14.7994 4.5024H9.67048L6.8124 2.11414C6.7341 2.03584 6.61664 1.99669 6.49919 1.99669H1.01795C0.743883 1.99669 0.548124 2.19245 0.508973 2.46651L0 9.43552C0 9.74873 0.195759 9.98364 0.508973 9.98364Z" fill="#0F0D0D"/>
<path d="M8.49677 2.50586C8.77083 2.50586 9.00574 2.27095 9.00574 1.99689V1.01809H15.5049V1.99689C15.5049 2.27095 15.7398 2.50586 16.0139 2.50586C16.288 2.50586 16.5229 2.27095 16.5229 1.99689V0.509121C16.5229 0.235059 16.288 0.000148535 16.0139 0.000148535H8.49677C8.2227 0.000148535 7.98779 0.235059 7.98779 0.509121V1.99689C7.98779 2.27095 8.2227 2.50586 8.49677 2.50586Z" fill="#0F0D0D"/>
<path d="M0.508973 11.9805H23.4519C23.726 11.9805 23.9609 11.7456 23.9609 11.4715C23.9609 11.1974 23.726 10.9625 23.4519 10.9625H0.508973C0.23491 10.9625 0 11.1974 0 11.4715C0 11.7456 0.23491 11.9805 0.508973 11.9805Z" fill="#0F0D0D"/>
<path d="M23.4519 12.9592H0.508973C0.23491 12.9592 0 13.1941 0 13.4682V19.9673C0 20.2414 0.23491 20.4763 0.508973 20.4763H5.99022C6.10767 20.4763 6.26428 20.4372 6.34258 20.3197L7.67374 18.9494H10.4535C10.7276 18.9494 10.9625 18.7145 10.9625 18.4404C10.9625 18.1664 10.7276 17.9315 10.4535 17.9315H7.47798C7.36053 17.9315 7.20392 17.9706 7.12562 18.0881L5.75531 19.4584H1.01795V13.9771H22.9821V19.4584H22.4731C22.199 19.4584 21.9641 19.6933 21.9641 19.9673C21.9641 20.2414 22.199 20.4763 22.4731 20.4763H23.4519C23.726 20.4763 23.9609 20.2414 23.9609 19.9673V13.4682C23.9609 13.1941 23.726 12.9592 23.4519 12.9592Z" fill="#0F0D0D"/>
<path d="M19.9675 19.7716H19.1453C18.9104 19.7716 18.7147 19.9282 18.6755 20.124C18.6364 20.2806 18.558 20.4372 18.4797 20.5546C18.3623 20.7504 18.4014 20.9853 18.558 21.1419L19.1453 21.7292L18.7147 22.1599L18.1665 21.5726C18.0099 21.416 17.775 21.3768 17.5793 21.4943C17.4618 21.5726 17.3052 21.6117 17.1486 21.69C16.9528 21.7684 16.7962 21.9641 16.7962 22.1599V22.9821H16.2089V22.1599C16.2089 21.925 16.0523 21.7292 15.8566 21.69C15.7 21.6509 15.5434 21.5726 15.4259 21.4943C15.2302 21.3768 14.9952 21.416 14.8386 21.5726L14.2514 22.1599L13.8207 21.7292L14.408 21.1419C14.5646 20.9853 14.6037 20.7504 14.4863 20.5546C14.408 20.4372 14.3688 20.2806 14.2905 20.124C14.2122 19.9282 14.0164 19.7716 13.8207 19.7716H12.9594V19.1843H13.7815C14.0164 19.1843 14.2122 19.0277 14.2514 18.832C14.2905 18.6754 14.3688 18.5188 14.4471 18.4013C14.5646 18.2055 14.5254 17.9706 14.3688 17.814L13.7815 17.2267L14.2122 16.7961L14.7995 17.3834C14.9561 17.54 15.191 17.5791 15.3868 17.4617C15.5042 17.3834 15.6608 17.3442 15.8174 17.2659C16.0132 17.1876 16.1698 16.9918 16.1698 16.7961V15.9739H16.7571V16.7961C16.7571 17.031 16.9137 17.2267 17.1094 17.2659C17.266 17.3051 17.4226 17.3834 17.5401 17.4617C17.7359 17.5791 17.9708 17.54 18.1274 17.3834L18.7147 16.7961L19.1453 17.2267L18.558 17.814C18.4014 17.9706 18.3623 18.2055 18.4797 18.4013C18.558 18.5188 18.5972 18.6754 18.6755 18.832C18.7538 19.0277 18.9496 19.1843 19.1453 19.1843H19.9675V19.7716ZM20.4765 18.1664H19.6151L20.2416 17.54C20.4373 17.3442 20.4373 17.031 20.2416 16.8352L19.1062 15.6998C18.9104 15.5041 18.5972 15.5041 18.4014 15.6998L17.775 16.3263V15.4649C17.775 15.1909 17.5401 14.9559 17.266 14.9559H15.6608C15.3868 14.9559 15.1518 15.1909 15.1518 15.4649V16.3263L14.5254 15.6998C14.3297 15.5041 14.0164 15.5041 13.8207 15.6998L12.6853 16.8352C12.4895 17.031 12.4895 17.3442 12.6853 17.54L13.3117 18.1664H12.4504C12.1763 18.1664 11.9414 18.4013 11.9414 18.6754V20.2806C11.9414 20.5546 12.1763 20.7896 12.4504 20.7896H13.3509L12.7244 21.416C12.5287 21.6117 12.5287 21.925 12.7244 22.1207L13.8598 23.2561C14.0556 23.4519 14.3688 23.4519 14.5646 23.2561L15.191 22.6297V23.491C15.191 23.7651 15.4259 24 15.7 24H17.266C17.5401 24 17.775 23.7651 17.775 23.491V22.6297L18.4014 23.2561C18.5972 23.4519 18.9104 23.4519 19.1062 23.2561L20.2416 22.1207C20.4373 21.925 20.4373 21.6117 20.2416 21.416L19.6151 20.7504H20.4765C20.7505 20.7504 20.9855 20.5155 20.9855 20.2414V18.6362C20.9463 18.4013 20.7505 18.1664 20.4765 18.1664Z" fill="#0F0D0D"/>
<path d="M16.4826 20.4764C15.9345 20.4764 15.5038 20.0457 15.5038 19.4976C15.5038 18.9495 15.9345 18.5188 16.4826 18.5188C17.0307 18.5188 17.4614 18.9495 17.4614 19.4976C17.4614 20.0066 17.0307 20.4764 16.4826 20.4764ZM16.4826 17.4617C15.3863 17.4617 14.4858 18.3622 14.4858 19.4585C14.4858 20.5547 15.3863 21.4552 16.4826 21.4552C17.5788 21.4552 18.4793 20.5547 18.4793 19.4585C18.4793 18.3622 17.5788 17.4617 16.4826 17.4617Z" fill="#0F0D0D"/>
<path d="M3.99463 7.00827H4.97342V7.98706H3.99463V7.00827Z" fill="#0F0D0D"/>
<path d="M6.49951 7.00827H7.47831V7.98706H6.49951V7.00827Z" fill="#0F0D0D"/>
<path d="M9.00586 7.00827H9.98465V7.98706H9.00586V7.00827Z" fill="#0F0D0D"/>
<path d="M11.4727 7.00827H12.4514V7.98706H11.4727V7.00827Z" fill="#0F0D0D"/>
<path d="M13.9775 7.00827H14.9563V7.98706H13.9775V7.00827Z" fill="#0F0D0D"/>
<path d="M16.4839 7.00827H17.4627V7.98706H16.4839V7.00827Z" fill="#0F0D0D"/>
<path d="M18.9492 7.00827H19.928V7.98706H18.9492V7.00827Z" fill="#0F0D0D"/>
</svg>
