<svg width="45" height="44" viewBox="0 0 45 44" fill="none" xmlns="http://www.w3.org/2000/svg">
<path d="M25.6995 31.8063C26.0677 31.2921 25.8468 30.5576 25.2577 30.3372C25.2577 30.3372 24.3741 29.9699 23.785 29.3823C25.8468 28.5008 27.0986 26.8113 27.0986 24.5342C27.0986 24.02 26.6568 23.5793 26.1413 23.5793C25.6259 23.5793 25.1841 24.02 25.1841 24.5342C25.1841 25.7095 24.7422 26.591 23.785 27.2521C22.975 27.7663 22.165 27.9132 22.165 27.9132C21.5759 27.9866 21.2077 28.6477 21.4286 29.1619C21.7968 30.2638 22.6804 30.9983 23.4168 31.4391C21.5759 32.9082 19.4404 32.1736 19.3668 32.1002C18.8513 31.8798 18.3359 32.1736 18.115 32.6878C17.7468 33.7162 17.894 34.5977 18.1886 35.3322C17.1577 35.4791 16.274 35.3322 15.6113 34.8915C14.9486 34.5242 14.5804 33.9366 14.5804 33.8631C14.2859 33.3489 13.5495 33.202 13.1077 33.6427C12.224 34.5242 11.7822 35.3322 11.5613 35.9933C9.42584 34.7446 9.49948 32.9816 9.49948 32.8347C9.57311 32.3205 9.20493 31.8798 8.68948 31.8063C7.51129 31.586 6.55402 32.2471 5.89129 32.9082C4.7131 30.5576 5.74401 28.9416 5.81765 28.7946C6.1122 28.4274 6.03856 27.8397 5.67038 27.5459C4.93401 26.8848 3.9031 26.8113 3.0931 26.9582L3.46128 24.9749C3.53492 24.4608 3.24037 23.9466 2.72491 23.8731C2.20946 23.7996 1.694 24.0935 1.62037 24.6077L0.883999 28.0601C0.810363 28.4274 0.957636 28.7946 1.25218 29.015C1.54673 29.2354 1.91491 29.3088 2.20946 29.1619C2.504 29.015 3.16673 28.7946 3.68219 28.7946C3.24037 30.0434 2.94582 32.3205 4.93401 35.1118C5.30219 35.626 6.1122 35.626 6.48038 35.0384C6.70129 34.7446 7.14311 34.1569 7.58493 33.8631C7.87947 35.3322 8.98402 37.3155 11.9295 38.3439C12.2977 38.4908 12.6658 38.4174 12.9604 38.1235C13.1813 37.8297 13.3286 37.5359 13.1813 37.1686C13.1813 37.0952 13.1077 36.5075 13.5495 35.7729C14.8749 37.0217 17.0104 37.6093 19.6613 36.8013C20.3241 36.581 20.545 35.8464 20.1768 35.3322C20.1768 35.3322 19.8086 34.7446 19.735 34.0835C21.5022 34.3773 23.9322 34.0835 25.6995 31.8063Z" fill="#0F0D0D"/>
<path d="M11.2655 9.40225C8.68819 9.40225 6.55273 12.267 6.55273 14.1034C6.55273 14.6176 6.99455 15.0583 7.51001 15.0583C8.02547 15.0583 8.46729 14.6176 8.46729 14.1034C8.46729 13.222 9.79274 11.3121 11.2655 11.3121C11.7809 11.3121 12.2228 10.8714 12.2228 10.3572C12.2228 9.84299 11.7809 9.40225 11.2655 9.40225Z" fill="#0F0D0D"/>
<path d="M43.151 8.44745H40.3528C39.3219 8.44745 38.5119 9.25546 38.5119 10.2838H36.671C36.671 9.25546 35.861 8.44745 34.8301 8.44745H33.8728C32.8419 8.44745 32.0319 9.25546 32.0319 10.2838H31.001C31.001 9.25546 30.191 8.44745 29.1601 8.44745H23.6373C22.901 7.71289 22.0173 7.12524 21.0601 6.61105C25.8464 6.61105 38.5119 6.61105 43.151 6.61105V8.44745ZM26.2883 19.6862H1.91455V18.7313C1.91455 12.0468 7.36366 6.53759 14.1382 6.53759C20.8391 6.53759 26.3619 11.9733 26.3619 18.7313V19.6862H26.2883ZM28.1292 1.90988H37.481V4.7012H28.1292V1.90988ZM44.1083 4.7012H39.3956V0.954952C39.3956 0.440762 38.9537 2.67029e-05 38.4383 2.67029e-05H27.2455C26.7301 2.67029e-05 26.2883 0.440762 26.2883 0.954952V4.7012H14.0646C6.33275 4.7012 0 11.0184 0 18.7313V20.5677C0 21.0818 0.441819 21.5226 0.957275 21.5226H27.2455C27.761 21.5226 28.2028 21.0818 28.2028 20.5677V18.7313C28.2028 15.5727 27.1719 12.6344 25.4046 10.2838H29.1601C29.1601 11.3122 29.9701 12.1202 31.001 12.1202H31.9583C32.9892 12.1202 33.7992 11.3122 33.7992 10.2838H34.7565C34.7565 11.3122 35.5665 12.1202 36.5974 12.1202H38.4383C39.4692 12.1202 40.2792 11.3122 40.2792 10.2838H44.0347C44.5501 10.2838 44.9919 9.84311 44.9919 9.32892V5.58267C45.0656 5.14193 44.6238 4.7012 44.1083 4.7012Z" fill="#0F0D0D"/>
<path d="M8.46729 24.3873C8.46729 23.8731 8.02547 23.4323 7.51001 23.4323C6.99455 23.4323 6.55273 23.8731 6.55273 24.3873C6.55273 28.5008 9.94002 31.8798 14.0637 31.8798C18.1873 31.8798 21.5746 28.5008 21.5746 24.3873C21.5746 23.8731 21.1328 23.4323 20.6173 23.4323C20.1019 23.4323 19.66 23.8731 19.66 24.3873C19.66 27.4724 17.1564 29.9699 14.0637 29.9699C10.9709 29.9699 8.46729 27.4724 8.46729 24.3873Z" fill="#0F0D0D"/>
<path d="M17.8215 24.3873C17.8215 23.8731 17.3797 23.4324 16.8642 23.4324C16.3487 23.4324 15.9069 23.8731 15.9069 24.3873C15.9069 25.4157 15.0969 26.2237 14.066 26.2237C13.0351 26.2237 12.2251 25.4157 12.2251 24.3873C12.2251 23.8731 11.7833 23.4324 11.2678 23.4324C10.7524 23.4324 10.3105 23.8731 10.3105 24.3873C10.3105 26.4441 12.0042 28.1335 14.066 28.1335C16.1278 28.1335 17.8215 26.4441 17.8215 24.3873Z" fill="#0F0D0D"/>
<path d="M1.91379 9.54919C2.28197 9.54919 2.65016 9.32883 2.79743 8.96155C3.7547 6.83133 5.44835 5.28876 7.95199 4.40729C9.86654 3.74618 11.5602 3.74618 11.5602 3.74618C12.0756 3.74618 12.5175 3.30545 12.5175 2.79126C12.5175 2.27707 12.0756 1.83633 11.5602 1.83633C11.4865 1.83633 9.57199 1.83633 7.3629 2.57089C4.3438 3.59927 2.1347 5.50912 1.03015 8.15353C0.735605 8.88809 1.25106 9.54919 1.91379 9.54919Z" fill="#0F0D0D"/>
<path d="M36.597 24.3874C36.0816 24.3874 35.6397 23.9466 35.6397 23.4324C35.6397 22.9182 36.0816 22.4775 36.597 22.4775C37.1125 22.4775 37.5543 22.9182 37.5543 23.4324C37.5543 23.9466 37.1125 24.3874 36.597 24.3874ZM36.597 20.6411C35.0506 20.6411 33.7988 21.8899 33.7988 23.4324C33.7988 24.975 35.0506 26.2238 36.597 26.2238C38.1434 26.2238 39.3952 24.975 39.3952 23.4324C39.3952 21.8899 38.1434 20.6411 36.597 20.6411Z" fill="#0F0D0D"/>
<path d="M25.3314 40.2538C24.8159 40.2538 24.3741 39.8131 24.3741 39.2989C24.3741 38.7847 24.8159 38.344 25.3314 38.344C25.8468 38.344 26.2887 38.7847 26.2887 39.2989C26.2887 39.8866 25.8468 40.2538 25.3314 40.2538ZM25.3314 36.5811C23.785 36.5811 22.5332 37.8298 22.5332 39.3724C22.5332 40.9149 23.785 42.1637 25.3314 42.1637C26.8778 42.1637 28.1296 40.9149 28.1296 39.3724C28.1296 37.8298 26.8778 36.5811 25.3314 36.5811Z" fill="#0F0D0D"/>
<path d="M34.7578 31.8798H36.5987V33.7162H34.7578V31.8798Z" fill="#0F0D0D"/>
<path d="M34.7578 35.626H36.5987V37.4624H34.7578V35.626Z" fill="#0F0D0D"/>
<path d="M36.5977 33.7162H38.4386V35.5526H36.5977V33.7162Z" fill="#0F0D0D"/>
<path d="M32.8418 33.7162H34.6827V35.5526H32.8418V33.7162Z" fill="#0F0D0D"/>
<path d="M2.80078 38.4174H4.6417V40.2538H2.80078V38.4174Z" fill="#0F0D0D"/>
<path d="M2.80078 42.1636H4.6417V44H2.80078V42.1636Z" fill="#0F0D0D"/>
<path d="M4.71289 40.2538H6.5538V42.0902H4.71289V40.2538Z" fill="#0F0D0D"/>
<path d="M0.957031 40.2538H2.79795V42.0902H0.957031V40.2538Z" fill="#0F0D0D"/>
</svg>
