<svg width="44" height="44" viewBox="0 0 44 44" fill="none" xmlns="http://www.w3.org/2000/svg">
<path d="M1.86319 31.1307V27.4641H42.0651V31.1307H1.86319ZM28.6645 38.4641H16.9837L19.7068 33H25.8697L28.6645 38.4641ZM32.6059 42.1307H13.0423L13.4723 40.3333C14.2606 40.3333 31.316 40.3333 32.1042 40.3333L32.6059 42.1307ZM41.9935 1.86928V5.53595H1.86319V1.86928H41.9935ZM1.86319 7.33333H42.0651V25.6667H1.86319V7.33333ZM42.9251 -3.8147e-06H0.931596C0.429967 -3.8147e-06 0 0.43137 0 0.934639V32.0654C0 32.5686 0.429967 33 0.931596 33H17.7003L14.9772 38.4641H12.8274C12.3974 38.4641 12.0391 38.7516 11.9674 39.183L11.2508 42.1307H7.38111C6.87948 42.1307 6.44951 42.5621 6.44951 43.0654C6.44951 43.5686 6.87948 44 7.38111 44C8.3127 44 36.4756 44 38.4104 44C38.9121 44 39.342 43.5686 39.342 43.0654C39.342 42.5621 38.9121 42.1307 38.4104 42.1307H34.5407L33.8241 39.183C33.7524 38.7516 33.3225 38.4641 32.9642 38.4641H30.8143L28.0912 33H43.0684C43.57 33 44 32.5686 44 32.0654V0.934639C43.8567 0.43137 43.4267 -3.8147e-06 42.9251 -3.8147e-06Z" fill="#0F0D0D"/>
<path d="M15.5501 21.0654H6.37747V17.3987H10.9638C11.4654 17.3987 11.8954 16.9674 11.8954 16.4641V11.8628H15.5501V21.0654ZM10.0322 11.9347V15.6014H6.37747V11.9347H10.0322ZM16.4817 10.0654H5.51753C5.0159 10.0654 4.58594 10.4968 4.58594 11.0001V22.0001C4.58594 22.5033 5.0159 22.9347 5.51753 22.9347H16.4817C16.9833 22.9347 17.4133 22.5033 17.4133 22.0001V11.0001C17.3416 10.4968 16.9833 10.0654 16.4817 10.0654Z" fill="#0F0D0D"/>
<path d="M37.4803 21.0654H35.6888V11.9347H37.4803V21.0654ZM38.3402 10.0654H34.6855C34.1839 10.0654 33.7539 10.4968 33.7539 11.0001V22.0001C33.7539 22.5033 34.1839 22.9347 34.6855 22.9347H38.3402C38.8419 22.9347 39.2718 22.5033 39.2718 22.0001V11.0001C39.2718 10.4968 38.8419 10.0654 38.3402 10.0654Z" fill="#0F0D0D"/>
<path d="M30.1687 11.9347H20.996C20.4944 11.9347 20.0645 12.366 20.0645 12.8693C20.0645 13.3726 20.4944 13.804 20.996 13.804H30.1687C30.6703 13.804 31.1003 13.3726 31.1003 12.8693C31.0286 12.366 30.6703 11.9347 30.1687 11.9347Z" fill="#0F0D0D"/>
<path d="M28.3056 17.3987C28.8072 17.3987 29.2372 16.9673 29.2372 16.464C29.2372 15.9608 28.8072 15.5294 28.3056 15.5294H22.8593C22.3577 15.5294 21.9277 15.9608 21.9277 16.464C21.9277 16.9673 22.3577 17.3987 22.8593 17.3987H28.3056Z" fill="#0F0D0D"/>
<path d="M30.1687 19.268H20.996C20.4944 19.268 20.0645 19.6994 20.0645 20.2027C20.0645 20.706 20.4944 21.1373 20.996 21.1373H30.1687C30.6703 21.1373 31.1003 20.706 31.1003 20.2027C31.0286 19.6275 30.6703 19.268 30.1687 19.268Z" fill="#0F0D0D"/>
</svg>
