<svg width="44" height="44" viewBox="0 0 44 44" fill="none" xmlns="http://www.w3.org/2000/svg">
<path d="M6.5578 1.86928H11.9763V6.47059C11.9763 7.98039 10.7643 9.20261 9.26707 9.20261C7.76985 9.20261 6.5578 7.98039 6.5578 6.47059C6.5578 6.39869 6.5578 1.86928 6.5578 1.86928ZM9.33837 11C11.8338 11 13.9014 8.91503 13.9014 6.39869V0.934635C13.9014 0.431367 13.4736 -5.72205e-06 12.9745 -5.72205e-06H5.70225C5.20317 -5.72205e-06 4.77539 0.431367 4.77539 0.934635V6.39869C4.77539 8.91503 6.77169 11 9.33837 11Z" fill="#0F0D0D"/>
<path d="M18.3942 2.73211H22.0304V9.13081H18.3942V2.73211ZM27.3063 3.66676H34.7212C34.7212 4.6014 34.7212 5.96741 34.7212 8.26806H27.3063C26.8072 6.83016 25.2387 6.1112 23.8128 6.61447V5.39225C25.31 5.89552 26.8072 5.10466 27.3063 3.66676ZM40.3536 4.6014L41.2804 10.2811C40.1397 8.77133 38.4286 6.83016 36.5749 6.97395V4.6014H40.3536ZM17.4674 11.0001H22.8859C23.385 11.0001 23.8128 10.5687 23.8128 10.0655V9.13081C23.8128 8.62754 24.2406 8.19617 24.7396 8.19617C25.2387 8.19617 25.6665 8.62754 25.6665 9.13081C25.6665 9.63408 26.0943 10.0655 26.5933 10.0655H27.5202V22.8628C27.5202 23.3661 27.948 23.7975 28.4471 23.7975C28.9461 23.7975 29.3739 23.3661 29.3739 22.8628V10.0655H33.01V22.8628C33.01 23.3661 33.4378 23.7975 33.9369 23.7975C34.436 23.7975 34.8637 23.3661 34.8637 22.8628V10.0655H35.7906C36.2897 10.0655 36.7175 9.63408 36.7175 9.13081V8.77133C36.8601 8.77133 36.9313 8.77133 37.1452 8.77133C38.7851 9.13081 41.2091 12.7975 42.2786 15.0981C42.4925 15.5295 42.9203 15.6733 43.348 15.5295C43.7758 15.3857 44.061 14.9543 43.9897 14.523L42.2073 3.52296C42.136 3.09159 41.7795 2.73211 41.2804 2.73211H36.7175C36.7175 2.22885 36.2897 1.79747 35.7906 1.79747H26.5933C26.0943 1.79747 25.6665 2.22885 25.6665 2.73211C25.6665 3.23538 25.2387 3.66676 24.7396 3.66676C24.2406 3.66676 23.8128 3.23538 23.8128 2.73211V1.79747C23.8128 1.2942 23.385 0.862831 22.8859 0.862831H17.4674C16.9683 0.862831 16.5405 1.2942 16.5405 1.79747V10.0655C16.6118 10.5687 16.9683 11.0001 17.4674 11.0001Z" fill="#0F0D0D"/>
<path d="M28.376 42.1307V39.3987H30.2297C30.7288 39.3987 31.1566 38.9673 31.1566 38.464C31.1566 37.9608 30.7288 37.5294 30.2297 37.5294H28.4473V35.732H30.2297C30.7288 35.732 31.1566 35.3006 31.1566 34.7974C31.1566 34.2941 30.7288 33.8627 30.2297 33.8627H28.4473V32.0654H30.2297C30.7288 32.0654 31.1566 31.634 31.1566 31.1307C31.1566 30.6274 30.7288 30.1961 30.2297 30.1961H28.4473V28.3987C28.4473 26.8889 29.6594 25.6667 31.1566 25.6667C32.6538 25.6667 33.8659 26.8889 33.8659 28.3987V42.1307H28.376ZM5.70373 40.3333H9.33985C9.83893 40.3333 10.2667 39.902 10.2667 39.3987C10.2667 38.8954 9.83893 38.464 9.33985 38.464H4.91946C4.84817 38.1765 4.84817 37.8889 4.84817 37.5294V34.7974H8.48429C8.98337 34.7974 9.41115 34.366 9.41115 33.8627C9.41115 33.3595 8.98337 32.9281 8.48429 32.9281H4.84817V29.1176C6.41669 28.6863 7.55744 27.2484 7.55744 25.5948C7.55744 24.9477 7.34355 24.3006 7.05836 23.7974H11.6926C11.4075 24.3725 11.1936 24.9477 11.1936 25.5948C11.1936 27.3203 12.3343 28.7582 13.9028 29.1176V35.6601H10.2667C9.76763 35.6601 9.33985 36.0915 9.33985 36.5948C9.33985 37.098 9.76763 37.5294 10.2667 37.5294H13.8315C13.8315 40.0457 11.7639 42.1307 9.26856 42.1307C7.84262 42.1307 6.48799 41.4118 5.70373 40.3333ZM2.0676 20.2026H16.6121V22H2.0676V20.2026ZM42.9205 42.1307H35.6483V28.3987C35.6483 25.8823 33.5807 23.7974 31.0853 23.7974C28.5899 23.7974 26.5223 25.8823 26.5223 28.3987V42.1307H13.6889C14.901 40.9804 15.614 39.3268 15.614 37.5294V28.3987C15.614 27.8954 15.1862 27.464 14.6871 27.464C13.6889 27.464 12.9047 26.6732 12.9047 25.6667C12.9047 24.6601 13.6889 23.8693 14.6871 23.8693H17.3964C17.8954 23.8693 18.3232 23.4379 18.3232 22.9346V19.268C18.3232 18.7647 17.8954 18.3333 17.3964 18.3333H12.8334V11.9346C12.8334 11.4314 12.4056 11 11.9065 11C11.4075 11 10.9797 11.4314 10.9797 11.9346V18.3333H7.34355V11.9346C7.34355 11.4314 6.91577 11 6.41669 11C5.91762 11 5.48984 11.4314 5.48984 11.9346V18.3333H0.926856C0.427779 18.3333 0 18.7647 0 19.268V22.9346C0 23.4379 0.427779 23.8693 0.926856 23.8693H3.85002C4.84817 23.8693 5.63243 24.6601 5.63243 25.6667C5.63243 26.6732 4.84817 27.464 3.85002 27.464C3.35094 27.464 2.92316 27.8954 2.92316 28.3987V37.5294C2.92316 39.3268 3.63613 40.9804 4.84817 42.1307H1.14075C0.641669 42.1307 0.21389 42.5621 0.21389 43.0654C0.21389 43.5686 0.641669 44 1.14075 44C2.92316 44 41.0668 44 42.9205 44C43.4196 44 43.8474 43.5686 43.8474 43.0654C43.8474 42.5621 43.4196 42.1307 42.9205 42.1307Z" fill="#0F0D0D"/>
<path d="M40.2099 25.6667C40.2099 26.1699 39.7821 26.6013 39.283 26.6013C38.7839 26.6013 38.3561 26.1699 38.3561 25.6667C38.3561 25.1634 38.7839 24.732 39.283 24.732C39.7821 24.732 40.2099 25.1634 40.2099 25.6667ZM36.5737 25.6667C36.5737 27.1765 37.7858 28.3987 39.283 28.3987C40.7802 28.3987 41.9923 27.1765 41.9923 25.6667C41.9923 24.1568 40.7802 22.9346 39.283 22.9346C37.7858 22.9346 36.5737 24.1568 36.5737 25.6667Z" fill="#0F0D0D"/>
<path d="M22.0307 33C22.0307 33.5033 21.6029 33.9347 21.1038 33.9347C20.6047 33.9347 20.1769 33.5033 20.1769 33C20.1769 32.4968 20.6047 32.0654 21.1038 32.0654C21.6029 32.0654 22.0307 32.4968 22.0307 33ZM18.3945 33C18.3945 34.5098 19.6066 35.7321 21.1038 35.7321C22.601 35.7321 23.8131 34.5098 23.8131 33C23.8131 31.4902 22.601 30.268 21.1038 30.268C19.6066 30.268 18.3945 31.4902 18.3945 33Z" fill="#0F0D0D"/>
<path d="M22.0296 18.3333C21.5305 18.3333 21.1027 17.9019 21.1027 17.3987C21.1027 16.8954 21.5305 16.464 22.0296 16.464C22.5287 16.464 22.9564 16.8954 22.9564 17.3987C22.9564 17.9019 22.5287 18.3333 22.0296 18.3333ZM24.7389 17.3987C24.7389 15.8889 23.5268 14.6666 22.0296 14.6666C20.5324 14.6666 19.3203 15.8889 19.3203 17.3987C19.3203 18.9085 20.5324 20.1307 22.0296 20.1307C23.5268 20.2026 24.7389 18.9085 24.7389 17.3987Z" fill="#0F0D0D"/>
</svg>
