<svg width="28" height="28" viewBox="0 0 28 28" fill="none" xmlns="http://www.w3.org/2000/svg">
<path d="M9.33366 22.1077C9.65393 22.1077 9.92844 21.8336 9.92844 21.5139V14.571C9.92844 14.2512 9.65393 13.9772 9.33366 13.9772C9.0134 13.9772 8.73889 14.2512 8.73889 14.571V21.5595C8.73889 21.8793 9.0134 22.1077 9.33366 22.1077Z" fill="#0F0D0D"/>
<path d="M16.3334 2.92333H12.8562V1.7814H16.3334V2.92333ZM5.85622 4.65905V1.1876H11.6667C11.6667 1.73573 11.6667 3.74551 11.6667 4.65905H5.85622ZM13.4052 8.17618H4.0719V5.84665C5.4902 5.84665 12.4445 5.84665 13.4052 5.84665V8.17618ZM16.3334 10.5057C15.4183 10.5057 2.05883 10.5057 1.18954 10.5057V9.36378C4.43792 9.36378 12.902 9.36378 16.3334 9.36378V10.5057ZM14.5948 24.4372H2.92811V22.1077H7.00001C7.32027 22.1077 7.59478 21.8336 7.59478 21.5139V14.571C7.59478 14.2512 7.32027 13.9772 7.00001 13.9772H2.92811V11.6476H14.5948V24.4372ZM16.3334 26.7667H1.18954V25.6248C2.10458 25.6248 15.4641 25.6248 16.3334 25.6248V26.7667ZM2.92811 15.1191H6.40524V20.9201H2.92811V15.1191ZM16.9281 0.593801H12.8562C12.8562 0.274061 12.5817 0 12.2615 0H5.26145C4.94118 0 4.66667 0.274061 4.66667 0.593801V4.65905H3.52288C3.20262 4.65905 2.92811 4.93312 2.92811 5.25286V8.17618H0.594772C0.27451 8.17618 0 8.45024 0 8.76998V11.0995C0 11.4192 0.27451 11.6933 0.594772 11.6933H1.73856C1.73856 13.1093 1.73856 23.0669 1.73856 24.4829H0.594772C0.27451 24.4829 0 24.7569 0 25.0767V27.4062C0 27.7259 0.27451 28 0.594772 28H16.9281C17.2484 28 17.5229 27.7259 17.5229 27.4062V25.0767C17.5229 24.7569 17.2484 24.4829 16.9281 24.4829H15.7843V11.6933H16.9281C17.2484 11.6933 17.5229 11.4192 17.5229 11.0995V8.72431C17.5229 8.40457 17.2484 8.1305 16.9281 8.1305H14.5948V5.20718C14.5948 4.88744 14.3203 4.61338 14 4.61338H12.8562V4.01958H16.9281C17.2484 4.01958 17.5229 3.74551 17.5229 3.42578V1.09625C17.4772 0.867863 17.2484 0.593801 16.9281 0.593801Z" fill="#0F0D0D"/>
<path d="M23.0132 3.42569L27.0851 1.09616C27.3596 0.959133 27.4511 0.593717 27.3139 0.319655C27.1766 0.0455928 26.8106 -0.0457611 26.5361 0.09127L22.4642 2.4208C22.1897 2.55783 22.0982 2.92324 22.2354 3.19731C22.4184 3.47137 22.7387 3.56272 23.0132 3.42569Z" fill="#0F0D0D"/>
<path d="M26.5361 10.4143C26.8106 10.5514 27.1766 10.46 27.3139 10.186C27.4511 9.91189 27.3596 9.54648 27.0851 9.40944L23.0132 7.07992C22.7387 6.94289 22.3727 7.03424 22.2354 7.3083C22.0982 7.58236 22.1897 7.94778 22.4642 8.08481L26.5361 10.4143Z" fill="#0F0D0D"/>
<path d="M27.4048 4.65908H22.7381C22.4178 4.65908 22.1433 4.93314 22.1433 5.25288C22.1433 5.57262 22.4178 5.84668 22.7381 5.84668H27.4048C27.725 5.84668 27.9995 5.57262 27.9995 5.25288C27.9995 4.93314 27.725 4.65908 27.4048 4.65908Z" fill="#0F0D0D"/>
<path d="M21.5953 12.8352C21.275 12.8352 21.0005 12.5612 21.0005 12.2414C21.0005 11.9217 21.275 11.6476 21.5953 11.6476C21.9155 11.6476 22.19 11.9217 22.19 12.2414C22.1443 12.5612 21.9155 12.8352 21.5953 12.8352ZM21.5953 10.5057C20.6345 10.5057 19.8567 11.2822 19.8567 12.2414C19.8567 13.2007 20.6345 13.9772 21.5953 13.9772C22.556 13.9772 23.3338 13.2007 23.3338 12.2414C23.3338 11.2822 22.556 10.5057 21.5953 10.5057Z" fill="#0F0D0D"/>
<path d="M19.262 15.1191H20.4058V16.261H19.262V15.1191Z" fill="#0F0D0D"/>
<path d="M21.5947 15.1191H22.7385V16.261H21.5947V15.1191Z" fill="#0F0D0D"/>
<path d="M23.9283 15.1191H25.0721V16.261H23.9283V15.1191Z" fill="#0F0D0D"/>
<path d="M26.2611 15.1191H27.4049V16.261H26.2611V15.1191Z" fill="#0F0D0D"/>
<path d="M19.262 18.0425H20.4058V19.1844H19.262V18.0425Z" fill="#0F0D0D"/>
<path d="M21.5947 18.0425H22.7385V19.1844H21.5947V18.0425Z" fill="#0F0D0D"/>
<path d="M23.9283 18.0425H25.0721V19.1844H23.9283V18.0425Z" fill="#0F0D0D"/>
<path d="M26.2611 18.0425H27.4049V19.1844H26.2611V18.0425Z" fill="#0F0D0D"/>
<path d="M19.262 20.9657H20.4058V22.1077H19.262V20.9657Z" fill="#0F0D0D"/>
<path d="M21.5947 20.9657H22.7385V22.1077H21.5947V20.9657Z" fill="#0F0D0D"/>
<path d="M23.9283 20.9657H25.0721V22.1077H23.9283V20.9657Z" fill="#0F0D0D"/>
<path d="M26.2611 20.9657H27.4049V22.1077H26.2611V20.9657Z" fill="#0F0D0D"/>
</svg>
