<svg width="32" height="32" viewBox="0 0 32 32" fill="none" xmlns="http://www.w3.org/2000/svg">
<path d="M7.84314 22.0131L9.98693 24.1569L3.76471 30.3791L1.62092 28.2353L7.84314 22.0131ZM7.32026 17.4118L14.5882 24.6797L13.4902 25.7778C13.2288 25.5163 6.64052 18.9281 6.22222 18.5098L7.32026 17.4118ZM18.6144 6.11765L20.183 7.68627L26.8758 14.3791L25.7778 15.4771L22.1699 11.8693C21.9085 11.6078 21.4902 11.6078 21.2288 11.8693C20.9673 12.1307 20.9673 12.549 21.2288 12.8105L24.8366 16.4183L23.7386 17.5163L15.4248 9.30719C15.8431 8.88889 17.9869 6.79739 18.6144 6.11765ZM27.2941 1.56863C27.6078 1.2549 28.0784 1.2549 28.3922 1.56863C28.7059 1.88235 28.7059 2.35294 28.3922 2.66667L24.7843 6.27451C23.9477 7.11111 23.9477 8.4183 24.7843 9.2549C25.6209 10.0915 26.9281 10.0915 27.7647 9.2549C27.8693 9.15033 29.3856 7.63399 29.281 7.73856C29.5948 7.42484 30.0654 7.42484 30.3791 7.73856C30.6928 8.05229 30.6928 8.52287 30.3791 8.8366L26.7712 12.4444L21.5425 7.21569L27.2941 1.56863ZM31.3203 30.6405H5.33333L10.8758 25.098L12.9673 27.1895C13.2288 27.451 13.6471 27.451 13.9085 27.1895L15.9477 25.1503C16.2092 24.8889 16.2092 24.4706 15.9477 24.2092L12.2876 20.549C13.2288 19.1373 13.0719 17.2549 11.8693 16L6.7451 10.8758C5.85621 9.98693 5.85621 8.57516 6.7451 7.73856L9.83007 4.65359C10.719 3.76471 12.1307 3.76471 12.9673 4.65359L15.5817 7.26797L14.0131 8.8366C13.7516 9.09804 13.7516 9.51634 14.0131 9.77778L23.2157 18.9804C23.4771 19.2418 23.8954 19.2418 24.1569 18.9804C27.8693 15.268 25.6209 17.5163 28.2353 14.902C28.4967 14.6405 28.4967 14.2222 28.2353 13.9608L27.7647 13.3856L31.3725 9.77778C32.2092 8.94118 32.2092 7.63399 31.3725 6.79739C30.5359 5.96078 29.2288 5.96078 28.3922 6.79739C28.2353 6.95425 26.8758 8.31372 26.8758 8.31372C26.5621 8.62745 26.0915 8.62745 25.7778 8.31372C25.4641 8 25.4641 7.52941 25.7778 7.21569L29.3856 3.60784C30.2222 2.77124 30.2222 1.46405 29.3856 0.627451C28.549 -0.209152 27.2418 -0.209152 26.4052 0.627451L20.6536 6.3268L19.085 4.75817C18.8235 4.49673 18.4052 4.49673 18.1438 4.75817L16.5752 6.3268L13.9608 3.71242C12.549 2.30065 10.3007 2.30065 8.94118 3.71242L5.85621 6.79739C4.44444 8.20915 4.44444 10.4575 5.85621 11.817L10.9804 16.9412C11.6601 17.6732 11.817 18.719 11.3987 19.5556L7.84314 16C7.5817 15.7386 7.1634 15.7386 6.90196 16L4.86275 18.0392C4.60131 18.3007 4.60131 18.719 4.86275 18.9804L6.95425 21.0719L0.20915 27.7647C-0.0522876 28.0261 -0.0522876 28.4444 0.20915 28.7059L2.14379 30.6405H0.679739C0.313726 30.6405 0 30.9542 0 31.3203C0 31.6863 0.313726 32 0.679739 32H31.3203C31.6863 32 32 31.6863 32 31.3203C32 30.9542 31.6863 30.6405 31.3203 30.6405Z" fill="#0F0D0D"/>
<path d="M26.6667 24.6796C26.6667 25.0456 26.3529 25.3593 25.9869 25.3593C25.6209 25.3593 25.3072 25.0456 25.3072 24.6796C25.3072 24.3136 25.6209 23.9998 25.9869 23.9998C26.3529 23.9998 26.6667 24.3136 26.6667 24.6796ZM24 24.6796C24 25.7776 24.8889 26.6665 25.9869 26.6665C27.085 26.6665 27.9739 25.7776 27.9739 24.6796C27.9739 23.5815 27.085 22.6926 25.9869 22.6926C24.8889 22.6404 24 23.5815 24 24.6796Z" fill="#0F0D0D"/>
<path d="M2.66735 1.9869C3.03336 1.9869 3.34709 2.30062 3.34709 2.66664C3.34709 3.03265 3.03336 3.34637 2.66735 3.34637C2.30133 3.34637 1.98761 3.03265 1.98761 2.66664C1.98761 2.30062 2.30133 1.9869 2.66735 1.9869ZM2.66735 4.65356C3.76539 4.65356 4.65428 3.76468 4.65428 2.66664C4.65428 1.5686 3.76539 0.679708 2.66735 0.679708C1.56931 0.679708 0.68042 1.5686 0.68042 2.66664C0.68042 3.76468 1.56931 4.65356 2.66735 4.65356Z" fill="#0F0D0D"/>
<path d="M19.9744 24.6796H21.2816V25.9868H19.9744V24.6796Z" fill="#0F0D0D"/>
<path d="M19.9744 27.3464H21.2816V28.6536H19.9744V27.3464Z" fill="#0F0D0D"/>
<path d="M21.3337 25.9868H22.6409V27.2939H21.3337V25.9868Z" fill="#0F0D0D"/>
<path d="M18.6677 25.9868H19.9749V27.2939H18.6677V25.9868Z" fill="#0F0D0D"/>
<path d="M1.9873 11.3464H3.29449V12.6536H1.9873V11.3464Z" fill="#0F0D0D"/>
<path d="M1.9873 14.0131H3.29449V15.3203H1.9873V14.0131Z" fill="#0F0D0D"/>
<path d="M3.34668 12.6535H4.65387V13.9607H3.34668V12.6535Z" fill="#0F0D0D"/>
<path d="M0.68042 12.6535H1.98761V13.9607H0.68042V12.6535Z" fill="#0F0D0D"/>
</svg>
