<svg width="29" height="29" viewBox="0 0 29 29" fill="none" xmlns="http://www.w3.org/2000/svg">
<path d="M21.9448 27.2061L20.8899 26.1512C20.9357 26.1054 21.0275 26.0136 22.6786 24.3625C22.9079 24.1332 22.9079 23.7663 22.6786 23.537C22.4493 23.3077 22.0823 23.3077 21.853 23.537C20.2019 25.1881 20.1102 25.2798 20.0643 25.3257L17.9087 23.1701C17.9087 22.3445 17.9087 21.4272 17.9087 20.6475C17.9087 20.51 17.8629 20.3265 17.7253 20.2348L14.4689 16.9784C14.2396 16.7491 13.8727 16.7491 13.6434 16.9784L10.387 20.2348C10.2953 20.3265 10.2036 20.51 10.2036 20.6475C10.2036 20.7393 10.2036 20.6475 10.2036 23.1701L6.16752 27.2061L1.44352 22.4821L2.22321 21.7024L3.73673 23.2159C3.96605 23.4452 4.33296 23.4452 4.56228 23.2159C4.7916 22.9866 4.7916 22.6197 4.56228 22.3904L3.04876 20.8769L5.47956 18.4461C6.5803 18.4461 6.90134 18.4461 8.00208 18.4461C8.13967 18.4461 8.32313 18.4002 8.41486 18.2626L11.6712 15.0063C11.9005 14.7769 11.9005 14.41 11.6712 14.1807L8.41486 10.9244C8.32313 10.8326 8.13967 10.7409 8.00208 10.7409C7.95622 10.7409 8.00208 10.7409 5.47956 10.7409L3.04876 8.31011L5.11265 6.24623C5.34197 6.01691 5.34197 5.65 5.11265 5.42068C4.88333 5.19136 4.51641 5.19136 4.28709 5.42068L2.22321 7.48456L1.44352 6.70487L6.16752 1.98088L10.2036 6.01691C10.2036 7.11765 10.2036 7.4387 10.2036 8.53943C10.2036 8.67703 10.2494 8.86048 10.387 8.95221L13.6434 12.2086C13.8727 12.4379 14.2396 12.4379 14.4689 12.2086L17.7253 8.95221C17.817 8.86048 17.9087 8.67703 17.9087 8.53943C17.9087 7.48456 17.9087 7.07179 17.9087 6.01691L20.3395 3.58612L22.4034 5.65C22.6327 5.87932 22.9996 5.87932 23.2289 5.65C23.4583 5.42068 23.4583 5.05377 23.2289 4.82445L21.1651 2.76056L21.9448 1.98088L26.6687 6.70487L22.6327 10.7409C21.532 10.7409 21.2109 10.7409 20.1102 10.7409C19.9726 10.7409 19.7891 10.7868 19.6974 10.9244L16.4411 14.1807C16.2117 14.41 16.2117 14.7769 16.4411 15.0063L19.6974 18.2626C19.7891 18.3543 19.9726 18.4461 20.1102 18.4461C20.1102 18.4461 21.8989 18.4461 22.6327 18.4461L26.6687 22.4821L21.9448 27.2061ZM16.7163 21.7024C15.0651 22.3445 13.1389 22.3445 11.396 21.7024V20.831L14.0561 18.1709L16.7163 20.831V21.7024ZM10.066 24.9588L11.2126 23.8122C11.3043 23.7204 11.396 23.537 11.396 23.3994V22.9407C13.093 23.4911 14.9734 23.4911 16.7163 22.9407V23.3994C16.7163 23.537 16.7621 23.7204 16.8997 23.8122L18.0463 24.9588C15.4779 25.9219 12.6344 25.9678 10.066 24.9588ZM7.77276 11.9334L10.4329 14.5935L7.77276 17.2536H6.94721C6.30511 15.6025 6.30511 13.6762 6.94721 11.9334H7.77276ZM3.69086 10.6033L4.83746 11.7499C4.92919 11.8416 5.11265 11.9334 5.25024 11.9334H5.70888C5.15851 13.6303 5.15851 15.5108 5.70888 17.2536H5.25024C5.11265 17.2536 4.92919 17.2995 4.83746 17.4371L3.69086 18.5837C2.72772 16.0153 2.68185 13.1717 3.69086 10.6033ZM11.396 7.48456C13.0471 6.84247 14.9734 6.84247 16.7163 7.48456V8.35598L14.0561 11.0161L11.396 8.35598V7.48456ZM18.0463 4.22821L16.8997 5.37482C16.808 5.46654 16.7163 5.65 16.7163 5.78759V6.24623C15.0193 5.69586 13.1389 5.69586 11.396 6.24623V5.78759C11.396 5.65 11.3502 5.46654 11.2126 5.37482L10.066 4.22821C12.6344 3.26507 15.4779 3.21921 18.0463 4.22821ZM20.3395 17.2536L17.6794 14.5935L20.3395 11.9334H21.1651C21.8072 13.5845 21.8072 15.5108 21.1651 17.2536H20.3395ZM24.4214 18.5837L23.2748 17.4371C23.1831 17.3453 22.9996 17.2536 22.862 17.2536H22.4034C22.9538 15.5566 22.9538 13.6762 22.4034 11.9334H22.862C22.9996 11.9334 23.1831 11.8875 23.2748 11.7499L24.4214 10.6033C25.3846 13.1717 25.4304 16.0153 24.4214 18.5837ZM27.9071 22.0693L25.3387 19.5009C26.6687 16.3822 26.6687 12.8507 25.3387 9.7319L27.9071 7.16351C28.1364 6.93419 28.1364 6.56728 27.9071 6.33796L22.3575 0.742547C22.1282 0.513227 21.7613 0.513227 21.532 0.742547L18.9636 3.31093C15.8448 1.98088 12.3133 1.98088 9.19455 3.31093L6.62616 0.742547C6.39684 0.513227 6.02993 0.513227 5.80061 0.742547L0.205193 6.2921C-0.0241269 6.52142 -0.0241269 6.88833 0.205193 7.11765L2.77358 9.68604C1.44352 12.8048 1.44352 16.3363 2.77358 19.4551L0.205193 22.0235C-0.0241269 22.2528 -0.0241269 22.6197 0.205193 22.849L5.75474 28.3986C5.98406 28.6279 6.35098 28.6279 6.5803 28.3986L9.14868 25.8302C12.2674 27.1602 15.799 27.1602 18.9177 25.8302L21.4861 28.3986C21.7154 28.6279 22.0823 28.6279 22.3117 28.3986L27.8612 22.849C28.1364 22.6656 28.1364 22.2986 27.9071 22.0693Z" fill="#0F0D0D"/>
<path d="M14.0568 15.1898C13.7358 15.1898 13.4606 14.9146 13.4606 14.5936C13.4606 14.2725 13.7358 13.9974 14.0568 13.9974C14.3778 13.9974 14.653 14.2725 14.653 14.5936C14.653 14.9146 14.3778 15.1898 14.0568 15.1898ZM14.0568 12.8508C13.0937 12.8508 12.314 13.6304 12.314 14.5936C12.314 15.5567 13.0937 16.3364 14.0568 16.3364C15.0199 16.3364 15.7996 15.5567 15.7996 14.5936C15.7996 13.6304 15.0199 12.8508 14.0568 12.8508Z" fill="#0F0D0D"/>
</svg>
