<svg width="32" height="32" viewBox="0 0 32 32" fill="none" xmlns="http://www.w3.org/2000/svg">
<path d="M4.7692 1.35948H8.70996V4.70588C8.70996 5.80392 7.82847 6.69281 6.73958 6.69281C5.65069 6.69281 4.7692 5.80392 4.7692 4.70588C4.7692 4.65359 4.7692 1.35948 4.7692 1.35948ZM6.79143 8C8.60625 8 10.11 6.48366 10.11 4.65359V0.679738C10.11 0.313725 9.79885 -9.53674e-07 9.43588 -9.53674e-07H4.14698C3.78401 -9.53674e-07 3.4729 0.313725 3.4729 0.679738V4.65359C3.4729 6.48366 4.92476 8 6.79143 8Z" fill="#0F0D0D"/>
<path d="M13.3779 1.98686H16.0224V6.64046H13.3779V1.98686ZM19.8594 2.6666H25.2521C25.2521 3.34634 25.2521 4.33981 25.2521 6.01301H19.8594C19.4965 4.96726 18.3557 4.44438 17.3187 4.81039V3.9215C18.4076 4.28752 19.4965 3.71235 19.8594 2.6666ZM29.3484 3.34634L30.0224 7.47706C29.1928 6.37902 27.9484 4.96726 26.6002 5.07183V3.34634H29.3484ZM12.7039 7.99994H16.6446C17.0076 7.99994 17.3187 7.68621 17.3187 7.3202V6.64046C17.3187 6.27445 17.6298 5.96072 17.9928 5.96072C18.3557 5.96072 18.6668 6.27445 18.6668 6.64046C18.6668 7.00647 18.978 7.3202 19.3409 7.3202H20.015V16.6274C20.015 16.9934 20.3261 17.3071 20.6891 17.3071C21.052 17.3071 21.3632 16.9934 21.3632 16.6274V7.3202H24.0076V16.6274C24.0076 16.9934 24.3187 17.3071 24.6817 17.3071C25.0446 17.3071 25.3558 16.9934 25.3558 16.6274V7.3202H26.0298C26.3928 7.3202 26.7039 7.00647 26.7039 6.64046V6.37902C26.8076 6.37902 26.8595 6.37902 27.015 6.37902C28.2076 6.64046 29.9706 9.30713 30.7484 10.9803C30.9039 11.2941 31.215 11.3986 31.5262 11.2941C31.8373 11.1895 32.0447 10.8758 31.9928 10.562L30.6965 2.56203C30.6447 2.2483 30.3854 1.98686 30.0224 1.98686H26.7039C26.7039 1.62085 26.3928 1.30713 26.0298 1.30713H19.3409C18.978 1.30713 18.6668 1.62085 18.6668 1.98686C18.6668 2.35288 18.3557 2.6666 17.9928 2.6666C17.6298 2.6666 17.3187 2.35288 17.3187 1.98686V1.30713C17.3187 0.941113 17.0076 0.627386 16.6446 0.627386H12.7039C12.3409 0.627386 12.0298 0.941113 12.0298 1.30713V7.3202C12.0816 7.68621 12.3409 7.99994 12.7039 7.99994Z" fill="#0F0D0D"/>
<path d="M20.6371 30.6405V28.6536H21.9853C22.3482 28.6536 22.6593 28.3399 22.6593 27.9739C22.6593 27.6078 22.3482 27.2941 21.9853 27.2941H20.689V25.9869H21.9853C22.3482 25.9869 22.6593 25.6732 22.6593 25.3072C22.6593 24.9412 22.3482 24.6274 21.9853 24.6274H20.689V23.3203H21.9853C22.3482 23.3203 22.6593 23.0065 22.6593 22.6405C22.6593 22.2745 22.3482 21.9608 21.9853 21.9608H20.689V20.6536C20.689 19.5556 21.5704 18.6667 22.6593 18.6667C23.7482 18.6667 24.6297 19.5556 24.6297 20.6536V30.6405H20.6371ZM4.14816 29.3333H6.79262C7.15558 29.3333 7.46669 29.0196 7.46669 28.6536C7.46669 28.2876 7.15558 27.9739 6.79262 27.9739H3.57779C3.52594 27.7647 3.52594 27.5556 3.52594 27.2941V25.3072H6.17039C6.53336 25.3072 6.84447 24.9935 6.84447 24.6274C6.84447 24.2614 6.53336 23.9477 6.17039 23.9477H3.52594V21.1765C4.66668 20.8627 5.49632 19.817 5.49632 18.6144C5.49632 18.1438 5.34076 17.6732 5.13335 17.3072H8.50373C8.29633 17.7255 8.14077 18.1438 8.14077 18.6144C8.14077 19.8693 8.9704 20.915 10.1111 21.1765V25.9346H7.46669C7.10373 25.9346 6.79262 26.2484 6.79262 26.6144C6.79262 26.9804 7.10373 27.2941 7.46669 27.2941H10.0593C10.0593 29.1242 8.55559 30.6405 6.74077 30.6405C5.70372 30.6405 4.71854 30.1176 4.14816 29.3333ZM1.50371 14.6928H12.0815V16H1.50371V14.6928ZM31.2149 30.6405H25.926V20.6536C25.926 18.8235 24.4223 17.3072 22.6075 17.3072C20.7927 17.3072 19.289 18.8235 19.289 20.6536V30.6405H9.95559C10.8371 29.8039 11.3556 28.6013 11.3556 27.2941V20.6536C11.3556 20.2876 11.0445 19.9739 10.6815 19.9739C9.95559 19.9739 9.38522 19.3987 9.38522 18.6667C9.38522 17.9346 9.95559 17.3595 10.6815 17.3595H12.6519C13.0149 17.3595 13.326 17.0457 13.326 16.6797V14.0131C13.326 13.6471 13.0149 13.3333 12.6519 13.3333H9.33337V8.67973C9.33337 8.31372 9.02225 7.99999 8.65929 7.99999C8.29633 7.99999 7.98521 8.31372 7.98521 8.67973V13.3333H5.34076V8.67973C5.34076 8.31372 5.02965 7.99999 4.66668 7.99999C4.30372 7.99999 3.99261 8.31372 3.99261 8.67973V13.3333H0.674076C0.311112 13.3333 0 13.6471 0 14.0131V16.6797C0 17.0457 0.311112 17.3595 0.674076 17.3595H2.80001C3.52594 17.3595 4.09631 17.9346 4.09631 18.6667C4.09631 19.3987 3.52594 19.9739 2.80001 19.9739C2.43705 19.9739 2.12593 20.2876 2.12593 20.6536V27.2941C2.12593 28.6013 2.64445 29.8039 3.52594 30.6405H0.829633C0.466668 30.6405 0.155556 30.9542 0.155556 31.3203C0.155556 31.6863 0.466668 32 0.829633 32C2.12593 32 29.8668 32 31.2149 32C31.5779 32 31.889 31.6863 31.889 31.3203C31.889 30.9542 31.5779 30.6405 31.2149 30.6405Z" fill="#0F0D0D"/>
<path d="M29.2431 18.6666C29.2431 19.0326 28.932 19.3464 28.569 19.3464C28.206 19.3464 27.8949 19.0326 27.8949 18.6666C27.8949 18.3006 28.206 17.9869 28.569 17.9869C28.932 17.9869 29.2431 18.3006 29.2431 18.6666ZM26.5986 18.6666C26.5986 19.7647 27.4801 20.6536 28.569 20.6536C29.6579 20.6536 30.5394 19.7647 30.5394 18.6666C30.5394 17.5686 29.6579 16.6797 28.569 16.6797C27.4801 16.6797 26.5986 17.5686 26.5986 18.6666Z" fill="#0F0D0D"/>
<path d="M16.0224 23.9999C16.0224 24.3659 15.7113 24.6796 15.3483 24.6796C14.9853 24.6796 14.6742 24.3659 14.6742 23.9999C14.6742 23.6339 14.9853 23.3201 15.3483 23.3201C15.7113 23.3201 16.0224 23.6339 16.0224 23.9999ZM13.3779 23.9999C13.3779 25.0979 14.2594 25.9868 15.3483 25.9868C16.4372 25.9868 17.3187 25.0979 17.3187 23.9999C17.3187 22.9018 16.4372 22.013 15.3483 22.013C14.2594 22.013 13.3779 22.9018 13.3779 23.9999Z" fill="#0F0D0D"/>
<path d="M16.0214 13.3333C15.6584 13.3333 15.3473 13.0196 15.3473 12.6536C15.3473 12.2876 15.6584 11.9738 16.0214 11.9738C16.3844 11.9738 16.6955 12.2876 16.6955 12.6536C16.6955 13.0196 16.3844 13.3333 16.0214 13.3333ZM17.9918 12.6536C17.9918 11.5555 17.1103 10.6666 16.0214 10.6666C14.9325 10.6666 14.051 11.5555 14.051 12.6536C14.051 13.7516 14.9325 14.6405 16.0214 14.6405C17.1103 14.6928 17.9918 13.7516 17.9918 12.6536Z" fill="#0F0D0D"/>
</svg>
