<svg width="38" height="38" viewBox="0 0 38 38" fill="none" xmlns="http://www.w3.org/2000/svg">
<path d="M19.0002 32.9106C17.6953 32.9106 16.639 31.9493 16.639 30.7618C16.639 29.5743 17.6953 28.613 19.0002 28.613C20.3051 28.613 21.3614 29.5743 21.3614 30.7618C21.3614 31.9493 20.3051 32.9106 19.0002 32.9106ZM19.0002 27.1428C16.8254 27.1428 15.0234 28.7826 15.0234 30.7618C15.0234 32.741 16.8254 34.3809 19.0002 34.3809C21.175 34.3809 22.9769 32.741 22.9769 30.7618C22.9769 28.7826 21.175 27.1428 19.0002 27.1428Z" fill="white"/>
<path d="M13.4739 30.8208C13.4739 27.7883 15.9575 25.3127 19 25.3127C22.0425 25.3127 24.5261 27.7883 24.5261 30.8208C24.5261 33.8534 22.0425 36.329 19 36.329C15.9575 36.329 13.4739 33.8534 13.4739 30.8208ZM17.3235 19.4332L16.951 16.6482H21.1111L20.7386 19.4332C20.5523 20.7329 20.6765 22.0945 21.049 23.3322L21.1732 24.0749C19.8072 23.6417 18.2549 23.6417 16.8889 24.0749L17.0131 23.3322C17.3856 22.0945 17.5098 20.7329 17.3235 19.4332ZM11.8595 14.2964H18.1928C18.6275 14.2964 19 13.9251 19 13.4919C19 13.0586 18.6275 12.6873 18.1928 12.6873H11.8595V11.8827H26.1405V15.0391H11.8595V14.2964ZM10.3072 8.72639H27.6928V10.2736C26.451 10.2736 11.0523 10.2736 10.3072 10.2736V8.72639ZM14.281 4.82736H23.781V7.17915H14.281V4.82736ZM10.3072 1.67101H27.6928V3.21824H10.3072V1.67101ZM37.1928 36.329H23.4706C25.085 35.0293 26.1405 33.0489 26.1405 30.8208C26.1405 28.3453 24.8366 26.1792 22.9118 24.8795C22.5392 22.899 22.6013 22.9609 22.5392 22.8371C22.1667 21.785 22.1046 20.671 22.2288 19.6189L22.6634 16.5863H26.8856C27.3203 16.5863 27.6928 16.215 27.6928 15.7818V11.8827H28.5C28.9346 11.8827 29.3072 11.5114 29.3072 11.0782V7.92183C29.3072 7.4886 28.9346 7.11726 28.5 7.11726H25.3333V4.76547H28.5C28.9346 4.76547 29.3072 4.39414 29.3072 3.96091V0.804562C29.3072 0.371338 28.9346 0 28.5 0H9.5C9.06536 0 8.69281 0.371338 8.69281 0.804562V3.96091C8.69281 4.39414 9.06536 4.76547 9.5 4.76547H12.6667V7.11726H9.5C9.06536 7.11726 8.69281 7.4886 8.69281 7.92183V11.0782C8.69281 11.5114 9.06536 11.8827 9.5 11.8827H10.3072V15.8436C10.3072 16.2769 10.6797 16.6482 11.1144 16.6482H15.3366L15.7712 19.6808C15.8954 20.7329 15.8333 21.9088 15.4608 22.899C15.3987 23.0228 15.4608 22.9609 15.0882 24.9414C13.1634 26.241 11.8595 28.4072 11.8595 30.8827C11.8595 33.1107 12.915 35.0912 14.5294 36.3909H0.80719C0.372549 36.3909 0 36.7622 0 37.1954C0 37.6287 0.372549 38 0.80719 38H37.1928C37.6275 38 38 37.6287 38 37.1954C38 36.7003 37.6275 36.329 37.1928 36.329Z" fill="white"/>
<path d="M32.2573 21.392C32.6641 21.392 33.0128 21.7492 33.0128 22.1658C33.0128 22.5825 32.6641 22.9396 32.2573 22.9396C31.8506 22.9396 31.5019 22.5825 31.5019 22.1658C31.5019 21.7492 31.8506 21.392 32.2573 21.392ZM32.2573 24.4277C33.4776 24.4277 34.4655 23.4158 34.4655 22.1658C34.4655 20.9158 33.4776 19.9039 32.2573 19.9039C31.037 19.9039 30.0492 20.9158 30.0492 22.1658C29.9911 23.4158 31.037 24.4277 32.2573 24.4277Z" fill="white"/>
<path d="M4.86085 15.9643C5.26761 15.9643 5.61627 16.3214 5.61627 16.7381C5.61627 17.1548 5.26761 17.5119 4.86085 17.5119C4.45408 17.5119 4.10543 17.1548 4.10543 16.7381C4.10543 16.3214 4.45408 15.9643 4.86085 15.9643ZM4.86085 19C6.08114 19 7.069 17.9881 7.069 16.7381C7.069 15.4881 6.08114 14.4762 4.86085 14.4762C3.64056 14.4762 2.6527 15.4881 2.6527 16.7381C2.59459 17.9881 3.64056 19 4.86085 19Z" fill="white"/>
<path d="M7.95312 21.7139H9.72057V23.5234H7.95312V21.7139Z" fill="white"/>
<path d="M7.95312 25.3331H9.72057V27.1426H7.95312V25.3331Z" fill="white"/>
<path d="M9.7207 23.5245H11.4881V25.334H9.7207V23.5245Z" fill="white"/>
<path d="M6.18555 23.5245H7.95299V25.334H6.18555V23.5245Z" fill="white"/>
<path d="M31.8145 11.7627H33.5819V13.5723H31.8145V11.7627Z" fill="white"/>
<path d="M31.8145 14.4756H33.5819V16.2852H31.8145V14.4756Z" fill="white"/>
<path d="M33.582 13.5718H35.3495V14.4766H33.582V13.5718Z" fill="white"/>
<path d="M30.9297 13.5718H31.8134V14.4766H30.9297V13.5718Z" fill="white"/>
</svg>
