<svg width="32" height="32" viewBox="0 0 32 32" fill="none" xmlns="http://www.w3.org/2000/svg">
<path d="M5.33333 30.6427V29.9641H16C16.366 29.9641 16.6797 29.6509 16.6797 29.2855C16.6797 28.9201 16.366 28.6069 16 28.6069H5.33333V27.9282C6.69281 27.9282 25.098 27.9282 26.6667 27.9282V30.5905L5.33333 30.6427ZM7.94771 24.6917C8 24.6917 19.1895 24.6917 23.9477 24.6917L24.4706 26.6754H7.52941L7.94771 24.6917ZM13.1765 1.40946H18.1438L18.9804 4.75041H12.4444L13.1765 1.40946ZM12.1307 6.05546H19.2941L20.1307 9.39641H11.3987L12.1307 6.05546ZM11.085 10.7015H20.4444L21.281 14.0424H10.3007L11.085 10.7015ZM10.0392 15.3475H21.6471L22.4837 18.6884H9.30719L10.0392 15.3475ZM8.99346 19.9935C23.5294 19.9935 22.6405 19.9935 22.7974 19.9935L23.634 23.3344H8.26144L8.99346 19.9935ZM31.3203 30.6427H27.9739V27.3018C27.9739 26.9364 27.6601 26.6232 27.2941 26.6232H25.8301L19.2941 0.522022C19.2418 0.208809 18.9281 0 18.6667 0H12.6536C12.3399 0 12.0784 0.208809 12.0261 0.522022L6.16993 26.6232H4.70588C4.33987 26.6232 4.02614 26.9364 4.02614 27.3018V30.6427H0.679739C0.313726 30.6427 0 30.956 0 31.3214C0 31.6868 0.313726 32 0.679739 32C2.03922 32 30.2222 32 31.3203 32C31.6863 32 32 31.6868 32 31.3214C32 30.956 31.6863 30.6427 31.3203 30.6427Z" fill="#0F0D0D"/>
<path d="M3.34777 14.0425C3.71378 14.0425 4.02751 14.3557 4.02751 14.7211C4.02751 15.0866 3.71378 15.3998 3.34777 15.3998C2.98175 15.3998 2.66803 15.0866 2.66803 14.7211C2.66803 14.3035 2.98175 14.0425 3.34777 14.0425ZM3.34777 16.7048C4.44581 16.7048 5.3347 15.8174 5.3347 14.7211C5.3347 13.6249 4.44581 12.7375 3.34777 12.7375C2.24973 12.7375 1.36084 13.6249 1.36084 14.7211C1.36084 15.8174 2.24973 16.7048 3.34777 16.7048Z" fill="#0F0D0D"/>
<path d="M29.3336 4.69804C29.6996 4.69804 30.0133 5.01125 30.0133 5.37666C30.0133 5.74208 29.6996 6.05529 29.3336 6.05529C28.9676 6.05529 28.6539 5.74208 28.6539 5.37666C28.6539 5.01125 28.9676 4.69804 29.3336 4.69804ZM29.3336 7.36035C30.4316 7.36035 31.3205 6.47291 31.3205 5.37666C31.3205 4.28042 30.4316 3.39298 29.3336 3.39298C28.2356 3.39298 27.3467 4.28042 27.3467 5.37666C27.3467 6.47291 28.2356 7.36035 29.3336 7.36035Z" fill="#0F0D0D"/>
<path d="M27.9744 12.0587H29.2816V13.3638H27.9744V12.0587Z" fill="#0F0D0D"/>
<path d="M27.9744 14.7211H29.2816V16.0261H27.9744V14.7211Z" fill="#0F0D0D"/>
<path d="M29.3337 13.3639H30.6409V14.6689H29.3337V13.3639Z" fill="#0F0D0D"/>
<path d="M26.6677 13.3639H27.9749V14.6689H26.6677V13.3639Z" fill="#0F0D0D"/>
<path d="M4.65332 3.39319H5.96051V4.69824H4.65332V3.39319Z" fill="#0F0D0D"/>
<path d="M4.65332 6.05529H5.96051V7.36035H4.65332V6.05529Z" fill="#0F0D0D"/>
<path d="M6.0127 4.69812H7.31988V6.00317H6.0127V4.69812Z" fill="#0F0D0D"/>
<path d="M3.34668 4.69812H4.65387V6.00317H3.34668V4.69812Z" fill="#0F0D0D"/>
</svg>
