<svg width="28" height="29" viewBox="0 0 28 29" fill="none" xmlns="http://www.w3.org/2000/svg">
<path d="M1.73573 4.05418H7.354L10.6884 6.84048C10.7798 6.93183 10.9168 6.97751 11.0538 6.97751H17.4486C17.5857 6.97751 17.7227 6.93183 17.814 6.84048L21.1485 4.05418H26.2186L26.7211 11.0428H1.23328L1.73573 4.05418ZM0.593801 12.1847H27.3605C27.6803 12.1847 27.9543 11.9106 27.9543 11.5452L27.3605 3.4147C27.3605 3.09496 27.0865 2.86658 26.7667 2.86658H20.9658C20.8287 2.86658 20.6917 2.91226 20.6003 3.00361L17.2659 5.78991H11.2822L7.9478 3.00361C7.85645 2.91226 7.71942 2.86658 7.58239 2.86658H1.1876C0.867863 2.86658 0.639478 3.09496 0.593801 3.4147L0 11.5452C0 11.9106 0.228385 12.1847 0.593801 12.1847Z" fill="#0F0D0D"/>
<path d="M9.91204 3.46057C10.2318 3.46057 10.5058 3.18651 10.5058 2.86677V1.72484H18.0882V2.86677C18.0882 3.18651 18.3623 3.46057 18.682 3.46057C19.0018 3.46057 19.2758 3.18651 19.2758 2.86677V1.13104C19.2758 0.811304 19.0018 0.537242 18.682 0.537242H9.91204C9.5923 0.537242 9.31824 0.811304 9.31824 1.13104V2.86677C9.31824 3.18651 9.5923 3.46057 9.91204 3.46057Z" fill="#0F0D0D"/>
<path d="M0.593801 14.5143H27.3605C27.6803 14.5143 27.9543 14.2402 27.9543 13.9205C27.9543 13.6007 27.6803 13.3267 27.3605 13.3267H0.593801C0.274062 13.3267 0 13.6007 0 13.9205C0 14.2402 0.274062 14.5143 0.593801 14.5143Z" fill="#0F0D0D"/>
<path d="M27.3605 15.6562H0.593801C0.274062 15.6562 0 15.9302 0 16.25V23.8323C0 24.1521 0.274062 24.4261 0.593801 24.4261H6.98858C7.12562 24.4261 7.30832 24.3805 7.39968 24.2434L8.9527 22.6447H12.1958C12.5155 22.6447 12.7896 22.3707 12.7896 22.0509C12.7896 21.7312 12.5155 21.4571 12.1958 21.4571H8.72431C8.58728 21.4571 8.40457 21.5028 8.31322 21.6398L6.71452 23.2385H1.1876V16.8438H26.8124V23.2385H26.2186C25.8989 23.2385 25.6248 23.5126 25.6248 23.8323C25.6248 24.1521 25.8989 24.4261 26.2186 24.4261H27.3605C27.6803 24.4261 27.9543 24.1521 27.9543 23.8323V16.25C27.9543 15.9302 27.6803 15.6562 27.3605 15.6562Z" fill="#0F0D0D"/>
<path d="M23.2954 23.604H22.3362C22.0622 23.604 21.8338 23.7867 21.7881 24.0151C21.7424 24.1978 21.6511 24.3805 21.5597 24.5175C21.4227 24.7459 21.4684 25.02 21.6511 25.2027L22.3362 25.8878L21.8338 26.3903L21.1943 25.7051C21.0116 25.5224 20.7375 25.4767 20.5091 25.6138C20.3721 25.7051 20.1894 25.7508 20.0067 25.8422C19.7783 25.9335 19.5956 26.1619 19.5956 26.3903V27.3495H18.9104V26.3903C18.9104 26.1162 18.7277 25.8878 18.4993 25.8422C18.3166 25.7965 18.1339 25.7051 17.9969 25.6138C17.7685 25.4767 17.4944 25.5224 17.3117 25.7051L16.6266 26.3903L16.1241 25.8878L16.8093 25.2027C16.992 25.02 17.0377 24.7459 16.9006 24.5175C16.8093 24.3805 16.7636 24.1978 16.6723 24.0151C16.5809 23.7867 16.3525 23.604 16.1241 23.604H15.1192V22.9188H16.0785C16.3525 22.9188 16.5809 22.7361 16.6266 22.5077C16.6723 22.325 16.7636 22.1423 16.855 22.0053C16.992 21.7769 16.9463 21.5028 16.7636 21.3201L16.0785 20.635L16.5809 20.1325L17.2661 20.8177C17.4488 21.0004 17.7228 21.0461 17.9512 20.909C18.0883 20.8177 18.271 20.772 18.4537 20.6807C18.6821 20.5893 18.8648 20.3609 18.8648 20.1325V19.1733H19.5499V20.1325C19.5499 20.4066 19.7326 20.635 19.961 20.6807C20.1437 20.7263 20.3264 20.8177 20.4635 20.909C20.6918 21.0461 20.9659 21.0004 21.1486 20.8177L21.8338 20.1325L22.3362 20.635L21.6511 21.3201C21.4684 21.5028 21.4227 21.7769 21.5597 22.0053C21.6511 22.1423 21.6967 22.325 21.7881 22.5077C21.8794 22.7361 22.1078 22.9188 22.3362 22.9188H23.2954V23.604ZM23.8892 21.7312H22.8843L23.6152 21.0004C23.8436 20.772 23.8436 20.4066 23.6152 20.1782L22.2905 18.8536C22.0622 18.6252 21.6967 18.6252 21.4684 18.8536L20.7375 19.5844V18.5795C20.7375 18.2598 20.4635 17.9857 20.1437 17.9857H18.271C17.9512 17.9857 17.6772 18.2598 17.6772 18.5795V19.5844L16.9463 18.8536C16.7179 18.6252 16.3525 18.6252 16.1241 18.8536L14.7995 20.1782C14.5711 20.4066 14.5711 20.772 14.7995 21.0004L15.5303 21.7312H14.5254C14.2057 21.7312 13.9316 22.0053 13.9316 22.325V24.1978C13.9316 24.5175 14.2057 24.7916 14.5254 24.7916H15.576L14.8452 25.5224C14.6168 25.7508 14.6168 26.1162 14.8452 26.3446L16.1698 27.6692C16.3982 27.8976 16.7636 27.8976 16.992 27.6692L17.7228 26.9384V27.9433C17.7228 28.263 17.9969 28.5371 18.3166 28.5371H20.1437C20.4635 28.5371 20.7375 28.263 20.7375 27.9433V26.9384L21.4684 27.6692C21.6967 27.8976 22.0622 27.8976 22.2905 27.6692L23.6152 26.3446C23.8436 26.1162 23.8436 25.7508 23.6152 25.5224L22.8843 24.7459H23.8892C24.209 24.7459 24.483 24.4719 24.483 24.1521V22.2794C24.4374 22.0053 24.209 21.7312 23.8892 21.7312Z" fill="#0F0D0D"/>
<path d="M19.2305 24.4262C18.5911 24.4262 18.0886 23.9237 18.0886 23.2843C18.0886 22.6448 18.5911 22.1423 19.2305 22.1423C19.87 22.1423 20.3725 22.6448 20.3725 23.2843C20.3725 23.8781 19.87 24.4262 19.2305 24.4262ZM19.2305 20.9091C17.9516 20.9091 16.901 21.9596 16.901 23.2386C16.901 24.5175 17.9516 25.5681 19.2305 25.5681C20.5095 25.5681 21.5601 24.5175 21.5601 23.2386C21.5601 21.9596 20.5095 20.9091 19.2305 20.9091Z" fill="#0F0D0D"/>
<path d="M4.65955 8.71342H5.80147V9.85535H4.65955V8.71342Z" fill="#0F0D0D"/>
<path d="M7.58276 8.71342H8.72469V9.85535H7.58276V8.71342Z" fill="#0F0D0D"/>
<path d="M10.506 8.71342H11.6479V9.85535H10.506V8.71342Z" fill="#0F0D0D"/>
<path d="M13.3839 8.71342H14.5258V9.85535H13.3839V8.71342Z" fill="#0F0D0D"/>
<path d="M16.3071 8.71342H17.4491V9.85535H16.3071V8.71342Z" fill="#0F0D0D"/>
<path d="M19.2303 8.71342H20.3723V9.85535H19.2303V8.71342Z" fill="#0F0D0D"/>
<path d="M22.1074 8.71342H23.2493V9.85535H22.1074V8.71342Z" fill="#0F0D0D"/>
</svg>
