<svg width="38" height="38" viewBox="0 0 38 38" fill="none" xmlns="http://www.w3.org/2000/svg">
<path d="M21.4127 27.3318C21.7302 26.9242 21.5397 26.3419 21.0318 26.1673C21.0318 26.1673 20.2699 25.8761 19.7619 25.4103C21.5397 24.7116 22.619 23.3724 22.619 21.5673C22.619 21.1597 22.2381 20.8104 21.7937 20.8104C21.3492 20.8104 20.9683 21.1597 20.9683 21.5673C20.9683 22.499 20.5873 23.1977 19.7619 23.7217C19.0635 24.1293 18.3651 24.2458 18.3651 24.2458C17.8572 24.304 17.5398 24.828 17.7302 25.2356C18.0477 26.109 18.8096 26.6913 19.4445 27.0407C17.8572 28.2052 16.016 27.6229 15.9525 27.5647C15.508 27.39 15.0636 27.6229 14.8731 28.0305C14.5557 28.8457 14.6826 29.5444 14.9366 30.1267C14.0477 30.2432 13.2858 30.1267 12.7144 29.7774C12.143 29.4862 11.8255 29.0204 11.8255 28.9622C11.5716 28.5546 10.9367 28.4381 10.5557 28.7875C9.79383 29.4862 9.41288 30.1267 9.2224 30.6508C7.38116 29.6609 7.44465 28.2634 7.44465 28.147C7.50814 27.7394 7.19069 27.39 6.74625 27.3318C5.73039 27.1571 4.905 27.6812 4.33358 28.2052C3.31772 26.3419 4.2066 25.061 4.27009 24.9445C4.52406 24.6534 4.46056 24.1875 4.14311 23.9546C3.5082 23.4306 2.61932 23.3724 1.92092 23.4888L2.23837 21.9167C2.30186 21.5091 2.0479 21.1015 1.60346 21.0433C1.15902 20.985 0.714583 21.218 0.651092 21.6255L0.0161797 24.3622C-0.0473115 24.6534 0.0796709 24.9445 0.333636 25.1192C0.587601 25.2939 0.905057 25.3521 1.15902 25.2356C1.41299 25.1192 1.98441 24.9445 2.42885 24.9445C2.0479 25.9344 1.79393 27.7394 3.5082 29.952C3.82565 30.3596 4.52406 30.3596 4.84151 29.8938C5.03198 29.6609 5.41293 29.1951 5.79388 28.9622C6.04784 30.1267 7.00021 31.6989 9.53986 32.514C9.85732 32.6305 10.1748 32.5723 10.4287 32.3394C10.6192 32.1064 10.7462 31.8735 10.6192 31.5824C10.6192 31.5242 10.5557 31.0584 10.9367 30.4761C12.0795 31.4659 13.9208 31.9318 16.2064 31.2913C16.7779 31.1166 16.9683 30.5343 16.6509 30.1267C16.6509 30.1267 16.3334 29.6609 16.2699 29.1369C17.7937 29.3698 19.8889 29.1369 21.4127 27.3318Z" fill="white"/>
<path d="M9.18861 8.14369C7.13233 8.14369 5.42856 10.8932 5.42856 12.6558C5.42856 13.1493 5.78106 13.5723 6.19232 13.5723C6.60357 13.5723 6.95608 13.1493 6.95608 12.6558C6.95608 11.8097 8.01359 9.97672 9.18861 9.97672C9.59986 9.97672 9.95237 9.55371 9.95237 9.06021C9.95237 8.5667 9.59986 8.14369 9.18861 8.14369Z" fill="white"/>
<path d="M36.4386 7.45734H34.0757C33.2052 7.45734 32.5212 8.17065 32.5212 9.0785H30.9666C30.9666 8.17065 30.2826 7.45734 29.4121 7.45734H28.6037C27.7332 7.45734 27.0492 8.17065 27.0492 9.0785H26.1786C26.1786 8.17065 25.4946 7.45734 24.6241 7.45734H19.9604C19.3386 6.80887 18.5924 6.2901 17.784 5.83618C21.8259 5.83618 32.5212 5.83618 36.4386 5.83618V7.45734ZM22.199 17.3788H1.61673V16.5358C1.61673 10.6348 6.2182 5.77133 11.9389 5.77133C17.5975 5.77133 22.2612 10.57 22.2612 16.5358V17.3788H22.199ZM23.7535 1.68601H31.6506V4.15017H23.7535V1.68601ZM37.247 4.15017H33.2674V0.843003C33.2674 0.389078 32.8943 -7.07805e-07 32.459 -7.07805e-07H23.0073C22.5721 -7.07805e-07 22.199 0.389078 22.199 0.843003V4.15017H11.8768C5.34765 4.15017 0 9.72696 0 16.5358V18.157C0 18.6109 0.373092 19 0.808366 19H23.0073C23.4426 19 23.8157 18.6109 23.8157 18.157V16.5358C23.8157 13.7474 22.9452 11.1536 21.4528 9.0785H24.6241C24.6241 9.98635 25.3081 10.6997 26.1786 10.6997H26.987C27.8575 10.6997 28.5415 9.98635 28.5415 9.0785H29.3499C29.3499 9.98635 30.0339 10.6997 30.9044 10.6997H32.459C33.3295 10.6997 34.0135 9.98635 34.0135 9.0785H37.1848C37.6201 9.0785 37.9932 8.68942 37.9932 8.23549V4.92833C38.0554 4.53925 37.6823 4.15017 37.247 4.15017Z" fill="white"/>
<path d="M7.04294 20.7227C7.04294 20.2821 6.67039 19.9045 6.23575 19.9045C5.80111 19.9045 5.42856 20.2821 5.42856 20.7227C5.42856 24.2473 8.28477 27.1426 11.7619 27.1426C15.239 27.1426 18.0952 24.2473 18.0952 20.7227C18.0952 20.2821 17.7227 19.9045 17.288 19.9045C16.8534 19.9045 16.4808 20.2821 16.4808 20.7227C16.4808 23.3662 14.3697 25.5061 11.7619 25.5061C9.15405 25.5061 7.04294 23.3662 7.04294 20.7227Z" fill="white"/>
<path d="M14.4762 20.8228C14.4762 20.328 14.1036 19.9039 13.669 19.9039C13.2344 19.9039 12.8618 20.328 12.8618 20.8228C12.8618 21.8124 12.1788 22.5899 11.3095 22.5899C10.4402 22.5899 9.75723 21.8124 9.75723 20.8228C9.75723 20.328 9.38468 19.9039 8.95004 19.9039C8.5154 19.9039 8.14285 20.328 8.14285 20.8228C8.14285 22.802 9.57096 24.4277 11.3095 24.4277C13.0481 24.4277 14.4762 22.802 14.4762 20.8228Z" fill="white"/>
<path d="M0.832919 8.14258C1.14957 8.14258 1.46622 7.96163 1.59287 7.66004C2.41616 5.91083 3.87274 4.64417 6.02595 3.92036C7.67252 3.3775 9.1291 3.3775 9.1291 3.3775C9.5724 3.3775 9.95238 3.01559 9.95238 2.59337C9.95238 2.17115 9.5724 1.80924 9.1291 1.80924C9.06577 1.80924 7.4192 1.80924 5.51931 2.41242C2.9228 3.25686 1.02291 4.82512 0.072964 6.99655C-0.180354 7.59972 0.262953 8.14258 0.832919 8.14258Z" fill="white"/>
<path d="M30.3095 21.131C29.8928 21.131 29.5357 20.7739 29.5357 20.3572C29.5357 19.9406 29.8928 19.5834 30.3095 19.5834C30.7262 19.5834 31.0833 19.9406 31.0833 20.3572C31.0833 20.7739 30.7262 21.131 30.3095 21.131ZM30.3095 18.0953C29.0595 18.0953 28.0476 19.1072 28.0476 20.3572C28.0476 21.6072 29.0595 22.6191 30.3095 22.6191C31.5595 22.6191 32.5714 21.6072 32.5714 20.3572C32.5714 19.1072 31.5595 18.0953 30.3095 18.0953Z" fill="white"/>
<path d="M21.2619 34.6438C20.8452 34.6438 20.4881 34.2866 20.4881 33.87C20.4881 33.4533 20.8452 33.0962 21.2619 33.0962C21.6786 33.0962 22.0357 33.4533 22.0357 33.87C22.0357 34.3462 21.6786 34.6438 21.2619 34.6438ZM21.2619 31.6676C20.0119 31.6676 19 32.6795 19 33.9295C19 35.1795 20.0119 36.1914 21.2619 36.1914C22.5119 36.1914 23.5238 35.1795 23.5238 33.9295C23.5238 32.6795 22.5119 31.6676 21.2619 31.6676Z" fill="white"/>
<path d="M28.9524 27.1436H30.7619V28.9531H28.9524V27.1436Z" fill="white"/>
<path d="M28.9524 30.7627H30.7619V32.5723H28.9524V30.7627Z" fill="white"/>
<path d="M30.7619 28.9522H32.5714V30.7617H30.7619V28.9522Z" fill="white"/>
<path d="M27.1429 28.9522H28.9524V30.7617H27.1429V28.9522Z" fill="white"/>
<path d="M1.80951 32.5713H3.61903V34.3809H1.80951V32.5713Z" fill="white"/>
<path d="M1.80951 36.1905H3.61903V38H1.80951V36.1905Z" fill="white"/>
<path d="M3.61905 34.3819H5.42857V36.1914H3.61905V34.3819Z" fill="white"/>
<path d="M0 34.3819H1.80952V36.1914H0V34.3819Z" fill="white"/>
</svg>
