<svg width="32" height="32" viewBox="0 0 32 32" fill="none" xmlns="http://www.w3.org/2000/svg">
<path d="M30.5925 3.98036H24.6512C24.547 3.98036 24.4427 4.03273 24.3385 4.0851L19.8565 6.65139H12.6644V5.34206C13.1855 5.34206 18.5014 5.34206 19.9607 5.34206C20.0649 5.34206 20.1692 5.28969 20.2734 5.23731L24.7554 2.67103H30.5404L30.5925 3.98036ZM17.3027 9.32243H14.6969V8.0131H17.3027V9.32243ZM21.3157 13.3028H10.6839C10.6839 12.3601 10.6839 11.5745 10.6839 10.6318C11.7784 10.6318 20.2213 10.6318 21.3157 10.6318C21.3157 11.5745 21.3157 12.3601 21.3157 13.3028ZM25.2766 12.6219C25.2766 13.5647 25.2766 20.9493 25.2766 21.9444H22.6187V12.6219H25.2766ZM30.5925 15.293V19.2733H26.6316V15.293H30.5925ZM21.3157 23.9869H10.6839C10.6839 23.0442 10.6839 22.2586 10.6839 21.3159H21.3157C21.3157 22.2586 21.3157 23.0442 21.3157 23.9869ZM6.72306 21.9968C6.72306 20.4779 6.72306 16.8642 6.72306 12.6743H9.38101V21.9968H6.72306ZM1.40715 19.3257V15.3453H5.36802V19.3257H1.40715ZM21.3157 19.9542H10.6839V14.6645H21.3157V19.9542ZM14.6969 2.88052C14.6969 2.7234 14.8011 2.61865 14.9575 2.61865H17.0943C17.2506 2.61865 17.3549 2.7234 17.3549 2.88052V3.92798H14.6969V2.88052ZM31.9475 4.60884V1.9378C31.9475 1.57119 31.6348 1.25695 31.27 1.25695H24.6512C24.547 1.25695 24.4427 1.30932 24.3385 1.36169L19.8565 3.92798H18.7099V2.88052C18.7099 1.99017 17.9803 1.25695 17.0943 1.25695H14.9575C14.0715 1.25695 13.3419 1.99017 13.3419 2.88052V3.92798H12.039C11.6741 3.92798 11.3614 4.24222 11.3614 4.60884V7.27987C11.3614 7.64648 11.6741 7.96072 12.039 7.96072H13.3419V9.27005H10.0064C9.64159 9.27005 9.32889 9.58429 9.32889 9.95091V11.2602H5.99342C5.6286 11.2602 5.3159 11.5745 5.3159 11.9411V13.9313H0.677517C0.3127 13.9313 0 14.2455 0 14.6121V19.9542C0 20.3208 0.3127 20.635 0.677517 20.635H5.3159V22.6252C5.3159 22.9918 5.6286 23.3061 5.99342 23.3061H9.32889V24.6154C9.32889 24.982 9.64159 25.2963 10.0064 25.2963H21.9933C22.3581 25.2963 22.6708 24.982 22.6708 24.6154V23.3061H26.0062C26.3711 23.3061 26.6838 22.9918 26.6838 22.6252V20.635H31.3221C31.687 20.635 31.9997 20.3208 31.9997 19.9542V14.6645C31.9997 14.2979 31.687 13.9836 31.3221 13.9836H26.6838V11.9935C26.6838 11.6268 26.3711 11.3126 26.0062 11.3126H22.6708V9.95091C22.6708 9.58429 22.3581 9.27005 21.9933 9.27005H18.6578V7.96072H19.9607C20.0649 7.96072 20.1692 7.90835 20.2734 7.85598L24.7554 5.28969H31.2179C31.6348 5.28969 31.9475 4.97545 31.9475 4.60884Z" fill="#0F0D0D"/>
<path d="M12.6648 16.6545H13.9677V17.9639H12.6648V16.6545Z" fill="#0F0D0D"/>
<path d="M15.3223 16.6545H16.6252V17.9639H15.3223V16.6545Z" fill="#0F0D0D"/>
<path d="M17.9805 16.6545H19.2834V17.9639H17.9805V16.6545Z" fill="#0F0D0D"/>
<path d="M6.88064 30.1669C6.72429 29.8527 6.67217 29.5385 6.82852 29.2242L7.71451 27.4435L8.60049 29.2242C8.75684 29.5385 8.75684 29.9051 8.54838 30.1669C8.39203 30.4812 8.07932 30.6383 7.71451 30.6383C7.34969 30.6383 7.08911 30.4812 6.88064 30.1669ZM31.2713 30.6383H9.79918C10.1119 30.0098 10.1119 29.2766 9.79918 28.5957L8.28779 25.6628C8.18356 25.4533 7.92297 25.2962 7.71451 25.2962C7.45392 25.2962 7.24546 25.4533 7.14122 25.6628L5.68196 28.5957C5.36926 29.2242 5.36926 29.9574 5.68196 30.6383H0.782986C0.418169 30.6383 0.105469 30.9525 0.105469 31.3191C0.105469 31.6858 0.418169 32 0.782986 32H31.3234C31.6882 32 32.0009 31.6858 32.0009 31.3191C31.9488 30.9525 31.6361 30.6383 31.2713 30.6383Z" fill="#0F0D0D"/>
<path d="M24.6511 27.3388C24.6511 26.9722 24.9638 26.6579 25.3286 26.6579C25.6934 26.6579 26.0061 26.9722 26.0061 27.3388C26.0061 27.7054 25.6934 28.0196 25.3286 28.0196C24.9116 27.9673 24.6511 27.7054 24.6511 27.3388ZM27.309 27.3388C27.309 26.239 26.423 25.3486 25.3286 25.3486C24.2341 25.3486 23.3481 26.239 23.3481 27.3388C23.3481 28.4386 24.2341 29.329 25.3286 29.329C26.3709 29.329 27.309 28.4386 27.309 27.3388Z" fill="#0F0D0D"/>
<path d="M4.06527 1.30943C4.43009 1.30943 4.74279 1.62367 4.74279 1.99029C4.74279 2.3569 4.43009 2.67114 4.06527 2.67114C3.70045 2.67114 3.38775 2.3569 3.38775 1.99029C3.38775 1.5713 3.70045 1.30943 4.06527 1.30943ZM4.06527 3.98047C5.15972 3.98047 6.04571 3.09012 6.04571 1.99029C6.04571 0.890448 5.15972 0.000102669 4.06527 0.000102669C2.97082 0.000102669 2.08484 0.890448 2.08484 1.99029C2.03272 3.03775 2.97082 3.98047 4.06527 3.98047Z" fill="#0F0D0D"/>
<path d="M4.06494 5.28967H5.36786V6.599H4.06494V5.28967Z" fill="#0F0D0D"/>
<path d="M4.06494 7.96057H5.36786V9.2699H4.06494V7.96057Z" fill="#0F0D0D"/>
<path d="M5.36768 6.65136H6.67059V7.96069H5.36768V6.65136Z" fill="#0F0D0D"/>
<path d="M2.71021 6.65136H4.01312V7.96069H2.71021V6.65136Z" fill="#0F0D0D"/>
<path d="M27.9351 7.27978H29.238V8.58911H27.9351V7.27978Z" fill="#0F0D0D"/>
<path d="M27.9351 9.95105H29.238V11.2604H27.9351V9.95105Z" fill="#0F0D0D"/>
<path d="M29.2898 8.6416H30.5927V9.95093H29.2898V8.6416Z" fill="#0F0D0D"/>
<path d="M26.6323 8.6416H27.9352V9.95093H26.6323V8.6416Z" fill="#0F0D0D"/>
</svg>
