<svg width="45" height="44" viewBox="0 0 45 44" fill="none" xmlns="http://www.w3.org/2000/svg">
<path d="M25.6995 31.8065C26.0677 31.2923 25.8468 30.5577 25.2577 30.3373C25.2577 30.3373 24.3741 29.9701 23.785 29.3824C25.8468 28.5009 27.0986 26.8115 27.0986 24.5343C27.0986 24.0201 26.6568 23.5794 26.1413 23.5794C25.6259 23.5794 25.1841 24.0201 25.1841 24.5343C25.1841 25.7096 24.7422 26.5911 23.785 27.2522C22.975 27.7664 22.165 27.9133 22.165 27.9133C21.5759 27.9868 21.2077 28.6479 21.4286 29.162C21.7968 30.2639 22.6804 30.9984 23.4168 31.4392C21.5759 32.9083 19.4404 32.1737 19.3668 32.1003C18.8513 31.8799 18.3359 32.1737 18.115 32.6879C17.7468 33.7163 17.894 34.5978 18.1886 35.3323C17.1577 35.4792 16.274 35.3323 15.6113 34.8916C14.9486 34.5243 14.5804 33.9367 14.5804 33.8632C14.2859 33.349 13.5495 33.2021 13.1077 33.6429C12.224 34.5243 11.7822 35.3323 11.5613 35.9934C9.42584 34.7447 9.49948 32.9817 9.49948 32.8348C9.57311 32.3206 9.20493 31.8799 8.68948 31.8065C7.51129 31.5861 6.55402 32.2472 5.89129 32.9083C4.7131 30.5577 5.74401 28.9417 5.81765 28.7948C6.1122 28.4275 6.03856 27.8398 5.67038 27.546C4.93401 26.8849 3.9031 26.8115 3.0931 26.9584L3.46128 24.9751C3.53492 24.4609 3.24037 23.9467 2.72491 23.8732C2.20946 23.7998 1.694 24.0936 1.62037 24.6078L0.883999 28.0602C0.810363 28.4275 0.957636 28.7948 1.25218 29.0151C1.54673 29.2355 1.91491 29.309 2.20946 29.162C2.504 29.0151 3.16673 28.7948 3.68219 28.7948C3.24037 30.0435 2.94582 32.3206 4.93401 35.112C5.30219 35.6262 6.1122 35.6262 6.48038 35.0385C6.70129 34.7447 7.14311 34.157 7.58493 33.8632C7.87947 35.3323 8.98402 37.3156 11.9295 38.344C12.2977 38.4909 12.6658 38.4175 12.9604 38.1237C13.1813 37.8298 13.3286 37.536 13.1813 37.1687C13.1813 37.0953 13.1077 36.5076 13.5495 35.7731C14.8749 37.0218 17.0104 37.6095 19.6613 36.8015C20.3241 36.5811 20.545 35.8465 20.1768 35.3323C20.1768 35.3323 19.8086 34.7447 19.735 34.0836C21.5022 34.3774 23.9322 34.0836 25.6995 31.8065Z" fill="white"/>
<path d="M11.2655 9.40225C8.68819 9.40225 6.55273 12.267 6.55273 14.1034C6.55273 14.6176 6.99455 15.0583 7.51001 15.0583C8.02547 15.0583 8.46729 14.6176 8.46729 14.1034C8.46729 13.222 9.79274 11.3121 11.2655 11.3121C11.7809 11.3121 12.2228 10.8714 12.2228 10.3572C12.2228 9.84299 11.7809 9.40225 11.2655 9.40225Z" fill="white"/>
<path d="M43.151 8.44732H40.3528C39.3219 8.44732 38.5119 9.25534 38.5119 10.2837H36.671C36.671 9.25534 35.861 8.44732 34.8301 8.44732H33.8728C32.8419 8.44732 32.0319 9.25534 32.0319 10.2837H31.001C31.001 9.25534 30.191 8.44732 29.1601 8.44732H23.6373C22.901 7.71277 22.0173 7.12512 21.0601 6.61093C25.8464 6.61093 38.5119 6.61093 43.151 6.61093V8.44732ZM26.2883 19.6861H1.91455V18.7311C1.91455 12.0467 7.36366 6.53747 14.1382 6.53747C20.8391 6.53747 26.3619 11.9732 26.3619 18.7311V19.6861H26.2883ZM28.1292 1.90976H37.481V4.70108H28.1292V1.90976ZM44.1083 4.70108H39.3956V0.95483C39.3956 0.440639 38.9537 -9.53674e-05 38.4383 -9.53674e-05H27.2455C26.7301 -9.53674e-05 26.2883 0.440639 26.2883 0.95483V4.70108H14.0646C6.33275 4.70108 0 11.0183 0 18.7311V20.5675C0 21.0817 0.441819 21.5225 0.957275 21.5225H27.2455C27.761 21.5225 28.2028 21.0817 28.2028 20.5675V18.7311C28.2028 15.5725 27.1719 12.6343 25.4046 10.2837H29.1601C29.1601 11.3121 29.9701 12.1201 31.001 12.1201H31.9583C32.9892 12.1201 33.7992 11.3121 33.7992 10.2837H34.7565C34.7565 11.3121 35.5665 12.1201 36.5974 12.1201H38.4383C39.4692 12.1201 40.2792 11.3121 40.2792 10.2837H44.0347C44.5501 10.2837 44.9919 9.84299 44.9919 9.32879V5.58255C45.0656 5.14181 44.6238 4.70108 44.1083 4.70108Z" fill="white"/>
<path d="M8.46729 24.3874C8.46729 23.8732 8.02547 23.4325 7.51001 23.4325C6.99455 23.4325 6.55273 23.8732 6.55273 24.3874C6.55273 28.5009 9.94002 31.8799 14.0637 31.8799C18.1873 31.8799 21.5746 28.5009 21.5746 24.3874C21.5746 23.8732 21.1328 23.4325 20.6173 23.4325C20.1019 23.4325 19.66 23.8732 19.66 24.3874C19.66 27.4725 17.1564 29.97 14.0637 29.97C10.9709 29.97 8.46729 27.4725 8.46729 24.3874Z" fill="white"/>
<path d="M17.8215 24.3873C17.8215 23.8731 17.3797 23.4324 16.8642 23.4324C16.3487 23.4324 15.9069 23.8731 15.9069 24.3873C15.9069 25.4157 15.0969 26.2237 14.066 26.2237C13.0351 26.2237 12.2251 25.4157 12.2251 24.3873C12.2251 23.8731 11.7833 23.4324 11.2678 23.4324C10.7524 23.4324 10.3105 23.8731 10.3105 24.3873C10.3105 26.4441 12.0042 28.1335 14.066 28.1335C16.1278 28.1335 17.8215 26.4441 17.8215 24.3873Z" fill="white"/>
<path d="M1.91379 9.54932C2.28197 9.54932 2.65016 9.32895 2.79743 8.96167C3.7547 6.83145 5.44835 5.28888 7.95199 4.40741C9.86654 3.74631 11.5602 3.74631 11.5602 3.74631C12.0756 3.74631 12.5175 3.30557 12.5175 2.79138C12.5175 2.27719 12.0756 1.83645 11.5602 1.83645C11.4865 1.83645 9.57199 1.83645 7.3629 2.57101C4.3438 3.59939 2.1347 5.50925 1.03015 8.15366C0.735605 8.88821 1.25106 9.54932 1.91379 9.54932Z" fill="white"/>
<path d="M36.597 24.3872C36.0816 24.3872 35.6397 23.9465 35.6397 23.4323C35.6397 22.9181 36.0816 22.4774 36.597 22.4774C37.1125 22.4774 37.5543 22.9181 37.5543 23.4323C37.5543 23.9465 37.1125 24.3872 36.597 24.3872ZM36.597 20.641C35.0506 20.641 33.7988 21.8897 33.7988 23.4323C33.7988 24.9749 35.0506 26.2236 36.597 26.2236C38.1434 26.2236 39.3952 24.9749 39.3952 23.4323C39.3952 21.8897 38.1434 20.641 36.597 20.641Z" fill="white"/>
<path d="M25.3314 40.2537C24.8159 40.2537 24.3741 39.813 24.3741 39.2988C24.3741 38.7846 24.8159 38.3439 25.3314 38.3439C25.8468 38.3439 26.2887 38.7846 26.2887 39.2988C26.2887 39.8864 25.8468 40.2537 25.3314 40.2537ZM25.3314 36.5809C23.785 36.5809 22.5332 37.8297 22.5332 39.3723C22.5332 40.9148 23.785 42.1636 25.3314 42.1636C26.8778 42.1636 28.1296 40.9148 28.1296 39.3723C28.1296 37.8297 26.8778 36.5809 25.3314 36.5809Z" fill="white"/>
<path d="M34.7578 31.8799H36.5987V33.7163H34.7578V31.8799Z" fill="white"/>
<path d="M34.7578 35.626H36.5987V37.4624H34.7578V35.626Z" fill="white"/>
<path d="M36.5977 33.7163H38.4386V35.5527H36.5977V33.7163Z" fill="white"/>
<path d="M32.8418 33.7163H34.6827V35.5527H32.8418V33.7163Z" fill="white"/>
<path d="M2.80078 38.4175H4.6417V40.2539H2.80078V38.4175Z" fill="white"/>
<path d="M2.80078 42.1636H4.6417V44H2.80078V42.1636Z" fill="white"/>
<path d="M4.71289 40.2539H6.5538V42.0903H4.71289V40.2539Z" fill="white"/>
<path d="M0.957031 40.2539H2.79795V42.0903H0.957031V40.2539Z" fill="white"/>
</svg>
