<svg width="44" height="44" viewBox="0 0 44 44" fill="none" xmlns="http://www.w3.org/2000/svg">
<path d="M12.8633 18.6514L7.39557 21.3879V17.9312L12.8633 15.1947V18.6514ZM12.8633 24.1244L7.39557 26.8609V23.4042L12.8633 20.6677V24.1244ZM12.8633 29.6694L7.32363 32.4059V28.9492L12.7913 26.2127V29.6694H12.8633ZM12.8633 35.1424L7.68335 37.7348L7.39557 37.2308V34.4222L12.8633 31.6857V35.1424ZM12.8633 37.3028L10.1294 41.4075L8.69055 39.3191L12.8633 37.2308V37.3028ZM7.32363 11.8821H12.7913V13.1784L7.32363 15.9149V11.8821ZM17.6835 1.8003L13.151 10.0818H6.89197L4.37395 5.47297H12.7194C13.223 5.47297 13.6546 5.04089 13.6546 4.5368C13.6546 4.03271 13.223 3.60063 12.7194 3.60063C3.00703 3.60063 3.51063 3.60063 3.36675 3.60063L2.35954 1.72829H17.6835V1.8003ZM15.9568 13.6105C16.3885 13.3944 16.6043 12.8183 16.3885 12.3862C16.1727 11.9542 15.5971 11.7381 15.1655 11.9542L14.6619 12.2422V11.234L20.0576 1.36822C20.4173 0.792118 19.9137 -2.67029e-05 19.2662 -2.67029e-05H0.920673C0.201239 -2.67029e-05 -0.230421 0.720104 0.129296 1.36822L5.52505 11.234V16.851L4.23007 17.4992C3.79841 17.7152 3.58258 18.2913 3.79841 18.7234C4.01424 19.1555 4.58978 19.3715 5.02144 19.1555L5.52505 18.8674V22.324L4.23007 22.9722C3.79841 23.1882 3.58258 23.7643 3.79841 24.1964C4.01424 24.6285 4.58978 24.8445 5.02144 24.6285L5.52505 24.3404V27.797L4.23007 28.4452C3.79841 28.6612 3.58258 29.2373 3.79841 29.6694C4.01424 30.1015 4.58978 30.3175 5.02144 30.1015L5.52505 29.8134V33.27L4.23007 33.9182C3.79841 34.1342 3.58258 34.7103 3.79841 35.1424C4.01424 35.5745 4.58978 35.7905 5.02144 35.5745L5.52505 35.2864V37.4468C5.52505 37.6628 5.59699 37.8069 5.66893 37.9509L6.02865 38.455L4.23007 39.3912C3.79841 39.6072 3.58258 40.1833 3.79841 40.6154C4.01424 41.0475 4.58978 41.2635 5.02144 41.0475L7.03586 40.0393L9.33804 43.4959C9.69776 44.072 10.4891 44.072 10.8489 43.4959L14.518 38.0229C14.5899 37.8789 14.6619 37.6628 14.6619 37.5188V36.2226L15.9568 35.5745C16.3885 35.3584 16.6043 34.7823 16.3885 34.3502C16.1727 33.9182 15.5971 33.7021 15.1655 33.9182L14.6619 34.2062V30.7496L15.9568 30.1015C16.3885 29.8854 16.6043 29.3093 16.3885 28.8772C16.1727 28.4452 15.5971 28.2291 15.1655 28.4452L14.6619 28.7332V25.2766L15.9568 24.6285C16.3885 24.4124 16.6043 23.8363 16.3885 23.4042C16.1727 22.9722 15.5971 22.7561 15.1655 22.9722L14.6619 23.2602V19.8036L15.9568 19.1555C16.3885 18.9394 16.6043 18.3633 16.3885 17.9312C16.1727 17.4992 15.5971 17.2831 15.1655 17.4992L14.6619 17.7872V14.3306L15.9568 13.6105Z" fill="white"/>
<path d="M26.3163 42.1277L27.3236 40.2553C27.5394 40.3273 26.8919 40.2553 36.6762 40.2553C37.1798 40.2553 37.6115 39.8232 37.6115 39.3191C37.6115 38.8151 37.1798 38.383 36.6762 38.383H28.3308L30.8488 33.7741H37.1078L41.6403 42.0556L26.3163 42.1277ZM36.6762 30.8216V32.1178H31.2085V28.0851L36.6762 30.8216ZM31.1365 22.5401L36.6042 25.2766V28.7332L31.1365 25.9967V22.5401ZM31.1365 16.9951L36.6042 19.7316V23.1882L31.1365 20.4517V16.9951ZM31.1365 11.5221L36.6042 14.2586V17.7152L31.1365 14.9787V11.5221ZM31.1365 6.62519L31.4243 6.1211L36.6042 8.71357V12.2422L31.1365 9.50571V6.62519ZM33.9423 2.52044L36.6762 6.62519V6.6972L32.5035 4.60882L33.9423 2.52044ZM43.8705 42.6318L38.4748 32.766V31.6858L38.9784 31.9738C39.41 32.1898 39.9856 32.0458 40.2014 31.5417C40.4172 31.1097 40.2734 30.5335 39.7698 30.3175L38.4748 29.6694V26.2128L38.9784 26.5008C39.41 26.7169 39.9856 26.5728 40.2014 26.0687C40.4172 25.6367 40.2734 25.0605 39.7698 24.8445L38.4748 24.1964V20.7398L38.9784 21.0278C39.41 21.2439 39.9856 21.0998 40.2014 20.5957C40.4172 20.1637 40.2734 19.5876 39.7698 19.3715L38.4748 18.7234V15.2668L38.9784 15.5548C39.41 15.7709 39.9856 15.6268 40.2014 15.1227C40.4172 14.6907 40.2734 14.1146 39.7698 13.8985L38.4748 13.2504V9.79377L38.9784 10.0818C39.41 10.2979 39.9856 10.1538 40.2014 9.64974C40.4172 9.21766 40.2734 8.64156 39.7698 8.42552L38.4748 7.7774V6.48116C38.4748 6.26512 38.4028 6.1211 38.3309 5.97707L34.6618 0.504074C34.3021 -0.0720329 33.5107 -0.0720329 33.151 0.504074L30.8488 3.9607L28.8344 2.80849C28.4027 2.59245 27.8272 2.73648 27.6113 3.24057C27.3955 3.67265 27.5394 4.24876 28.043 4.46479L29.8416 5.40097L29.4819 5.90506C29.4099 6.04908 29.338 6.26512 29.338 6.40915V8.56954L28.8344 8.28149C28.4027 8.06545 27.8272 8.20948 27.6113 8.71357C27.3955 9.14565 27.5394 9.72175 28.043 9.93779L29.338 10.5859V14.0425L28.8344 13.8265C28.4027 13.6105 27.8272 13.7545 27.6113 14.2586C27.3955 14.6907 27.5394 15.2668 28.043 15.4828L29.338 16.1309V19.5876L28.8344 19.2995C28.4027 19.0835 27.8272 19.2275 27.6113 19.7316C27.3955 20.1637 27.5394 20.7398 28.043 20.9558L29.338 21.6039V25.0605L28.8344 24.8445C28.4027 24.6285 27.8272 24.7725 27.6113 25.2766C27.3955 25.7087 27.5394 26.2848 28.043 26.5008L29.338 27.1489V32.766L23.9422 42.6318C23.5825 43.2079 24.0861 44 24.7336 44H43.0791C43.7986 44 44.2302 43.2079 43.8705 42.6318Z" fill="white"/>
<path d="M21.0639 17.3552C20.5603 17.3552 20.1287 16.9231 20.1287 16.419C20.1287 15.9149 20.5603 15.4828 21.0639 15.4828C21.5675 15.4828 21.9992 15.9149 21.9992 16.419C21.9992 16.9231 21.5675 17.3552 21.0639 17.3552ZM21.0639 13.6825C19.5531 13.6825 18.3301 14.9067 18.3301 16.419C18.3301 17.9313 19.5531 19.1555 21.0639 19.1555C22.5747 19.1555 23.7978 17.9313 23.7978 16.419C23.7978 14.9067 22.5747 13.6825 21.0639 13.6825Z" fill="white"/>
<path d="M21.0639 38.455C20.5603 38.455 20.1287 38.023 20.1287 37.5189C20.1287 37.0148 20.5603 36.5827 21.0639 36.5827C21.5675 36.5827 21.9992 37.0148 21.9992 37.5189C21.9992 38.095 21.5675 38.455 21.0639 38.455ZM21.0639 34.7824C19.5531 34.7824 18.3301 36.0066 18.3301 37.5189C18.3301 39.0311 19.5531 40.2554 21.0639 40.2554C22.5747 40.2554 23.7978 39.0311 23.7978 37.5189C23.7978 36.0786 22.5747 34.7824 21.0639 34.7824Z" fill="white"/>
<path d="M20.2012 23.7644H21.9998V25.5647H20.2012V23.7644Z" fill="white"/>
<path d="M20.2012 27.4371H21.9998V29.2374H20.2012V27.4371Z" fill="white"/>
<path d="M22 25.6367H23.7986V27.437H22V25.6367Z" fill="white"/>
<path d="M18.3301 25.6367H20.1287V27.437H18.3301V25.6367Z" fill="white"/>
<path d="M22.9355 5.47299H24.7341V7.27332H22.9355V5.47299Z" fill="white"/>
<path d="M22.9355 9.14572H24.7341V10.946H22.9355V9.14572Z" fill="white"/>
<path d="M24.7344 7.2734H26.533V9.07373H24.7344V7.2734Z" fill="white"/>
<path d="M21.0664 7.2734H22.865V9.07373H21.0664V7.2734Z" fill="white"/>
</svg>
