<svg width="29" height="29" viewBox="0 0 29 29" fill="none" xmlns="http://www.w3.org/2000/svg">
<path d="M12.0945 10.5458L12.6691 9.55459L13.6604 10.1297L13.0857 11.1205L12.0945 10.5458Z" fill="#0F0D0D"/>
<path d="M15.7193 11.3024L14.7111 10.7066L14.1154 11.7148L15.1235 12.3105L15.7193 11.3024Z" fill="#0F0D0D"/>
<path d="M16.1653 12.9168L16.7404 11.9256L17.7312 12.5007L17.1565 13.4915L16.1653 12.9168Z" fill="#0F0D0D"/>
<path d="M9.4406 19.8262L9.94469 20.1011L10.4488 20.3761L8.70738 23.4006C8.70738 23.4006 7.97415 22.9424 7.69919 22.8049L9.4406 19.8262ZM8.11163 24.4547L8.61572 24.7296C8.89068 24.9129 9.25729 24.7754 9.39477 24.5005L11.7319 20.4677C11.9152 20.1928 11.7778 19.8262 11.5028 19.6887L11.0445 19.3679L13.9774 14.327C14.1607 14.052 14.0233 13.6854 13.7483 13.5479C13.4733 13.3646 13.1067 13.5021 12.9692 13.7771L10.0363 18.818L9.53225 18.543C9.25729 18.3597 8.89068 18.4972 8.7532 18.7722L6.41605 22.8049C6.23274 23.0799 6.37022 23.4465 6.64518 23.5839L7.14927 23.8589L5.91196 25.8753C5.72865 26.1502 5.86613 26.5168 6.14109 26.6543C6.41605 26.8376 6.78266 26.7002 6.92014 26.4252L8.11163 24.4547Z" fill="#0F0D0D"/>
<path d="M5.8658 27.1584C4.76596 26.5168 4.35352 25.0962 4.9951 23.9505L11.9149 12.0356C12.0524 11.8523 12.0066 11.5773 11.8691 11.394C10.9525 10.2484 10.7692 8.69028 11.3192 7.36131C12.5565 8.0487 19.5221 12.1273 20.347 12.5855C19.4763 13.7312 18.0098 14.3269 16.5434 14.0978C16.3143 14.052 16.0851 14.1895 15.9476 14.3728L9.02783 26.3335C8.38626 27.4333 6.96564 27.8458 5.8658 27.1584ZM14.6187 5.66572L13.6105 7.36131C12.8314 6.90304 12.419 6.67391 11.9149 6.35312C12.2357 6.03234 13.6105 5.34494 14.6187 5.66572ZM20.2095 5.84903C21.7676 7.08635 22.2259 9.33185 21.2177 11.1191L20.9427 11.6232L17.9182 9.88177L20.2095 5.84903ZM27.4501 27.4792H9.62358C9.76106 27.2959 9.89854 27.1126 10.036 26.8834L16.7725 15.3351C18.7431 15.4726 20.6678 14.4644 21.676 12.723L22.2717 11.7148C23.7382 9.19437 22.8675 5.98651 20.347 4.52006C20.072 4.33675 19.7054 4.47423 19.5679 4.74919L16.91 9.28602L14.6187 7.95705L15.9476 5.66572C16.1309 5.39076 15.9935 5.02415 15.7185 4.88667C13.8854 3.83266 11.5941 4.42841 10.5401 6.26147C9.53193 8.00288 9.62358 10.1567 10.7234 11.8065L3.98691 23.4006C3.20786 24.7296 3.43699 26.3793 4.39935 27.4792H0.595745C0.274959 27.4792 0 27.7541 0 28.0749C0 28.3957 0.274959 28.6707 0.595745 28.6707C0.916531 28.6707 26.9002 28.6707 27.4501 28.6707C27.7709 28.6707 28.0459 28.3957 28.0459 28.0749C28.0459 27.7541 27.7709 27.4792 27.4501 27.4792Z" fill="#0F0D0D"/>
<path d="M5.86616 1.81641C6.18694 1.81641 6.4619 2.09137 6.4619 2.41216C6.4619 2.73294 6.18694 3.0079 5.86616 3.0079C5.54537 3.0079 5.27041 2.73294 5.27041 2.41216C5.27041 2.04554 5.54537 1.81641 5.86616 1.81641ZM5.86616 4.15356C6.82851 4.15356 7.60757 3.37451 7.60757 2.41216C7.60757 1.4498 6.82851 0.670746 5.86616 0.670746C4.9038 0.670746 4.12475 1.4498 4.12475 2.41216C4.07892 3.32869 4.9038 4.15356 5.86616 4.15356Z" fill="#0F0D0D"/>
<path d="M25.7091 17.5807C26.0298 17.5807 26.3048 17.8557 26.3048 18.1764C26.3048 18.4972 26.0298 18.7722 25.7091 18.7722C25.3883 18.7722 25.1133 18.4972 25.1133 18.1764C25.1133 17.8098 25.3883 17.5807 25.7091 17.5807ZM25.7091 19.9178C26.6714 19.9178 27.4505 19.1388 27.4505 18.1764C27.4505 17.2141 26.6714 16.435 25.7091 16.435C24.7467 16.435 23.9677 17.2141 23.9677 18.1764C23.9677 19.1388 24.7467 19.9178 25.7091 19.9178Z" fill="#0F0D0D"/>
<path d="M19.2928 24.592C19.2928 24.9128 19.0179 25.1877 18.6971 25.1877C18.3763 25.1877 18.1014 24.9128 18.1014 24.592C18.1014 24.2712 18.3763 23.9962 18.6971 23.9962C19.0179 23.9962 19.2928 24.2712 19.2928 24.592ZM16.9557 24.592C16.9557 25.5543 17.7347 26.3334 18.6971 26.3334C19.6595 26.3334 20.4385 25.5543 20.4385 24.592C20.4385 23.6296 19.6595 22.8506 18.6971 22.8506C17.7347 22.8047 16.9557 23.6296 16.9557 24.592Z" fill="#0F0D0D"/>
<path d="M2.93262 9.37777H4.07828V10.5234H2.93262V9.37777Z" fill="#0F0D0D"/>
<path d="M2.93262 11.7147H4.07828V12.8604H2.93262V11.7147Z" fill="#0F0D0D"/>
<path d="M4.07849 10.5691H5.22416V11.7147H4.07849V10.5691Z" fill="#0F0D0D"/>
<path d="M1.74231 10.5691H2.88797V11.7147H1.74231V10.5691Z" fill="#0F0D0D"/>
<path d="M19.843 16.9848H20.9887V18.1305H19.843V16.9848Z" fill="#0F0D0D"/>
<path d="M19.843 19.3221H20.9887V20.4678H19.843V19.3221Z" fill="#0F0D0D"/>
<path d="M21.035 18.1305H22.1807V19.2761H21.035V18.1305Z" fill="#0F0D0D"/>
<path d="M18.6971 18.1305H19.8428V19.2761H18.6971V18.1305Z" fill="#0F0D0D"/>
<path d="M25.1135 1.22055H26.2592V2.36621H25.1135V1.22055Z" fill="#0F0D0D"/>
<path d="M25.1135 3.55771H26.2592V4.70337H25.1135V3.55771Z" fill="#0F0D0D"/>
<path d="M26.3047 2.36618H27.4504V3.51184H26.3047V2.36618Z" fill="#0F0D0D"/>
<path d="M23.9677 2.36618H25.1133V3.51184H23.9677V2.36618Z" fill="#0F0D0D"/>
</svg>
