<svg width="29" height="29" viewBox="0 0 29 29" fill="none" xmlns="http://www.w3.org/2000/svg">
<path d="M10.658 27.4351L10.4293 25.1018H26.3051L26.5339 27.4351H10.658ZM4.02405 25.1018H6.17438C6.49464 25.1018 6.76915 24.8273 6.76915 24.507C6.76915 24.1867 6.49464 23.9122 6.17438 23.9122H4.29856L6.08287 16.9122C6.17438 16.9122 6.12863 16.9122 7.31817 16.9122C7.63843 16.9122 7.91294 16.6377 7.91294 16.3175C7.91294 15.9972 7.63843 15.7227 7.31817 15.7227H6.35738L7.72993 10.324L8.69072 19.8861H7.31817C6.99791 19.8861 6.7234 20.1606 6.7234 20.4809C6.7234 20.8011 6.99791 21.0756 7.31817 21.0756H8.82797L9.46849 27.4809H3.42928L4.02405 25.1018ZM24.5208 7.62466L24.8868 11.1018H9.01098L8.64497 7.62466H24.5208ZM24.3378 21.0299H25.8933L26.1678 23.958H24.3378V21.0299ZM10.841 15.2194H9.42274L9.14823 12.2913H10.8868V15.2194H10.841ZM9.88026 19.8861L9.51425 16.409H25.3901L25.7561 19.8861H9.88026ZM24.9783 12.2913L25.2528 15.2194H23.6515V12.2913H24.9783ZM22.5077 12.2913V15.2194H20.7691V12.2913H22.5077ZM19.5796 12.2913V15.2194H17.841V12.2913H19.5796ZM16.6515 12.2913V15.2194H14.9129V12.2913H16.6515ZM13.7691 12.2913V15.2194H12.0306V12.2913H13.7691ZM10.292 23.958L10.0175 21.0299H11.9391V23.958H10.292ZM13.0829 23.958V21.0299H14.7299V23.958H13.0829ZM15.8737 23.958V21.0299H17.5208V23.958H15.8737ZM18.7103 23.958V21.0299H20.3574V23.958H18.7103ZM21.5012 23.958V21.0299H23.1482V23.958H21.5012ZM10.841 1.8142C11.1613 1.8142 11.4358 2.08871 11.4358 2.40897C11.4358 2.72923 11.1613 3.00374 10.841 3.00374C10.5208 3.00374 10.2463 2.72923 10.2463 2.40897C10.2463 2.04296 10.5208 1.8142 10.841 1.8142ZM22.5077 1.8142C22.828 1.8142 23.1025 2.08871 23.1025 2.40897C23.1025 2.72923 22.828 3.00374 22.5077 3.00374C22.1874 3.00374 21.9129 2.72923 21.9129 2.40897C21.9129 2.04296 22.1874 1.8142 22.5077 1.8142ZM28.3182 27.4351H27.6776L25.6188 6.98413C25.5731 6.66387 25.3443 6.48087 25.0241 6.48087H23.0567V4.05603C23.743 3.82727 24.2005 3.18675 24.2005 2.40897C24.2005 1.44819 23.4227 0.67041 22.462 0.67041C21.5012 0.67041 20.7234 1.44819 20.7234 2.40897C20.7234 3.18675 21.2267 3.82727 21.8672 4.05603V6.48087H11.4358V4.05603C12.1221 3.82727 12.5796 3.18675 12.5796 2.40897C12.5796 1.44819 11.8018 0.67041 10.841 0.67041C9.88026 0.67041 9.10248 1.44819 9.10248 2.40897C9.10248 3.18675 9.60575 3.82727 10.2463 4.05603V6.48087C9.78876 6.48087 8.05019 6.48087 7.95869 6.48087C7.72993 6.48087 7.50117 6.66387 7.40967 6.89263C7.40967 6.93838 3.15477 23.6835 2.19398 27.4809H1.46196C1.1417 27.4809 0.867188 27.7554 0.867188 28.0756C0.867188 28.3959 1.1417 28.6704 1.46196 28.6704C2.37699 28.6704 26.5339 28.6704 28.2724 28.6704C28.5927 28.6704 28.8672 28.3959 28.8672 28.0756C28.9129 27.7096 28.6384 27.4351 28.3182 27.4351Z" fill="#0F0D0D"/>
<path d="M14.9134 5.29126H19.58C19.9003 5.29126 20.1748 5.01675 20.1748 4.69649C20.1748 4.37623 19.9003 4.10172 19.58 4.10172H14.9134C14.5931 4.10172 14.3186 4.37623 14.3186 4.69649C14.3186 5.01675 14.5931 5.29126 14.9134 5.29126Z" fill="#0F0D0D"/>
<path d="M3.24609 2.95802H4.38988V4.10181H3.24609V2.95802Z" fill="#0F0D0D"/>
<path d="M3.24609 5.29127H4.38988V6.43506H3.24609V5.29127Z" fill="#0F0D0D"/>
<path d="M4.43555 4.14747H5.57934V5.29126H4.43555V4.14747Z" fill="#0F0D0D"/>
<path d="M2.10193 4.14747H3.24572V5.29126H2.10193V4.14747Z" fill="#0F0D0D"/>
</svg>
