<svg width="44" height="44" viewBox="0 0 44 44" fill="none" xmlns="http://www.w3.org/2000/svg">
<path d="M7.33333 42.1338V41.2007H22C22.5033 41.2007 22.9346 40.77 22.9346 40.2675C22.9346 39.7651 22.5033 39.3344 22 39.3344H7.33333V38.4013C9.20261 38.4013 34.5098 38.4013 36.6667 38.4013V42.062L7.33333 42.1338ZM10.9281 33.9511C11 33.9511 26.3856 33.9511 32.9281 33.9511L33.6471 36.6786H10.3529L10.9281 33.9511ZM18.1176 1.93801H24.9477L26.098 6.53181H17.1111L18.1176 1.93801ZM16.6797 8.32626H26.5294L27.6797 12.9201H15.6732L16.6797 8.32626ZM15.2418 14.7145H28.1111L29.2614 19.3083H14.1634L15.2418 14.7145ZM13.8039 21.1028H29.7647L30.915 25.6966H12.7974L13.8039 21.1028ZM12.366 27.491C32.3529 27.491 31.1307 27.491 31.3464 27.491L32.4967 32.0848H11.3595L12.366 27.491ZM43.0654 42.1338H38.4641V37.54C38.4641 37.0375 38.0327 36.6069 37.5294 36.6069H35.5163L26.5294 0.717781C26.4575 0.287113 26.0261 0 25.6667 0H17.3987C16.9673 0 16.6078 0.287113 16.5359 0.717781L8.48366 36.6069H6.47059C5.96732 36.6069 5.53595 37.0375 5.53595 37.54V42.1338H0.934641C0.431373 42.1338 0 42.5644 0 43.0669C0 43.5693 0.431373 44 0.934641 44C2.80392 44 41.5556 44 43.0654 44C43.5686 44 44 43.5693 44 43.0669C44 42.5644 43.5686 42.1338 43.0654 42.1338Z" fill="white"/>
<path d="M4.60312 19.3083C5.10639 19.3083 5.53776 19.739 5.53776 20.2414C5.53776 20.7439 5.10639 21.1745 4.60312 21.1745C4.09985 21.1745 3.66848 20.7439 3.66848 20.2414C3.66848 19.6672 4.09985 19.3083 4.60312 19.3083ZM4.60312 22.969C6.11292 22.969 7.33515 21.7488 7.33515 20.2414C7.33515 18.7341 6.11292 17.5139 4.60312 17.5139C3.09332 17.5139 1.87109 18.7341 1.87109 20.2414C1.87109 21.7488 3.09332 22.969 4.60312 22.969Z" fill="white"/>
<path d="M40.3336 6.45992C40.8369 6.45992 41.2682 6.89059 41.2682 7.39304C41.2682 7.89548 40.8369 8.32615 40.3336 8.32615C39.8303 8.32615 39.3989 7.89548 39.3989 7.39304C39.3989 6.89059 39.8303 6.45992 40.3336 6.45992ZM40.3336 10.1206C41.8434 10.1206 43.0656 8.90038 43.0656 7.39304C43.0656 5.88569 41.8434 4.66547 40.3336 4.66547C38.8238 4.66547 37.6016 5.88569 37.6016 7.39304C37.6016 8.90038 38.8238 10.1206 40.3336 10.1206Z" fill="white"/>
<path d="M38.4648 16.5808H40.2622V18.3752H38.4648V16.5808Z" fill="white"/>
<path d="M38.4648 20.2414H40.2622V22.0359H38.4648V20.2414Z" fill="white"/>
<path d="M40.334 18.3752H42.1314V20.1697H40.334V18.3752Z" fill="white"/>
<path d="M36.668 18.3752H38.4654V20.1697H36.668V18.3752Z" fill="white"/>
<path d="M6.39844 4.66551H8.19582V6.45996H6.39844V4.66551Z" fill="white"/>
<path d="M6.39844 8.32615H8.19582V10.1206H6.39844V8.32615Z" fill="white"/>
<path d="M8.26758 6.45994H10.065V8.25439H8.26758V6.45994Z" fill="white"/>
<path d="M4.60156 6.45994H6.39895V8.25439H4.60156V6.45994Z" fill="white"/>
</svg>
