<svg width="33" height="32" viewBox="0 0 33 32" fill="none" xmlns="http://www.w3.org/2000/svg">
<path d="M18.6905 23.1319C18.9582 22.758 18.7976 22.2237 18.3691 22.0635C18.3691 22.0635 17.7265 21.7964 17.298 21.369C18.7976 20.7279 19.708 19.4992 19.708 17.8431C19.708 17.4691 19.3867 17.1486 19.0118 17.1486C18.6369 17.1486 18.3156 17.4691 18.3156 17.8431C18.3156 18.6979 17.9943 19.3389 17.298 19.8197C16.709 20.1937 16.1199 20.3005 16.1199 20.3005C15.6914 20.354 15.4237 20.8348 15.5843 21.2087C15.8521 22.0101 16.4947 22.5443 17.0303 22.8648C15.6914 23.9333 14.1384 23.399 14.0848 23.3456C13.7099 23.1853 13.3351 23.399 13.1744 23.773C12.9066 24.5209 13.0137 25.162 13.228 25.6962C12.4782 25.803 11.8356 25.6962 11.3536 25.3757C10.8716 25.1086 10.6038 24.6812 10.6038 24.6278C10.3896 24.2538 9.85406 24.1469 9.53274 24.4675C8.89009 25.1086 8.56877 25.6962 8.40811 26.177C6.85505 25.2688 6.9086 23.9867 6.9086 23.8798C6.96215 23.5059 6.69439 23.1853 6.31951 23.1319C5.46265 22.9717 4.76645 23.4525 4.28446 23.9333C3.4276 22.2237 4.17735 21.0484 4.23091 20.9416C4.44512 20.6745 4.39157 20.2471 4.1238 20.0334C3.58826 19.5526 2.83851 19.4992 2.24941 19.606L2.51718 18.1636C2.57074 17.7897 2.35652 17.4157 1.98164 17.3623C1.60677 17.3089 1.23189 17.5226 1.17834 17.8965L0.642798 20.4074C0.589244 20.6745 0.696352 20.9416 0.910567 21.1019C1.12478 21.2621 1.39255 21.3156 1.60677 21.2087C1.82098 21.1019 2.30297 20.9416 2.67784 20.9416C2.35652 21.8498 2.14231 23.5059 3.58826 25.5359C3.85603 25.9099 4.44512 25.9099 4.71289 25.4825C4.87355 25.2688 5.19488 24.8414 5.5162 24.6278C5.73042 25.6962 6.53372 27.1386 8.67588 27.8865C8.94365 27.9934 9.21142 27.9399 9.42563 27.7263C9.58629 27.5126 9.6934 27.2989 9.58629 27.0318C9.58629 26.9783 9.53274 26.551 9.85406 26.0167C10.818 26.9249 12.3711 27.3523 14.299 26.7646C14.781 26.6044 14.9417 26.0702 14.6739 25.6962C14.6739 25.6962 14.4061 25.2688 14.3526 24.788C15.6379 25.0017 17.4052 24.788 18.6905 23.1319Z" fill="#0F0D0D"/>
<path d="M8.19307 6.83801C6.31869 6.83801 4.76562 8.92149 4.76562 10.257C4.76562 10.631 5.08695 10.9515 5.46183 10.9515C5.8367 10.9515 6.15803 10.631 6.15803 10.257C6.15803 9.61598 7.12199 8.22699 8.19307 8.22699C8.56795 8.22699 8.88927 7.90646 8.88927 7.5325C8.88927 7.15855 8.56795 6.83801 8.19307 6.83801Z" fill="#0F0D0D"/>
<path d="M31.3826 6.14352H29.3475C28.5978 6.14352 28.0087 6.73117 28.0087 7.47908H26.6698C26.6698 6.73117 26.0807 6.14352 25.331 6.14352H24.6348C23.885 6.14352 23.2959 6.73117 23.2959 7.47908H22.5462C22.5462 6.73117 21.9571 6.14352 21.2073 6.14352H17.1908C16.6553 5.6093 16.0126 5.18192 15.3164 4.80796C18.7974 4.80796 28.0087 4.80796 31.3826 4.80796V6.14352ZM19.1187 14.3171H1.3924V13.6227C1.3924 8.76122 5.35539 4.75454 10.2823 4.75454C15.1557 4.75454 19.1723 8.7078 19.1723 13.6227V14.3171H19.1187ZM20.4576 1.38892H27.2589V3.41898H20.4576V1.38892ZM32.0788 3.41898H28.6513V0.694433C28.6513 0.320477 28.33 -5.81741e-05 27.9551 -5.81741e-05H19.8149C19.4401 -5.81741e-05 19.1187 0.320477 19.1187 0.694433V3.41898H10.2288C4.60563 3.41898 0 8.0133 0 13.6227V14.9582C0 15.3322 0.321323 15.6527 0.6962 15.6527H19.8149C20.1898 15.6527 20.5111 15.3322 20.5111 14.9582V13.6227C20.5111 11.3255 19.7614 9.1886 18.4761 7.47908H21.2073C21.2073 8.22699 21.7964 8.81464 22.5462 8.81464H23.2424C23.9921 8.81464 24.5812 8.22699 24.5812 7.47908H25.2774C25.2774 8.22699 25.8665 8.81464 26.6163 8.81464H27.9551C28.7049 8.81464 29.294 8.22699 29.294 7.47908H32.0252C32.4001 7.47908 32.7214 7.15855 32.7214 6.78459V4.06005C32.775 3.73951 32.4536 3.41898 32.0788 3.41898Z" fill="#0F0D0D"/>
<path d="M6.15803 17.7363C6.15803 17.3624 5.8367 17.0418 5.46183 17.0418C5.08695 17.0418 4.76562 17.3624 4.76562 17.7363C4.76562 20.728 7.2291 23.1854 10.2281 23.1854C13.2271 23.1854 15.6906 20.728 15.6906 17.7363C15.6906 17.3624 15.3693 17.0418 14.9944 17.0418C14.6195 17.0418 14.2982 17.3624 14.2982 17.7363C14.2982 19.9801 12.4774 21.7964 10.2281 21.7964C7.97886 21.7964 6.15803 19.9801 6.15803 17.7363Z" fill="#0F0D0D"/>
<path d="M12.961 17.7363C12.961 17.3623 12.6397 17.0418 12.2648 17.0418C11.89 17.0418 11.5686 17.3623 11.5686 17.7363C11.5686 18.4842 10.9795 19.0718 10.2298 19.0718C9.48003 19.0718 8.89094 18.4842 8.89094 17.7363C8.89094 17.3623 8.56961 17.0418 8.19474 17.0418C7.81986 17.0418 7.49854 17.3623 7.49854 17.7363C7.49854 19.2321 8.73027 20.4608 10.2298 20.4608C11.7293 20.4608 12.961 19.2321 12.961 17.7363Z" fill="#0F0D0D"/>
<path d="M1.39185 6.94495C1.65962 6.94495 1.92739 6.78468 2.03449 6.51757C2.73069 4.96832 3.96243 3.84645 5.78326 3.20538C7.17567 2.72458 8.4074 2.72458 8.4074 2.72458C8.78228 2.72458 9.1036 2.40404 9.1036 2.03008C9.1036 1.65613 8.78228 1.33559 8.4074 1.33559C8.35385 1.33559 6.96145 1.33559 5.35483 1.86982C3.15913 2.61773 1.55251 4.00671 0.749201 5.92992C0.534986 6.46414 0.909863 6.94495 1.39185 6.94495Z" fill="#0F0D0D"/>
<path d="M26.6161 17.7362C26.2412 17.7362 25.9199 17.4157 25.9199 17.0417C25.9199 16.6678 26.2412 16.3472 26.6161 16.3472C26.991 16.3472 27.3123 16.6678 27.3123 17.0417C27.3123 17.4157 26.991 17.7362 26.6161 17.7362ZM26.6161 15.0117C25.4915 15.0117 24.5811 15.9199 24.5811 17.0417C24.5811 18.1636 25.4915 19.0718 26.6161 19.0718C27.7407 19.0718 28.6511 18.1636 28.6511 17.0417C28.6511 15.9199 27.7407 15.0117 26.6161 15.0117Z" fill="#0F0D0D"/>
<path d="M18.4227 29.2754C18.0479 29.2754 17.7265 28.9549 17.7265 28.581C17.7265 28.207 18.0479 27.8865 18.4227 27.8865C18.7976 27.8865 19.1189 28.207 19.1189 28.581C19.1189 29.0083 18.7976 29.2754 18.4227 29.2754ZM18.4227 26.6043C17.2981 26.6043 16.3877 27.5125 16.3877 28.6344C16.3877 29.7562 17.2981 30.6644 18.4227 30.6644C19.5474 30.6644 20.4578 29.7562 20.4578 28.6344C20.4578 27.5125 19.5474 26.6043 18.4227 26.6043Z" fill="#0F0D0D"/>
<path d="M25.2783 23.1854H26.6172V24.521H25.2783V23.1854Z" fill="#0F0D0D"/>
<path d="M25.2783 25.9098H26.6172V27.2454H25.2783V25.9098Z" fill="#0F0D0D"/>
<path d="M26.6165 24.521H27.9553V25.8566H26.6165V24.521Z" fill="#0F0D0D"/>
<path d="M23.885 24.521H25.2239V25.8566H23.885V24.521Z" fill="#0F0D0D"/>
<path d="M2.03687 27.94H3.37571V29.2755H2.03687V27.94Z" fill="#0F0D0D"/>
<path d="M2.03687 30.6644H3.37571V32H2.03687V30.6644Z" fill="#0F0D0D"/>
<path d="M3.42749 29.2756H4.76634V30.6112H3.42749V29.2756Z" fill="#0F0D0D"/>
<path d="M0.696045 29.2756H2.03489V30.6112H0.696045V29.2756Z" fill="#0F0D0D"/>
</svg>
