<svg width="44" height="44" viewBox="0 0 44 44" fill="none" xmlns="http://www.w3.org/2000/svg">
<path d="M42.0647 5.47299H33.8954C33.7521 5.47299 33.6087 5.545 33.4654 5.61702L27.3026 9.14566H17.4135V7.34533C18.1301 7.34533 25.4395 7.34533 27.4459 7.34533C27.5893 7.34533 27.7326 7.27332 27.8759 7.20131L34.0387 3.67266H41.993L42.0647 5.47299ZM23.7913 12.8183H20.2082V11.018H23.7913V12.8183ZM29.3091 18.2913H14.6904C14.6904 16.9951 14.6904 15.9149 14.6904 14.6187C16.1953 14.6187 27.8043 14.6187 29.3091 14.6187C29.3091 15.9149 29.3091 16.9951 29.3091 18.2913ZM34.7553 17.3552C34.7553 18.6514 34.7553 28.8053 34.7553 30.1735H31.1006V17.3552H34.7553ZM42.0647 21.0278V26.5008H36.6185V21.0278H42.0647ZM29.3091 32.982H14.6904C14.6904 31.6858 14.6904 30.6056 14.6904 29.3093H29.3091C29.3091 30.6056 29.3091 31.6858 29.3091 32.982ZM9.2442 30.2455C9.2442 28.1571 9.2442 23.1882 9.2442 17.4272H12.8989V30.2455H9.2442ZM1.93483 26.5728V21.0998H7.38103V26.5728H1.93483ZM29.3091 27.437H14.6904V20.1637H29.3091V27.437ZM20.2082 3.96071C20.2082 3.74468 20.3516 3.60065 20.5665 3.60065H23.5046C23.7196 3.60065 23.8629 3.74468 23.8629 3.96071V5.40098H20.2082V3.96071ZM43.9279 6.33715V2.66448C43.9279 2.16039 43.4979 1.72831 42.9963 1.72831H33.8954C33.7521 1.72831 33.6087 1.80032 33.4654 1.87233L27.3026 5.40098H25.7261V3.96071C25.7261 2.73649 24.7229 1.72831 23.5046 1.72831H20.5665C19.3483 1.72831 18.3451 2.73649 18.3451 3.96071V5.40098H16.5536C16.0519 5.40098 15.622 5.83306 15.622 6.33715V10.0098C15.622 10.5139 16.0519 10.946 16.5536 10.946H18.3451V12.7463H13.7588C13.2572 12.7463 12.8272 13.1784 12.8272 13.6825V15.4828H8.24095C7.73933 15.4828 7.30937 15.9149 7.30937 16.419V19.1555H0.931586C0.429963 19.1555 0 19.5876 0 20.0917V27.437C0 27.9411 0.429963 28.3732 0.931586 28.3732H7.30937V31.1097C7.30937 31.6138 7.73933 32.0458 8.24095 32.0458H12.8272V33.8462C12.8272 34.3503 13.2572 34.7823 13.7588 34.7823H30.2407C30.7423 34.7823 31.1723 34.3503 31.1723 33.8462V32.0458H35.7586C36.2602 32.0458 36.6901 31.6138 36.6901 31.1097V28.3732H43.0679C43.5695 28.3732 43.9995 27.9411 43.9995 27.437V20.1637C43.9995 19.6596 43.5695 19.2275 43.0679 19.2275H36.6901V16.491C36.6901 15.9869 36.2602 15.5548 35.7586 15.5548H31.1723V13.6825C31.1723 13.1784 30.7423 12.7463 30.2407 12.7463H25.6544V10.946H27.4459C27.5893 10.946 27.7326 10.874 27.8759 10.802L34.0387 7.27332H42.9246C43.4979 7.27332 43.9279 6.84124 43.9279 6.33715Z" fill="white"/>
<path d="M17.4141 22.9001H19.2056V24.7004H17.4141V22.9001Z" fill="white"/>
<path d="M21.0684 22.9001H22.8599V24.7004H21.0684V22.9001Z" fill="white"/>
<path d="M24.7227 22.9001H26.5142V24.7004H24.7227V22.9001Z" fill="white"/>
<path d="M9.46039 41.4795C9.24541 41.0475 9.17375 40.6154 9.38873 40.1833L10.607 37.7349L11.8252 40.1833C12.0402 40.6154 12.0402 41.1195 11.7535 41.4795C11.5385 41.9116 11.1086 42.1277 10.607 42.1277C10.1053 42.1277 9.74703 41.9116 9.46039 41.4795ZM42.9975 42.1277H13.4734C13.9033 41.2635 13.9033 40.2553 13.4734 39.3191L11.3952 35.2864C11.2519 34.9984 10.8936 34.7823 10.607 34.7823C10.2487 34.7823 9.96201 34.9984 9.81869 35.2864L7.8122 39.3191C7.38224 40.1833 7.38224 41.1915 7.8122 42.1277H1.07612C0.574494 42.1277 0.144531 42.5597 0.144531 43.0638C0.144531 43.5679 0.574494 44 1.07612 44H43.0691C43.5708 44 44.0007 43.5679 44.0007 43.0638C43.9291 42.5597 43.4991 42.1277 42.9975 42.1277Z" fill="white"/>
<path d="M33.895 37.5909C33.895 37.0868 34.325 36.6547 34.8266 36.6547C35.3282 36.6547 35.7582 37.0868 35.7582 37.5909C35.7582 38.095 35.3282 38.5271 34.8266 38.5271C34.2533 38.4551 33.895 38.095 33.895 37.5909ZM37.5497 37.5909C37.5497 36.0786 36.3315 34.8544 34.8266 34.8544C33.3217 34.8544 32.1035 36.0786 32.1035 37.5909C32.1035 39.1032 33.3217 40.3274 34.8266 40.3274C36.2598 40.3274 37.5497 39.1032 37.5497 37.5909Z" fill="white"/>
<path d="M5.58923 1.80035C6.09085 1.80035 6.52081 2.23243 6.52081 2.73652C6.52081 3.24061 6.09085 3.67269 5.58923 3.67269C5.0876 3.67269 4.65764 3.24061 4.65764 2.73652C4.65764 2.16042 5.0876 1.80035 5.58923 1.80035ZM5.58923 5.47302C7.0941 5.47302 8.31232 4.2488 8.31232 2.73652C8.31232 1.22425 7.0941 2.19345e-05 5.58923 2.19345e-05C4.08436 2.19345e-05 2.86613 1.22425 2.86613 2.73652C2.79447 4.17679 4.08436 5.47302 5.58923 5.47302Z" fill="white"/>
<path d="M5.58984 7.27328H7.38135V9.07361H5.58984V7.27328Z" fill="white"/>
<path d="M5.58984 10.9459H7.38135V12.7462H5.58984V10.9459Z" fill="white"/>
<path d="M7.38086 9.14559H9.17237V10.9459H7.38086V9.14559Z" fill="white"/>
<path d="M3.72656 9.14559H5.51807V10.9459H3.72656V9.14559Z" fill="white"/>
<path d="M38.4102 10.0097H40.2017V11.8101H38.4102V10.0097Z" fill="white"/>
<path d="M38.4102 13.6825H40.2017V15.4828H38.4102V13.6825Z" fill="white"/>
<path d="M40.2734 11.8822H42.0649V13.6825H40.2734V11.8822Z" fill="white"/>
<path d="M36.6191 11.8822H38.4107V13.6825H36.6191V11.8822Z" fill="white"/>
</svg>
