<svg width="32" height="32" viewBox="0 0 32 32" fill="none" xmlns="http://www.w3.org/2000/svg">
<path d="M24.3137 11.0212C23.8431 11.0733 23.5817 11.4908 23.7386 11.9083L28.2353 23.4937C28.3399 23.7546 28.549 23.9111 28.8105 23.9111C29.8562 24.0155 30.6928 24.9027 30.6928 25.9986V27.9295H23.3725C23.0065 27.9295 22.6928 28.2426 22.6928 28.6079C22.6928 28.9732 23.0065 29.2863 23.3725 29.2863H30.6928V30.6432H17.3072V26.6248H24.6275C24.9935 26.6248 25.3072 26.3117 25.3072 25.9464C25.3072 25.5811 24.9935 25.268 24.6275 25.268H17.4641C17.7778 24.4852 18.5098 23.9111 19.3987 23.9111H22.5882C23.0588 23.9111 23.3725 23.4415 23.2157 23.024L18.9804 11.8561C18.8758 11.5952 18.6144 11.3865 18.3007 11.4386L13.7516 11.7518C12.8105 11.804 12.0261 11.0733 12.0261 10.134C12.0261 9.40339 12.0261 4.91538 12.0261 2.98449C12.0261 2.04514 12.8105 1.31453 13.7516 1.36672L21.3333 1.88858V4.55007C21.3333 4.91538 21.6471 5.22849 22.0131 5.22849H27.3464V7.26375H20.0261C19.5556 7.26375 19.2418 7.73343 19.3987 8.15092L24.732 22.8674C24.8366 23.2327 25.2549 23.3893 25.5686 23.2849C25.9346 23.1805 26.0915 22.763 25.9869 22.4499L20.9673 8.56841H28.0261C28.3922 8.56841 28.7059 8.25529 28.7059 7.88999V4.55007C28.7059 4.18477 28.3922 3.87165 28.0261 3.87165H22.6405V1.94077L29.1242 2.35825C29.9608 2.41044 30.6405 3.14105 30.6405 3.97602V9.03808C30.6405 9.87306 29.9608 10.6037 29.1242 10.6559L24.3137 11.0212ZM15.8431 16.5529C16.2614 15.2482 15.8954 13.787 15.5817 12.8999L17.9346 12.7433L19.3464 16.5529H15.8431ZM6.69281 7.88999H10.6667V9.24683H6.69281V7.88999ZM10.6667 3.19323V4.55007H6.69281V3.19323H10.6667ZM6.69281 5.85473H10.6667V6.53315H6.69281V5.85473ZM32 9.09027V4.02821C32 2.46263 30.7974 1.15797 29.2288 1.0536L22.2745 0.583923C22.1176 0.531738 21.9608 0.479551 21.8039 0.531738L13.8039 0.00987625C12.549 -0.0944977 11.3464 0.63611 10.8758 1.83639H6.01307C5.64706 1.83639 5.33333 2.14951 5.33333 2.51481V5.85473H0.679739C0.313726 5.85473 0 6.16784 0 6.53315C0 6.89845 0.313726 7.21157 0.679739 7.21157H5.33333V9.87306C5.33333 10.2384 5.64706 10.5515 6.01307 10.5515H10.719C10.9804 12.1171 12.3399 13.1608 13.8562 13.0564H14.1699C14.4314 13.6305 15.2157 15.7179 14.1699 16.7616C13.9608 16.9704 13.9085 17.2313 14.0131 17.4922C14.1176 17.7532 14.3791 17.9097 14.6405 17.9097H19.817L21.5948 22.6065H19.3987C17.5686 22.6065 16.0523 24.0677 16 25.8942C16 25.9464 16 25.7898 16 30.6432H0.679739C0.313726 30.6432 0 30.9563 0 31.3216C0 31.6869 0.313726 32 0.679739 32C1.56863 32 30.6405 32 31.3203 32C31.6863 32 32 31.6869 32 31.3216V25.9986C32 24.3808 30.902 23.024 29.3333 22.6587L25.3072 12.2736L29.2288 12.0127C30.7974 11.9083 32 10.6037 32 9.09027Z" fill="#0F0D0D"/>
<path d="M14.0127 5.22836H15.3199V6.58521H14.0127V5.22836Z" fill="#0F0D0D"/>
<path d="M7.32104 22.6065H8.62823V23.9634H7.32104V22.6065Z" fill="#0F0D0D"/>
<path d="M7.32104 25.2679H8.62823V26.6248H7.32104V25.2679Z" fill="#0F0D0D"/>
<path d="M8.68042 23.9112H9.98761V25.2681H8.68042V23.9112Z" fill="#0F0D0D"/>
<path d="M6.0127 23.9112H7.31988V25.2681H6.0127V23.9112Z" fill="#0F0D0D"/>
<path d="M1.9873 11.9085H3.29449V13.2654H1.9873V11.9085Z" fill="#0F0D0D"/>
<path d="M1.9873 14.5699H3.29449V15.9268H1.9873V14.5699Z" fill="#0F0D0D"/>
<path d="M3.34668 13.2132H4.65387V14.5701H3.34668V13.2132Z" fill="#0F0D0D"/>
<path d="M0.68042 13.2132H1.98761V14.5701H0.68042V13.2132Z" fill="#0F0D0D"/>
<path d="M16.6804 5.22836H17.9876V6.58521H16.6804V5.22836Z" fill="#0F0D0D"/>
<path d="M19.3467 5.22836H20.6539V6.58521H19.3467V5.22836Z" fill="#0F0D0D"/>
<path d="M8.0003 17.9097C8.0003 17.5444 8.31403 17.2313 8.68004 17.2313C9.04606 17.2313 9.35978 17.5444 9.35978 17.9097C9.35978 18.2751 9.04606 18.5882 8.68004 18.5882C8.31403 18.5882 8.0003 18.2751 8.0003 17.9097ZM10.667 17.9097C10.667 16.8138 9.77808 15.9267 8.68004 15.9267C7.582 15.9267 6.69312 16.8138 6.69312 17.9097C6.69312 19.0057 7.582 19.8928 8.68004 19.8928C9.77808 19.8928 10.667 19.0057 10.667 17.9097Z" fill="#0F0D0D"/>
</svg>
