<svg width="38" height="38" viewBox="0 0 38 38" fill="none" xmlns="http://www.w3.org/2000/svg">
<path d="M11.2675 16.1344L6.47811 18.5016V15.5115L11.2675 13.1443V16.1344ZM11.2675 20.8689L6.47811 23.2361V20.2459L11.2675 17.8787V20.8689ZM11.2675 25.6656L6.41509 28.0328V25.0426L11.2045 22.6754V25.6656H11.2675ZM11.2675 30.4L6.73019 32.6426L6.47811 32.2066V29.777L11.2675 27.4098V30.4ZM11.2675 32.2689L8.87281 35.8197L7.61244 34.0131L11.2675 32.2066V32.2689ZM6.41509 10.2787H11.2045V11.4L6.41509 13.7672V10.2787ZM15.4897 1.55738L11.5196 8.72131H6.03698L3.83134 4.73442H11.1415C11.5826 4.73442 11.9607 4.36066 11.9607 3.92459C11.9607 3.48853 11.5826 3.11475 11.1415 3.11475C2.63399 3.11475 3.07512 3.11475 2.94908 3.11475L2.06683 1.49508H15.4897V1.55738ZM13.9773 11.7738C14.3554 11.5869 14.5445 11.0885 14.3554 10.7148C14.1664 10.341 13.6622 10.1541 13.2841 10.341L12.843 10.5902V9.71803L17.5693 1.18361C17.8844 0.685246 17.4433 0 16.8761 0H0.806458C0.176275 0 -0.201836 0.622952 0.113256 1.18361L4.83963 9.71803V14.577L3.7053 15.1377C3.32719 15.3246 3.13814 15.823 3.32719 16.1967C3.51625 16.5705 4.0204 16.7574 4.39851 16.5705L4.83963 16.3213V19.3115L3.7053 19.8721C3.32719 20.059 3.13814 20.5574 3.32719 20.9311C3.51625 21.3049 4.0204 21.4918 4.39851 21.3049L4.83963 21.0557V24.0459L3.7053 24.6066C3.32719 24.7934 3.13814 25.2918 3.32719 25.6656C3.51625 26.0393 4.0204 26.2262 4.39851 26.0393L4.83963 25.7902V28.7803L3.7053 29.341C3.32719 29.5279 3.13814 30.0262 3.32719 30.4C3.51625 30.7738 4.0204 30.9607 4.39851 30.7738L4.83963 30.5246V32.3934C4.83963 32.5803 4.90265 32.7049 4.96567 32.8295L5.28076 33.2656L3.7053 34.0754C3.32719 34.2623 3.13814 34.7607 3.32719 35.1344C3.51625 35.5082 4.0204 35.6951 4.39851 35.5082L6.16302 34.6361L8.17961 37.6262C8.4947 38.1246 9.1879 38.1246 9.503 37.6262L12.7169 32.8918C12.78 32.7672 12.843 32.5803 12.843 32.4557V31.3344L13.9773 30.7738C14.3554 30.5869 14.5445 30.0885 14.3554 29.7148C14.1664 29.341 13.6622 29.1541 13.2841 29.341L12.843 29.5902V26.6L13.9773 26.0393C14.3554 25.8525 14.5445 25.3541 14.3554 24.9803C14.1664 24.6066 13.6622 24.4197 13.2841 24.6066L12.843 24.8557V21.8656L13.9773 21.3049C14.3554 21.118 14.5445 20.6197 14.3554 20.2459C14.1664 19.8721 13.6622 19.6852 13.2841 19.8721L12.843 20.1213V17.1311L13.9773 16.5705C14.3554 16.3836 14.5445 15.8852 14.3554 15.5115C14.1664 15.1377 13.6622 14.9508 13.2841 15.1377L12.843 15.3869V12.3967L13.9773 11.7738Z" fill="#00091B"/>
<path d="M22.5102 36.3803L23.3925 34.7607C23.5815 34.823 23.0144 34.7607 31.5849 34.7607C32.026 34.7607 32.4041 34.3869 32.4041 33.9508C32.4041 33.5148 32.026 33.141 31.5849 33.141H24.2748L26.4804 29.1541H31.963L35.9332 36.318L22.5102 36.3803ZM31.5849 26.6V27.7213H26.7955V24.2328L31.5849 26.6ZM26.7325 19.4361L31.5219 21.8033V24.7934L26.7325 22.4262V19.4361ZM26.7325 14.6393L31.5219 17.0066V19.9967L26.7325 17.6295V14.6393ZM26.7325 9.90492L31.5219 12.2721V15.2623L26.7325 12.8951V9.90492ZM26.7325 5.66885L26.9845 5.23279L31.5219 7.47541V10.5279L26.7325 8.16066V5.66885ZM29.1902 2.11803L31.5849 5.66885V5.73115L27.9298 3.92459L29.1902 2.11803ZM37.8867 36.8164L33.1603 28.282V27.3475L33.6015 27.5967C33.9796 27.7836 34.4837 27.659 34.6728 27.223C34.8618 26.8492 34.7358 26.3508 34.2947 26.1639L33.1603 25.6033V22.6131L33.6015 22.8623C33.9796 23.0492 34.4837 22.9246 34.6728 22.4885C34.8618 22.1148 34.7358 21.6164 34.2947 21.4295L33.1603 20.8689V17.8787L33.6015 18.1279C33.9796 18.3148 34.4837 18.1902 34.6728 17.7541C34.8618 17.3803 34.7358 16.882 34.2947 16.6951L33.1603 16.1344V13.1443L33.6015 13.3934C33.9796 13.5803 34.4837 13.4557 34.6728 13.0197C34.8618 12.6459 34.7358 12.1475 34.2947 11.9607L33.1603 11.4V8.40984L33.6015 8.65902C33.9796 8.8459 34.4837 8.72131 34.6728 8.28525C34.8618 7.91147 34.7358 7.41311 34.2947 7.22623L33.1603 6.66557V5.54426C33.1603 5.35738 33.0973 5.23279 33.0343 5.1082L29.8204 0.373772C29.5053 -0.124592 28.8121 -0.124592 28.497 0.373772L26.4804 3.36393L24.7159 2.36721C24.3378 2.18033 23.8336 2.30492 23.6446 2.74098C23.4555 3.11475 23.5815 3.61311 24.0227 3.8L25.5981 4.60984L25.283 5.0459C25.22 5.17049 25.157 5.35738 25.157 5.48197V7.35082L24.7159 7.10164C24.3378 6.91475 23.8336 7.03934 23.6446 7.47541C23.4555 7.84918 23.5815 8.34754 24.0227 8.53443L25.157 9.09508V12.0852L24.7159 11.8984C24.3378 11.7115 23.8336 11.8361 23.6446 12.2721C23.4555 12.6459 23.5815 13.1443 24.0227 13.3311L25.157 13.8918V16.882L24.7159 16.6328C24.3378 16.4459 23.8336 16.5705 23.6446 17.0066C23.4555 17.3803 23.5815 17.8787 24.0227 18.0656L25.157 18.6262V21.6164L24.7159 21.4295C24.3378 21.2426 23.8336 21.3672 23.6446 21.8033C23.4555 22.177 23.5815 22.6754 24.0227 22.8623L25.157 23.423V28.282L20.4306 36.8164C20.1155 37.3148 20.5567 38 21.1238 38H37.1935C37.8237 38 38.2018 37.3148 37.8867 36.8164Z" fill="#00091B"/>
<path d="M18.1163 14.7971C17.7093 14.7971 17.3605 14.4399 17.3605 14.0233C17.3605 13.6066 17.7093 13.2494 18.1163 13.2494C18.5233 13.2494 18.8721 13.6066 18.8721 14.0233C18.8721 14.4399 18.5233 14.7971 18.1163 14.7971ZM18.1163 11.7613C16.8954 11.7613 15.907 12.7733 15.907 14.0233C15.907 15.2733 16.8954 16.2852 18.1163 16.2852C19.3372 16.2852 20.3256 15.2733 20.3256 14.0233C20.3256 12.7733 19.3372 11.7613 18.1163 11.7613Z" fill="#00091B"/>
<path d="M18.1163 33.4994C17.7093 33.4994 17.3605 33.0709 17.3605 32.5709C17.3605 32.0709 17.7093 31.6423 18.1163 31.6423C18.5233 31.6423 18.8721 32.0709 18.8721 32.5709C18.8721 33.1423 18.5233 33.4994 18.1163 33.4994ZM18.1163 29.8566C16.8954 29.8566 15.907 31.0709 15.907 32.5709C15.907 34.0709 16.8954 35.2852 18.1163 35.2852C19.3372 35.2852 20.3256 34.0709 20.3256 32.5709C20.3256 31.1423 19.3372 29.8566 18.1163 29.8566Z" fill="#00091B"/>
<path d="M17.6744 20.8096H19.4419V22.6191H17.6744V20.8096Z" fill="#00091B"/>
<path d="M17.6744 23.5225H19.4419V25.332H17.6744V23.5225Z" fill="#00091B"/>
<path d="M19.4419 22.6187H20.3256V23.5234H19.4419V22.6187Z" fill="#00091B"/>
<path d="M15.907 22.6187H17.6744V23.5234H15.907V22.6187Z" fill="#00091B"/>
<path d="M19.4419 4.52251H21.2093V6.33203H19.4419V4.52251Z" fill="#00091B"/>
<path d="M19.4419 8.1436H21.2093V9.95312H19.4419V8.1436Z" fill="#00091B"/>
<path d="M21.2094 6.33305H22.9768V8.14258H21.2094V6.33305Z" fill="#00091B"/>
<path d="M18.5581 6.33305H19.4418V8.14258H18.5581V6.33305Z" fill="#00091B"/>
</svg>
