<svg width="38" height="38" viewBox="0 0 38 38" fill="none" xmlns="http://www.w3.org/2000/svg">
<path d="M5.97199 1.69005H10.6944V5.85313C10.6944 7.21915 9.63806 8.32497 8.33319 8.32497C7.02832 8.32497 5.97199 7.21915 5.97199 5.85313C5.97199 5.78808 5.97199 1.69005 5.97199 1.69005ZM8.39532 9.95117C10.5701 9.95117 12.3721 8.06477 12.3721 5.78808V0.844419C12.3721 0.389081 11.9992 -0.00120926 11.5643 -0.00120926H5.22636C4.7914 -0.00120926 4.41858 0.389081 4.41858 0.844419V5.78808C4.41858 8.06477 6.1584 9.95117 8.39532 9.95117Z" fill="#00091B"/>
<path d="M15.7502 2.52616H18.9097V8.07953H15.7502V2.52616ZM23.4941 3.33733H29.9369C29.9369 4.14849 29.9369 5.33404 29.9369 7.33076H23.4941C23.0604 6.08281 21.6975 5.45884 20.4585 5.89562V4.83487C21.7594 5.27165 23.0604 4.58528 23.4941 3.33733ZM34.831 4.14849L35.6364 9.07789C34.6452 7.76754 33.1584 6.08281 31.5476 6.20761V4.14849H34.831ZM14.9449 9.70186H19.6531C20.0868 9.70186 20.4585 9.32748 20.4585 8.89069V8.07953C20.4585 7.64275 20.8302 7.26836 21.2638 7.26836C21.6975 7.26836 22.0692 7.64275 22.0692 8.07953C22.0692 8.51631 22.4409 8.89069 22.8746 8.89069H23.6799V19.9974C23.6799 20.4342 24.0516 20.8086 24.4853 20.8086C24.9189 20.8086 25.2906 20.4342 25.2906 19.9974V8.89069H28.4501V19.9974C28.4501 20.4342 28.8218 20.8086 29.2555 20.8086C29.6891 20.8086 30.0608 20.4342 30.0608 19.9974V8.89069H30.8662C31.2998 8.89069 31.6715 8.51631 31.6715 8.07953V7.76754C31.7954 7.76754 31.8574 7.76754 32.0432 7.76754C33.4681 8.07953 35.5744 11.2618 36.5037 13.2585C36.6895 13.6329 37.0612 13.7577 37.4329 13.6329C37.8047 13.5081 38.0525 13.1337 37.9905 12.7593L36.4417 3.21253C36.3798 2.83815 36.07 2.52616 35.6364 2.52616H31.6715C31.6715 2.08938 31.2998 1.715 30.8662 1.715H22.8746C22.4409 1.715 22.0692 2.08938 22.0692 2.52616C22.0692 2.96294 21.6975 3.33733 21.2638 3.33733C20.8302 3.33733 20.4585 2.96294 20.4585 2.52616V1.715C20.4585 1.27822 20.0868 0.903831 19.6531 0.903831H14.9449C14.5112 0.903831 14.1395 1.27822 14.1395 1.715V8.89069C14.2015 9.32748 14.5112 9.70186 14.9449 9.70186Z" fill="#00091B"/>
<path d="M24.5919 36.4112V34.0892H26.1984C26.6309 34.0892 27.0016 33.7226 27.0016 33.2948C27.0016 32.8671 26.6309 32.5005 26.1984 32.5005H24.6537V30.9728H26.1984C26.6309 30.9728 27.0016 30.6062 27.0016 30.1784C27.0016 29.7507 26.6309 29.3841 26.1984 29.3841H24.6537V27.8564H26.1984C26.6309 27.8564 27.0016 27.4898 27.0016 27.062C27.0016 26.6343 26.6309 26.2677 26.1984 26.2677H24.6537V24.74C24.6537 23.4568 25.7041 22.418 27.0016 22.418C28.2992 22.418 29.3496 23.4568 29.3496 24.74V36.4112H24.5919ZM4.94309 34.8836H8.09431C8.52683 34.8836 8.89756 34.517 8.89756 34.0892C8.89756 33.6615 8.52683 33.2948 8.09431 33.2948H4.26341C4.20163 33.0504 4.20163 32.806 4.20163 32.5005V30.1784H7.35285C7.78537 30.1784 8.1561 29.8118 8.1561 29.3841C8.1561 28.9563 7.78537 28.5897 7.35285 28.5897H4.20163V25.3511C5.56098 24.9844 6.54959 23.7623 6.54959 22.3569C6.54959 21.8069 6.36423 21.257 6.11707 20.8292H10.1333C9.88618 21.3181 9.70081 21.8069 9.70081 22.3569C9.70081 23.8234 10.6894 25.0455 12.0488 25.3511V30.9117H8.89756C8.46504 30.9117 8.09431 31.2783 8.09431 31.7061C8.09431 32.1338 8.46504 32.5005 8.89756 32.5005H11.987C11.987 34.6392 10.1951 36.4112 8.03252 36.4112C6.79675 36.4112 5.62276 35.8002 4.94309 34.8836ZM1.79187 17.7739H14.3967V19.3016H1.79187V17.7739ZM37.1967 36.4112H30.8943V24.74C30.8943 22.6013 29.1024 20.8292 26.9398 20.8292C24.7772 20.8292 22.9854 22.6013 22.9854 24.74V36.4112H11.8634C12.9138 35.4336 13.5317 34.0281 13.5317 32.5005V24.74C13.5317 24.3123 13.161 23.9456 12.7285 23.9456C11.8634 23.9456 11.1837 23.2735 11.1837 22.418C11.1837 21.5625 11.8634 20.8903 12.7285 20.8903H15.0764C15.5089 20.8903 15.8797 20.5237 15.8797 20.096V16.9796C15.8797 16.5518 15.5089 16.1852 15.0764 16.1852H11.122V10.7468C11.122 10.319 10.7512 9.95238 10.3187 9.95238C9.88618 9.95238 9.51545 10.319 9.51545 10.7468V16.1852H6.36423V10.7468C6.36423 10.319 5.9935 9.95238 5.56098 9.95238C5.12846 9.95238 4.75772 10.319 4.75772 10.7468V16.1852H0.803252C0.370732 16.1852 0 16.5518 0 16.9796V20.096C0 20.5237 0.370732 20.8903 0.803252 20.8903H3.33659C4.20163 20.8903 4.8813 21.5625 4.8813 22.418C4.8813 23.2735 4.20163 23.9456 3.33659 23.9456C2.90407 23.9456 2.53333 24.3123 2.53333 24.74V32.5005C2.53333 34.0281 3.15122 35.4336 4.20163 36.4112H0.988618C0.556098 36.4112 0.185366 36.7779 0.185366 37.2056C0.185366 37.6334 0.556098 38 0.988618 38C2.53333 38 35.5902 38 37.1967 38C37.6293 38 38 37.6334 38 37.2056C38 36.7779 37.6293 36.4112 37.1967 36.4112Z" fill="#00091B"/>
<path d="M34.7791 22.1658C34.7791 22.5825 34.4302 22.9396 34.0233 22.9396C33.6163 22.9396 33.2675 22.5825 33.2675 22.1658C33.2675 21.7492 33.6163 21.392 34.0233 21.392C34.4302 21.392 34.7791 21.7492 34.7791 22.1658ZM31.814 22.1658C31.814 23.4158 32.8023 24.4277 34.0233 24.4277C35.2442 24.4277 36.2326 23.4158 36.2326 22.1658C36.2326 20.9158 35.2442 19.9039 34.0233 19.9039C32.8023 19.9039 31.814 20.9158 31.814 22.1658Z" fill="#00091B"/>
<path d="M18.8721 28.4998C18.8721 28.9165 18.5233 29.2736 18.1163 29.2736C17.7093 29.2736 17.3605 28.9165 17.3605 28.4998C17.3605 28.0831 17.7093 27.726 18.1163 27.726C18.5233 27.726 18.8721 28.0831 18.8721 28.4998ZM15.907 28.4998C15.907 29.7498 16.8954 30.7617 18.1163 30.7617C19.3372 30.7617 20.3256 29.7498 20.3256 28.4998C20.3256 27.2498 19.3372 26.2379 18.1163 26.2379C16.8954 26.2379 15.907 27.2498 15.907 28.4998Z" fill="#00091B"/>
<path d="M19 15.6998C18.593 15.6998 18.2441 15.3428 18.2441 14.9264C18.2441 14.5099 18.593 14.153 19 14.153C19.4069 14.153 19.7558 14.5099 19.7558 14.9264C19.7558 15.3428 19.4069 15.6998 19 15.6998ZM21.2093 14.9264C21.2093 13.677 20.2209 12.6656 19 12.6656C17.779 12.6656 16.7906 13.677 16.7906 14.9264C16.7906 16.1757 17.779 17.1871 19 17.1871C20.2209 17.2466 21.2093 16.1757 21.2093 14.9264Z" fill="#00091B"/>
</svg>
