<svg width="38" height="38" viewBox="0 0 38 38" fill="none" xmlns="http://www.w3.org/2000/svg">
<path d="M2.35948 4.32857H9.99673L14.5294 8.11615C14.6536 8.24034 14.8399 8.30243 15.0261 8.30243H23.719C23.9052 8.30243 24.0915 8.24034 24.2157 8.11615L28.7484 4.32857H35.6405L36.3235 13.8286H1.67647L2.35948 4.32857ZM0.80719 15.3809H37.1928C37.6275 15.3809 38 15.0083 38 14.5116L37.1928 3.45929C37.1928 3.02465 36.8203 2.71419 36.3856 2.71419H28.5C28.3137 2.71419 28.1275 2.77628 28.0033 2.90047L23.4706 6.68805H15.3366L10.8039 2.90047C10.6797 2.77628 10.4935 2.71419 10.3072 2.71419H1.61438C1.17974 2.71419 0.869281 3.02465 0.80719 3.45929L0 14.5116C0 15.0083 0.310458 15.3809 0.80719 15.3809Z" fill="#00091B"/>
<path d="M13.4759 3.61914C13.9117 3.61914 14.2852 3.27985 14.2852 2.88402V1.47033H24.6194V2.88402C24.6194 3.27985 24.993 3.61914 25.4287 3.61914C25.8645 3.61914 26.2381 3.27985 26.2381 2.88402V0.735212C26.2381 0.339379 25.8645 9.29832e-05 25.4287 9.29832e-05H13.4759C13.0402 9.29832e-05 12.6666 0.339379 12.6666 0.735212V2.88402C12.6666 3.27985 13.0402 3.61914 13.4759 3.61914Z" fill="#00091B"/>
<path d="M0.80719 19H37.1928C37.6275 19 38 18.5824 38 18.0952C38 17.6081 37.6275 17.1905 37.1928 17.1905H0.80719C0.372549 17.1905 0 17.6081 0 18.0952C0 18.5824 0.372549 19 0.80719 19Z" fill="#00091B"/>
<path d="M37.1928 20.8104H0.80719C0.372549 20.8104 0 21.1779 0 21.6067V31.7759C0 32.2047 0.372549 32.5723 0.80719 32.5723H9.5C9.68627 32.5723 9.93464 32.511 10.0588 32.3272L12.1699 30.1831H16.5784C17.0131 30.1831 17.3856 29.8156 17.3856 29.3867C17.3856 28.9579 17.0131 28.5904 16.5784 28.5904H11.8595C11.6732 28.5904 11.4248 28.6516 11.3007 28.8354L9.12745 30.9795H1.61438V22.4031H36.4477V30.9795H35.6405C35.2059 30.9795 34.8333 31.3471 34.8333 31.7759C34.8333 32.2047 35.2059 32.5723 35.6405 32.5723H37.1928C37.6275 32.5723 38 32.2047 38 31.7759V21.6067C38 21.1779 37.6275 20.8104 37.1928 20.8104Z" fill="#00091B"/>
<path d="M31.8468 31.2319H30.5308C30.1548 31.2319 29.8415 31.4826 29.7788 31.7959C29.7161 32.0466 29.5908 32.2973 29.4655 32.4853C29.2775 32.7986 29.3401 33.1746 29.5908 33.4253L30.5308 34.3653L29.8415 35.0546L28.9641 34.1146C28.7135 33.8639 28.3375 33.8013 28.0241 33.9893C27.8361 34.1146 27.5854 34.1773 27.3348 34.3026C27.0214 34.428 26.7708 34.7413 26.7708 35.0546V36.3706H25.8308V35.0546C25.8308 34.6786 25.5801 34.3653 25.2667 34.3026C25.0161 34.24 24.7654 34.1146 24.5774 33.9893C24.2641 33.8013 23.8881 33.8639 23.6374 34.1146L22.6974 35.0546L22.008 34.3653L22.9481 33.4253C23.1987 33.1746 23.2614 32.7986 23.0734 32.4853C22.9481 32.2973 22.8854 32.0466 22.76 31.7959C22.6347 31.4826 22.3214 31.2319 22.008 31.2319H20.6294V30.2919H21.9454C22.3214 30.2919 22.6347 30.0412 22.6974 29.7279C22.76 29.4772 22.8854 29.2266 23.0107 29.0385C23.1987 28.7252 23.1361 28.3492 22.8854 28.0985L21.9454 27.1585L22.6347 26.4692L23.5747 27.4092C23.8254 27.6599 24.2014 27.7225 24.5147 27.5345C24.7027 27.4092 24.9534 27.3465 25.2041 27.2212C25.5174 27.0959 25.7681 26.7825 25.7681 26.4692V25.1532H26.7081V26.4692C26.7081 26.8452 26.9588 27.1585 27.2721 27.2212C27.5228 27.2839 27.7734 27.4092 27.9615 27.5345C28.2748 27.7225 28.6508 27.6599 28.9015 27.4092L29.8415 26.4692L30.5308 27.1585L29.5908 28.0985C29.3401 28.3492 29.2775 28.7252 29.4655 29.0385C29.5908 29.2266 29.6535 29.4772 29.7788 29.7279C29.9041 30.0412 30.2175 30.2919 30.5308 30.2919H31.8468V31.2319ZM32.6615 28.6625H31.2828L32.2855 27.6599C32.5988 27.3465 32.5988 26.8452 32.2855 26.5318L30.4682 24.7145C30.1548 24.4012 29.6535 24.4012 29.3401 24.7145L28.3375 25.7172V24.3385C28.3375 23.8998 27.9615 23.5238 27.5228 23.5238H24.9534C24.5147 23.5238 24.1387 23.8998 24.1387 24.3385V25.7172L23.1361 24.7145C22.8227 24.4012 22.3214 24.4012 22.008 24.7145L20.1907 26.5318C19.8773 26.8452 19.8773 27.3465 20.1907 27.6599L21.1934 28.6625H19.8147C19.376 28.6625 19 29.0385 19 29.4772V32.0466C19 32.4853 19.376 32.8613 19.8147 32.8613H21.256L20.2533 33.8639C19.94 34.1773 19.94 34.6786 20.2533 34.992L22.0707 36.8093C22.384 37.1227 22.8854 37.1227 23.1987 36.8093L24.2014 35.8066V37.1853C24.2014 37.624 24.5774 38 25.0161 38H27.5228C27.9615 38 28.3375 37.624 28.3375 37.1853V35.8066L29.3401 36.8093C29.6535 37.1227 30.1548 37.1227 30.4682 36.8093L32.2855 34.992C32.5988 34.6786 32.5988 34.1773 32.2855 33.8639L31.2828 32.7986H32.6615C33.1002 32.7986 33.4762 32.4226 33.4762 31.9839V29.4146C33.4135 29.0385 33.1002 28.6625 32.6615 28.6625Z" fill="#00091B"/>
<path d="M25.7857 32.8286C24.9164 32.8286 24.2334 32.1456 24.2334 31.2763C24.2334 30.407 24.9164 29.724 25.7857 29.724C26.655 29.724 27.338 30.407 27.338 31.2763C27.338 32.0835 26.655 32.8286 25.7857 32.8286ZM25.7857 28.0475C24.0471 28.0475 22.619 29.4756 22.619 31.2142C22.619 32.9528 24.0471 34.3809 25.7857 34.3809C27.5242 34.3809 28.9524 32.9528 28.9524 31.2142C28.9524 29.4756 27.5242 28.0475 25.7857 28.0475Z" fill="#00091B"/>
<path d="M6.33337 10.8584H7.23814V12.668H6.33337V10.8584Z" fill="#00091B"/>
<path d="M9.95239 10.8584H11.7619V12.668H9.95239V10.8584Z" fill="#00091B"/>
<path d="M14.4762 10.8584H15.381V12.668H14.4762V10.8584Z" fill="#00091B"/>
<path d="M18.0952 10.8584H19.9047V12.668H18.0952V10.8584Z" fill="#00091B"/>
<path d="M21.7142 10.8584H23.5238V12.668H21.7142V10.8584Z" fill="#00091B"/>
<path d="M26.238 10.8584H27.1428V12.668H26.238V10.8584Z" fill="#00091B"/>
<path d="M29.8572 10.8584H31.6667V12.668H29.8572V10.8584Z" fill="#00091B"/>
</svg>
