<svg width="38" height="38" viewBox="0 0 38 38" fill="none" xmlns="http://www.w3.org/2000/svg">
<path d="M36.3287 4.98753H29.2734C29.1496 4.98753 29.0258 5.04863 28.902 5.10974L23.5796 8.1039H15.039V6.57627C15.6578 6.57627 21.9705 6.57627 23.7034 6.57627C23.8272 6.57627 23.9509 6.51516 24.0747 6.45406L29.3971 3.45989H36.2668L36.3287 4.98753ZM20.5471 11.2203H17.4526V9.69264H20.5471V11.2203ZM25.3125 15.8643H12.6872C12.6872 14.7644 12.6872 13.8478 12.6872 12.7479C13.9868 12.7479 24.0128 12.7479 25.3125 12.7479C25.3125 13.8478 25.3125 14.7644 25.3125 15.8643ZM30.016 15.0699C30.016 16.1698 30.016 24.7857 30.016 25.9467H26.8597V15.0699H30.016ZM36.3287 18.1863V22.8303H31.6251V18.1863H36.3287ZM25.3125 28.3298H12.6872C12.6872 27.2299 12.6872 26.3133 12.6872 25.2134H25.3125C25.3125 26.3133 25.3125 27.2299 25.3125 28.3298ZM7.98364 26.0078C7.98364 24.2357 7.98364 20.0195 7.98364 15.131H11.14V26.0078H7.98364ZM1.671 22.8914V18.2474H6.37454V22.8914H1.671ZM25.3125 23.6247H12.6872V17.453H25.3125V23.6247ZM17.4526 3.70432C17.4526 3.521 17.5764 3.39879 17.7621 3.39879H20.2995C20.4852 3.39879 20.6089 3.521 20.6089 3.70432V4.92642H17.4526V3.70432ZM37.9378 5.72079V2.60442C37.9378 2.17668 37.5664 1.81005 37.1332 1.81005H29.2734C29.1496 1.81005 29.0258 1.87115 28.902 1.93226L23.5796 4.92642H22.218V3.70432C22.218 2.66552 21.3516 1.81005 20.2995 1.81005H17.7621C16.71 1.81005 15.8435 2.66552 15.8435 3.70432V4.92642H14.2963C13.8631 4.92642 13.4917 5.29305 13.4917 5.72079V8.83717C13.4917 9.26491 13.8631 9.63154 14.2963 9.63154H15.8435V11.1592H11.8826C11.4494 11.1592 11.0781 11.5258 11.0781 11.9535V13.4812H7.1172C6.68398 13.4812 6.31265 13.8478 6.31265 14.2755V16.5976H0.804553C0.371332 16.5976 0 16.9642 0 17.3919V23.6247C0 24.0524 0.371332 24.419 0.804553 24.419H6.31265V26.741C6.31265 27.1688 6.68398 27.5354 7.1172 27.5354H11.0781V29.0631C11.0781 29.4908 11.4494 29.8574 11.8826 29.8574H26.117C26.5503 29.8574 26.9216 29.4908 26.9216 29.0631V27.5354H30.8825C31.3157 27.5354 31.687 27.1688 31.687 26.741V24.419H37.1951C37.6283 24.419 37.9997 24.0524 37.9997 23.6247V17.453C37.9997 17.0253 37.6283 16.6587 37.1951 16.6587H31.687V14.3367C31.687 13.9089 31.3157 13.5423 30.8825 13.5423H26.9216V11.9535C26.9216 11.5258 26.5503 11.1592 26.117 11.1592H22.1562V9.63154H23.7034C23.8272 9.63154 23.9509 9.57043 24.0747 9.50933L29.3971 6.51516H37.0713C37.5664 6.51516 37.9378 6.14853 37.9378 5.72079Z" fill="#00091B"/>
<path d="M15.0226 19.9053H16.79V21.7148H15.0226V19.9053Z" fill="#00091B"/>
<path d="M18.5581 19.9053H19.4418V21.7148H18.5581V19.9053Z" fill="#00091B"/>
<path d="M21.2097 19.9053H22.9771V21.7148H21.2097V19.9053Z" fill="#00091B"/>
<path d="M8.07183 35.7735C7.88555 35.3918 7.82346 35.0101 8.00973 34.6284L9.06528 32.4655L10.1208 34.6284C10.3071 35.0101 10.3071 35.4554 10.0587 35.7735C9.87246 36.1552 9.49992 36.346 9.06528 36.346C8.63064 36.346 8.32019 36.1552 8.07183 35.7735ZM37.1304 36.346H11.5489C11.9215 35.5826 11.9215 34.692 11.5489 33.865L9.74828 30.3025C9.6241 30.0481 9.31364 29.8572 9.06528 29.8572C8.75483 29.8572 8.50646 30.0481 8.38228 30.3025L6.64373 33.865C6.27119 34.6284 6.27119 35.519 6.64373 36.346H0.807182C0.372546 36.346 0 36.7277 0 37.173C0 37.6183 0.372546 38 0.807182 38H37.1925C37.6271 38 37.9997 37.6183 37.9997 37.173C37.9376 36.7277 37.565 36.346 37.1304 36.346Z" fill="#00091B"/>
<path d="M28.8486 33.0252C28.8486 32.6086 29.1975 32.2514 29.6044 32.2514C30.0114 32.2514 30.3602 32.6086 30.3602 33.0252C30.3602 33.4419 30.0114 33.799 29.6044 33.799C29.1393 33.7395 28.8486 33.4419 28.8486 33.0252ZM31.8137 33.0252C31.8137 31.7752 30.8253 30.7633 29.6044 30.7633C28.3835 30.7633 27.3951 31.7752 27.3951 33.0252C27.3951 34.2752 28.3835 35.2871 29.6044 35.2871C30.7672 35.2871 31.8137 34.2752 31.8137 33.0252Z" fill="#00091B"/>
<path d="M4.86205 1.48775C5.26881 1.48775 5.61746 1.84489 5.61746 2.26155C5.61746 2.67822 5.26881 3.03536 4.86205 3.03536C4.45529 3.03536 4.10664 2.67822 4.10664 2.26155C4.10664 1.78537 4.45529 1.48775 4.86205 1.48775ZM4.86205 4.52344C6.08233 4.52344 7.07018 3.51154 7.07018 2.26155C7.07018 1.01156 6.08233 -0.000332355 4.86205 -0.000332355C3.64177 -0.000332355 2.65392 1.01156 2.65392 2.26155C2.59581 3.45202 3.64177 4.52344 4.86205 4.52344Z" fill="#00091B"/>
<path d="M5.30164 6.33502H6.18535V8.14453H5.30164V6.33502Z" fill="#00091B"/>
<path d="M5.30164 9.95267H6.18535V10.8574H5.30164V9.95267Z" fill="#00091B"/>
<path d="M6.18713 8.14362H7.95456V9.95312H6.18713V8.14362Z" fill="#00091B"/>
<path d="M3.53381 8.14362H5.30124V9.95312H3.53381V8.14362Z" fill="#00091B"/>
<path d="M32.6985 9.04837H34.4659V9.95312H32.6985V9.04837Z" fill="#00091B"/>
<path d="M32.6985 11.7628H34.4659V13.5723H32.6985V11.7628Z" fill="#00091B"/>
<path d="M34.4645 10.857H36.2319V11.7617H34.4645V10.857Z" fill="#00091B"/>
<path d="M31.8129 10.857H32.6966V11.7617H31.8129V10.857Z" fill="#00091B"/>
</svg>
