<svg width="38" height="38" viewBox="0 0 38 38" fill="none" xmlns="http://www.w3.org/2000/svg">
<path d="M9.87255 36.3857L15.8333 31.0463V36.3857H9.87255ZM4.78105 4.7837C6.08497 4.7837 32.8464 4.7837 33.7157 4.7837L35.268 6.33586C34.8333 6.33586 6.5817 6.33586 4.71895 6.33586C4.78105 6.33586 4.78105 4.7837 4.78105 4.7837ZM1.61438 7.14299V3.97657H3.16667V7.14299H1.61438ZM9.5 1.9898L12.5425 3.16945H9.5V1.9898ZM4.78105 3.16945L7.94771 1.92772V3.16945H4.78105ZM16.7647 3.16945L14.902 2.42441L20.5523 3.16945H16.7647ZM15.8333 13.7862L10.4935 7.95011H15.8333V13.7862ZM9.93464 22.913L15.8333 17.5735V27.6315L9.93464 22.913ZM9.5 24.5893L15.3987 29.3079L9.5 34.6473V24.5893ZM15.5229 15.773L9.5 21.1745V9.19184L15.5229 15.773ZM37.1928 36.3857H17.4477V7.95011H26.9477V18.2565C26.9477 18.6911 27.3203 19.0636 27.7549 19.0636C29.9281 19.0636 31.7288 20.8641 31.7288 23.0371C31.7288 25.2102 29.9281 27.0107 27.7549 27.0107C25.5817 27.0107 23.781 25.2102 23.781 23.0371C23.781 22.6025 23.4085 22.23 22.9739 22.23C22.5392 22.23 22.1667 22.6025 22.1667 23.0371C22.1667 26.0794 24.6503 28.5628 27.6928 28.5628C30.7353 28.5628 33.219 26.0794 33.219 23.0371C33.219 20.2432 31.1699 17.946 28.5 17.5735V7.95011H37.1928C37.5033 7.95011 37.8137 7.76385 37.9379 7.45342C38.0621 7.14299 38 6.83255 37.7516 6.58421L34.585 3.41779C34.4608 3.29362 34.2124 3.16945 34.0261 3.16945H32.4739C7.69935 -0.12114 8.7549 0.00303268 8.56863 0.00303268C8.44444 0.00303268 8.94118 -0.183224 2.23529 2.36232H0.80719C0.372549 2.36232 0 2.73484 0 3.16945V7.88803C0 8.32263 0.372549 8.69515 0.80719 8.69515H3.97386C4.4085 8.69515 4.78105 8.32263 4.78105 7.88803H7.94771V36.3857H0.80719C0.372549 36.3857 0 36.7583 0 37.1929C0 37.6275 0.372549 38 0.80719 38C10.6176 38 33.281 38 37.1928 38C37.6275 38 38 37.6275 38 37.1929C38 36.7583 37.6275 36.3857 37.1928 36.3857Z" fill="#00091B"/>
<path d="M20.3262 31.667H22.0936V33.4766H20.3262V31.667Z" fill="#00091B"/>
<path d="M23.8613 31.667H24.745V33.4766H23.8613V31.667Z" fill="#00091B"/>
<path d="M26.5117 31.667H28.2792V33.4766H26.5117V31.667Z" fill="#00091B"/>
<path d="M30.0469 31.667H31.8143V33.4766H30.0469V31.667Z" fill="#00091B"/>
<path d="M32.6973 31.667H34.4647V33.4766H32.6973V31.667Z" fill="#00091B"/>
<path d="M3.30182 16.7381C3.30182 16.3611 3.60866 16.047 3.97688 16.047C4.3451 16.047 4.65195 16.3611 4.65195 16.7381C4.65195 17.1151 4.3451 17.4292 3.97688 17.4292C3.60866 17.3664 3.30182 17.1151 3.30182 16.7381ZM6.18618 16.7381C6.18618 15.4815 5.20427 14.4762 3.97688 14.4762C2.74949 14.4762 1.76758 15.4815 1.76758 16.7381C1.76758 17.9947 2.74949 19 3.97688 19C5.20427 19 6.18618 17.9947 6.18618 16.7381Z" fill="#00091B"/>
<path d="M34.0238 15.6206C33.6555 15.6206 33.3487 15.3065 33.3487 14.9295C33.3487 14.5525 33.6555 14.2384 34.0238 14.2384C34.392 14.2384 34.6988 14.5525 34.6988 14.9295C34.6988 15.3065 34.392 15.6206 34.0238 15.6206ZM36.2331 14.9295C36.2331 13.6729 35.2511 12.6676 34.0238 12.6676C32.7964 12.6676 31.8145 13.6729 31.8145 14.9295C31.8145 16.1861 32.7964 17.1914 34.0238 17.1914C35.2511 17.1914 36.2331 16.1861 36.2331 14.9295Z" fill="#00091B"/>
</svg>
