<svg width="38" height="38" viewBox="0 0 38 38" fill="none" xmlns="http://www.w3.org/2000/svg">
<path d="M18.1156 4.54703C18.5225 4.54703 18.8714 4.97004 18.8714 5.46354C18.8714 5.95705 18.5225 6.38005 18.1156 6.38005C17.7086 6.38005 17.4179 5.88655 17.4179 5.39304C17.4179 4.89954 17.7086 4.54703 18.1156 4.54703ZM18.1156 8.14258C19.3365 8.14258 20.3249 6.94406 20.3249 5.46354C20.3249 3.98302 19.3365 2.71401 18.1156 2.71401C16.8946 2.71401 15.9062 3.91252 15.9062 5.39304C15.9062 6.87356 16.8946 8.14258 18.1156 8.14258Z" fill="#00091B"/>
<path d="M27.4444 36.3263C27.134 36.3263 26.8856 36.0783 26.8856 35.7684V35.5204H30.8595C31.2941 35.5204 31.6667 35.1485 31.6667 34.7145C31.6667 34.2806 31.2941 33.9086 30.8595 33.9086H26.8856V33.6607C26.8856 33.3507 27.134 33.1028 27.4444 33.1028H35.8268C36.1373 33.1028 36.3856 33.3507 36.3856 33.6607V35.7064C36.3856 36.0163 36.1373 36.2643 35.8268 36.2643H27.4444V36.3263ZM7.94771 36.3263V28.4535C7.94771 28.0196 7.57516 27.6476 7.14052 27.6476C6.70588 27.6476 6.33333 28.0196 6.33333 28.4535V36.3263H4.78105V7.93475H9.37582C9.18954 9.42251 8.87908 12.522 8.81699 16.4274C8.7549 21.3246 9.06536 28.3915 11.1144 34.1566C11.0523 34.5285 10.183 35.5204 9.18954 36.3263H7.94771ZM1.61438 1.61174H9.5V3.96737C9.5 4.40131 9.87255 4.77325 10.3072 4.77325C10.7418 4.77325 11.1144 4.40131 11.1144 3.96737V1.61174H22.1667V12.646H17.8824L14.1569 6.69494C14.0327 6.44698 13.7843 6.323 13.4739 6.323C9.25163 6.323 4.03595 6.323 1.61438 6.323V1.61174ZM31.232 25.9739C31.7288 25.7259 31.7908 25.106 31.4183 24.7341L30.3007 23.6183L31.5425 21.7586C31.7288 21.4486 31.7288 21.0147 31.4183 20.7667L30.4248 19.7749L31.4183 18.783C31.6667 18.5351 31.7288 18.1631 31.5425 17.8532L30.9837 16.7993L32.1634 15.6215C32.4739 15.3116 32.4739 14.8157 32.1634 14.5057L31.1699 13.5139L32.1634 12.522C32.4739 12.2121 32.4739 11.7162 32.1634 11.4062L31.1078 10.1664L32.3497 8.30669C32.598 7.93475 32.4739 7.43883 32.1013 7.19086L30.7353 6.26101L32.1013 5.33116C32.598 5.02121 32.598 4.33931 32.1013 4.02936L30.6732 3.1615L32.7222 1.61174H34.8333V31.615H34.0261V23.6803C34.0261 23.2463 33.6536 22.8744 33.219 22.8744C32.7843 22.8744 32.4118 23.2463 32.4118 23.6803V31.553H28.4379V27.3377L31.232 25.9739ZM38 33.7227C38 32.7308 37.317 31.925 36.4477 31.677V0.805874C36.4477 0.371941 36.0752 0 35.6405 0H32.4739C32.2876 0 32.1634 0.0619888 31.9771 0.18597L28.8105 2.5416C28.3758 2.85155 28.3758 3.53344 28.8725 3.84339L30.2386 4.77325L28.8725 5.64111C28.3758 5.95106 28.3758 6.63295 28.8725 6.9429L30.6111 8.05873L29.4935 9.79445C29.3072 10.1044 29.3072 10.5383 29.6176 10.7863L30.6111 11.7781L29.6176 12.77C29.3072 13.0799 29.3072 13.5759 29.6176 13.8858L30.6111 14.8777L29.6176 15.8695C29.3693 16.1175 29.3072 16.4894 29.4935 16.7993L30.0523 17.8532L28.8725 19.031C28.5621 19.3409 28.5621 19.8369 28.8725 20.1468L29.9902 21.2626L28.7484 23.1223C28.5621 23.4323 28.5621 23.8662 28.8725 24.1142L29.6797 24.9201L27.5065 26.0359C27.2582 26.1599 27.0719 26.4698 27.0719 26.7178V31.677C26.1405 31.925 25.5196 32.7308 25.5196 33.7227V35.7684C25.5196 35.9543 25.5196 36.1403 25.5817 36.3263H11.4869C12.5425 35.2104 12.8529 34.4046 12.6046 33.7227C10.6176 28.1436 10.3072 21.2626 10.3693 16.4274C10.4314 12.46 10.8039 9.23654 10.9281 7.87276H12.9771L16.7026 13.8238C16.8268 14.0718 17.0752 14.1958 17.3856 14.1958H22.9118C23.3464 14.1958 23.719 13.8238 23.719 13.3899V0.805874C23.719 0.371941 23.3464 0 22.9118 0H0.80719C0.372549 0 0 0.371941 0 0.805874V7.12887C0 7.56281 0.372549 7.93475 0.80719 7.93475H3.16667V36.3883H0.80719C0.372549 36.3883 0 36.7602 0 37.1941C0 37.6281 0.372549 38 0.80719 38C2.79412 38 34.585 38 37.1928 38C37.6275 38 38 37.6281 38 37.1941C38 37.0082 37.9379 36.8222 37.8137 36.6982C37.9379 36.4502 38 36.1403 38 35.8303V33.7227Z" fill="#00091B"/>
<path d="M24.3031 17.2372C24.71 17.2372 25.0589 17.6657 25.0589 18.1657C25.0589 18.6657 24.71 19.0943 24.3031 19.0943C23.8961 19.0943 23.5472 18.6657 23.5472 18.1657C23.5472 17.5943 23.8961 17.2372 24.3031 17.2372ZM22.0938 18.0943C22.0938 19.5943 23.0821 20.8086 24.3031 20.8086C25.524 20.8086 26.5124 19.5943 26.5124 18.0943C26.5124 16.5943 25.524 15.38 24.3031 15.38C23.0821 15.38 22.0938 16.5943 22.0938 18.0943Z" fill="#00091B"/>
<path d="M17.9886 30.7623C17.9886 31.2623 17.6397 31.6908 17.2327 31.6908C16.8258 31.6908 16.4769 31.2623 16.4769 30.7623C16.4769 30.2623 16.8258 29.8337 17.2327 29.8337C17.6397 29.8337 17.9886 30.2623 17.9886 30.7623ZM15.0234 30.7623C15.0234 32.2623 16.0118 33.4766 17.2327 33.4766C18.4537 33.4766 19.442 32.2623 19.442 30.7623C19.442 29.2623 18.4537 28.048 17.2327 28.048C16.0118 28.048 15.0234 29.2623 15.0234 30.7623Z" fill="#00091B"/>
<path d="M16.791 19.9053H18.5585V21.7148H16.791V19.9053Z" fill="#00091B"/>
<path d="M16.791 22.6182H18.5585V24.4277H16.791V22.6182Z" fill="#00091B"/>
<path d="M18.5586 21.7144H19.4423V22.6191H18.5586V21.7144Z" fill="#00091B"/>
<path d="M15.0234 21.7144H16.7909V22.6191H15.0234V21.7144Z" fill="#00091B"/>
</svg>
