<svg width="60" height="60" viewBox="0 0 60 60" fill="none" xmlns="http://www.w3.org/2000/svg">
<path d="M50 41.5647H31.2745V34.0119H50V41.5647ZM40 51.7013H20V44.1485H40V51.7013ZM10 34.0119H28.7255V41.5647H10V34.0119ZM58.7255 34.0119C59.4118 34.0119 60 33.4156 60 32.7199C60 32.0243 59.4118 31.428 58.7255 31.428H1.27451C0.588235 31.428 0 32.0243 0 32.7199C0 33.4156 0.588235 34.0119 1.27451 34.0119H7.54902V41.5647H1.27451C0.588235 41.5647 0 42.1609 0 42.8566C0 43.5522 0.588235 44.1485 1.27451 44.1485H17.549V51.7013H1.27451C0.588235 51.7013 0 52.2976 0 52.9932C0 53.6889 0.588235 54.2852 1.27451 54.2852H58.7255C59.4118 54.2852 60 53.6889 60 52.9932C60 52.2976 59.4118 51.7013 58.7255 51.7013H42.451V44.1485H58.7255C59.4118 44.1485 60 43.5522 60 42.8566C60 42.1609 59.4118 41.5647 58.7255 41.5647H52.451V34.0119H58.7255Z" fill="#F61E26"/>
<path d="M15.7144 57.1429H18.5715V60H15.7144V57.1429Z" fill="#F61E26"/>
<path d="M22.8572 57.1429H24.2857V60H22.8572V57.1429Z" fill="#F61E26"/>
<path d="M28.5715 57.1429H31.4287V60H28.5715V57.1429Z" fill="#F61E26"/>
<path d="M34.2856 57.1429H37.1428V60H34.2856V57.1429Z" fill="#F61E26"/>
<path d="M41.4285 57.1429H42.857V60H41.4285V57.1429Z" fill="#F61E26"/>
<path d="M18.2443 26.0574L27.2198 16.7656C27.3174 16.6646 27.415 16.6646 27.5125 16.6646C27.6101 16.6646 27.7076 16.7656 27.7076 16.8666L31.4149 27.0674C31.4149 27.1684 31.4149 27.2694 31.4149 27.3704C31.4149 27.4714 31.3174 27.4714 31.2198 27.4714L18.537 26.5624C18.4394 26.5624 18.3419 26.4614 18.3419 26.3604C18.1467 26.2594 18.1467 26.1584 18.2443 26.0574ZM47.5124 2.52495H56.1952C56.8781 2.52495 57.4635 3.13093 57.4635 3.83792C57.4635 4.5449 56.8781 5.15089 56.1952 5.15089H47.5124V2.52495ZM18.2443 29.0874L30.9271 29.9964C32.8783 30.0974 34.4393 28.0774 33.6588 26.1584L32.5857 23.1285H37.5612C38.2441 23.1285 38.8295 22.5225 38.8295 21.8155V5.04989H45.0734V6.36286C45.0734 7.06985 45.6587 7.67584 46.3416 7.67584H56.2928C58.3415 7.67584 60.0001 5.95887 60.0001 3.83792C60.0001 1.71696 58.3415 -7.59407e-07 56.2928 -7.59407e-07H46.3416C45.6587 -7.59407e-07 45.0734 0.605986 45.0734 1.31297V2.62594H37.6588C36.9759 2.62594 36.3905 3.23193 36.3905 3.93892V20.7046H31.7076L30.0491 16.1597C29.3662 14.2407 26.9272 13.6347 25.5613 15.1497L16.5858 24.4415C14.8297 25.9564 15.9029 28.8854 18.2443 29.0874Z" fill="#F61E26"/>
<path d="M47.1407 16.2226C46.3516 16.2226 45.6753 15.6587 45.6753 15.0008C45.6753 14.3429 46.3516 13.779 47.1407 13.779C47.9297 13.779 48.606 14.3429 48.606 15.0008C48.606 15.6587 47.9297 16.2226 47.1407 16.2226ZM47.1407 11.4294C44.7735 11.4294 42.8572 13.0272 42.8572 15.0008C42.8572 16.9745 44.7735 18.5723 47.1407 18.5723C49.5078 18.5723 51.4241 16.9745 51.4241 15.0008C51.5368 13.0272 49.5078 11.4294 47.1407 11.4294Z" fill="#F61E26"/>
<path d="M3.57143 6.6345C4.22932 6.6345 4.79323 7.19841 4.79323 7.85631C4.79323 8.5142 4.22932 9.07811 3.57143 9.07811C2.91353 9.07811 2.34962 8.5142 2.34962 7.85631C2.44361 7.19841 2.91353 6.6345 3.57143 6.6345ZM3.57143 11.4277C5.54511 11.4277 7.14286 9.82999 7.14286 7.85631C7.14286 5.88262 5.54511 4.28488 3.57143 4.28488C1.59774 4.28488 0 5.88262 0 7.85631C0 9.82999 1.59774 11.4277 3.57143 11.4277Z" fill="#F61E26"/>
<path d="M11.4285 11.428H12.857V14.2852H11.4285V11.428Z" fill="#F61E26"/>
<path d="M11.4285 17.1437H12.857V18.5723H11.4285V17.1437Z" fill="#F61E26"/>
<path d="M12.8572 14.2854H15.7143V17.1426H12.8572V14.2854Z" fill="#F61E26"/>
<path d="M8.57153 14.2854H11.4287V17.1426H8.57153V14.2854Z" fill="#F61E26"/>
<path d="M52.8572 21.428H55.7143V24.2852H52.8572V21.428Z" fill="#F61E26"/>
<path d="M52.8572 27.1429H55.7143V30H52.8572V27.1429Z" fill="#F61E26"/>
<path d="M55.7144 24.2854H58.5715V27.1426H55.7144V24.2854Z" fill="#F61E26"/>
<path d="M51.4285 24.2854H52.857V27.1426H51.4285V24.2854Z" fill="#F61E26"/>
</svg>
