<svg width="60" height="60" viewBox="0 0 60 60" fill="none" xmlns="http://www.w3.org/2000/svg">
<path d="M14.7059 41.2745L18.7255 45.2941L7.05882 56.9608L3.03922 52.9412L14.7059 41.2745ZM13.7255 32.6471L27.3529 46.2745L25.2941 48.3333C24.8039 47.8431 12.451 35.4902 11.6667 34.7059L13.7255 32.6471ZM34.902 11.4706L37.8431 14.4118L50.3922 26.9608L48.3333 29.0196L41.5686 22.2549C41.0784 21.7647 40.2941 21.7647 39.8039 22.2549C39.3137 22.7451 39.3137 23.5294 39.8039 24.0196L46.5686 30.7843L44.5098 32.8431L28.9216 17.451C29.7059 16.6667 33.7255 12.7451 34.902 11.4706ZM51.1765 2.94118C51.7647 2.35294 52.6471 2.35294 53.2353 2.94118C53.8235 3.52941 53.8235 4.41176 53.2353 5L46.4706 11.7647C44.902 13.3333 44.902 15.7843 46.4706 17.3529C48.0392 18.9216 50.4902 18.9216 52.0588 17.3529C52.2549 17.1569 55.098 14.3137 54.902 14.5098C55.4902 13.9216 56.3725 13.9216 56.9608 14.5098C57.549 15.098 57.549 15.9804 56.9608 16.5686L50.1961 23.3333L40.3922 13.5294L51.1765 2.94118ZM58.7255 57.451H10L20.3922 47.0588L24.3137 50.9804C24.8039 51.4706 25.5882 51.4706 26.0784 50.9804L29.902 47.1569C30.3922 46.6667 30.3922 45.8824 29.902 45.3922L23.0392 38.5294C24.8039 35.8824 24.5098 32.3529 22.2549 30L12.6471 20.3922C10.9804 18.7255 10.9804 16.0784 12.6471 14.5098L18.4314 8.72549C20.098 7.05882 22.7451 7.05882 24.3137 8.72549L29.2157 13.6275L26.2745 16.5686C25.7843 17.0588 25.7843 17.8431 26.2745 18.3333L43.5294 35.5882C44.0196 36.0784 44.8039 36.0784 45.2941 35.5882C52.2549 28.6275 48.0392 32.8431 52.9412 27.9412C53.4314 27.451 53.4314 26.6667 52.9412 26.1765L52.0588 25.098L58.8235 18.3333C60.3922 16.7647 60.3922 14.3137 58.8235 12.7451C57.2549 11.1765 54.8039 11.1765 53.2353 12.7451C52.9412 13.0392 50.3922 15.5882 50.3922 15.5882C49.8039 16.1765 48.9216 16.1765 48.3333 15.5882C47.7451 15 47.7451 14.1176 48.3333 13.5294L55.098 6.76471C56.6667 5.19608 56.6667 2.7451 55.098 1.17647C53.5294 -0.392158 51.0784 -0.392158 49.5098 1.17647L38.7255 11.8627L35.7843 8.92157C35.2941 8.43137 34.5098 8.43137 34.0196 8.92157L31.0784 11.8627L26.1765 6.96078C23.5294 4.31372 19.3137 4.31372 16.7647 6.96078L10.9804 12.7451C8.33333 15.3922 8.33333 19.6078 10.9804 22.1569L20.5882 31.7647C21.8627 33.1373 22.1569 35.098 21.3725 36.6667L14.7059 30C14.2157 29.5098 13.4314 29.5098 12.9412 30L9.11765 33.8235C8.62745 34.3137 8.62745 35.098 9.11765 35.5882L13.0392 39.5098L0.392157 52.0588C-0.0980392 52.549 -0.0980392 53.3333 0.392157 53.8235L4.01961 57.451H1.27451C0.588235 57.451 0 58.0392 0 58.7255C0 59.4118 0.588235 60 1.27451 60H58.7255C59.4118 60 60 59.4118 60 58.7255C60 58.0392 59.4118 57.451 58.7255 57.451Z" fill="#F61E26"/>
<path d="M50.0376 45.7165C50.0376 46.5056 49.361 47.1819 48.5715 47.1819C47.782 47.1819 47.1053 46.5056 47.1053 45.7165C47.1053 44.9275 47.782 44.2511 48.5715 44.2511C49.361 44.2511 50.0376 44.9275 50.0376 45.7165ZM44.2858 45.7165C44.2858 48.0837 46.2031 50 48.5715 50C50.9399 50 52.8572 48.0837 52.8572 45.7165C52.8572 43.3493 50.9399 41.4331 48.5715 41.4331C46.2031 41.3203 44.2858 43.3493 44.2858 45.7165Z" fill="#F61E26"/>
<path d="M5.00002 3.77903C5.65791 3.77903 6.22182 4.34294 6.22182 5.00084C6.22182 5.65873 5.65791 6.22264 5.00002 6.22264C4.34212 6.22264 3.77821 5.65873 3.77821 5.00084C3.77821 4.34294 4.34212 3.77903 5.00002 3.77903ZM5.00002 8.57227C6.9737 8.57227 8.57145 6.97452 8.57145 5.00084C8.57145 3.02715 6.9737 1.42941 5.00002 1.42941C3.02633 1.42941 1.42859 3.02715 1.42859 5.00084C1.42859 6.97452 3.02633 8.57227 5.00002 8.57227Z" fill="#F61E26"/>
<path d="M37.1428 47.1437H40V48.5723H37.1428V47.1437Z" fill="#F61E26"/>
<path d="M37.1428 51.428H40V54.2852H37.1428V51.428Z" fill="#F61E26"/>
<path d="M40 48.5706H42.8571V51.4277H40V48.5706Z" fill="#F61E26"/>
<path d="M34.2858 48.5706H37.1429V51.4277H34.2858V48.5706Z" fill="#F61E26"/>
<path d="M2.85718 21.428H5.71432V24.2852H2.85718V21.428Z" fill="#F61E26"/>
<path d="M2.85718 25.7151H5.71432V28.5723H2.85718V25.7151Z" fill="#F61E26"/>
<path d="M5.71423 24.2863H8.57138V25.7148H5.71423V24.2863Z" fill="#F61E26"/>
<path d="M1.42859 24.2863H2.85716V25.7148H1.42859V24.2863Z" fill="#F61E26"/>
</svg>
