<svg width="60" height="60" viewBox="0 0 60 60" fill="none" xmlns="http://www.w3.org/2000/svg">
<path d="M39.0234 57.3529L39.5135 52.3529H5.49994L5.00983 57.3529H39.0234ZM53.2365 52.3529H48.6295C47.9433 52.3529 47.3552 51.7647 47.3552 51.0784C47.3552 50.3922 47.9433 49.8039 48.6295 49.8039H52.6484L48.8255 34.8039C48.6295 34.8039 48.7275 34.8039 46.1789 34.8039C45.4928 34.8039 44.9047 34.2157 44.9047 33.5294C44.9047 32.8431 45.4928 32.2549 46.1789 32.2549H48.2374L45.2967 20.6863L43.2383 41.1765H46.1789C46.8651 41.1765 47.4532 41.7647 47.4532 42.451C47.4532 43.1373 46.8651 43.7255 46.1789 43.7255H42.9442L41.5719 57.451H54.5108L53.2365 52.3529ZM9.32279 14.902L8.53861 22.3529H42.5521L43.3363 14.902H9.32279ZM9.71488 43.6275H6.38214L5.79401 49.902H9.71488V43.6275ZM38.6313 31.1765H41.6699L42.2581 24.902H38.5333V31.1765H38.6313ZM40.6897 41.1765L41.4739 33.7255H7.46038L6.6762 41.1765H40.6897ZM8.34257 24.902L7.75444 31.1765H11.1852V24.902H8.34257ZM13.6357 24.902V31.1765H17.3606V24.902H13.6357ZM19.9091 24.902V31.1765H23.634V24.902H19.9091ZM26.1825 24.902V31.1765H29.9073V24.902H26.1825ZM32.3579 24.902V31.1765H36.0827V24.902H32.3579ZM39.8075 49.902L40.3957 43.6275H36.2788V49.902H39.8075ZM33.8282 49.902V43.6275H30.2994V49.902H33.8282ZM27.8489 49.902V43.6275H24.3201V49.902H27.8489ZM21.7715 49.902V43.6275H18.2428V49.902H21.7715ZM15.7922 49.902V43.6275H12.2634V49.902H15.7922ZM38.6313 2.45098C37.9451 2.45098 37.357 3.03921 37.357 3.72549C37.357 4.41176 37.9451 5 38.6313 5C39.3174 5 39.9056 4.41176 39.9056 3.72549C39.9056 2.94118 39.3174 2.45098 38.6313 2.45098ZM13.6357 2.45098C12.9496 2.45098 12.3615 3.03921 12.3615 3.72549C12.3615 4.41176 12.9496 5 13.6357 5C14.3219 5 14.91 4.41176 14.91 3.72549C14.91 2.94118 14.3219 2.45098 13.6357 2.45098ZM1.18699 57.3529H2.55929L6.97027 13.5294C7.06829 12.8431 7.5584 12.451 8.24455 12.451H12.4595V7.2549C10.9892 6.76471 10.0089 5.39216 10.0089 3.72549C10.0089 1.66667 11.6753 -9.83477e-07 13.7338 -9.83477e-07C15.7922 -9.83477e-07 17.4586 1.66667 17.4586 3.72549C17.4586 5.39216 16.3803 6.76471 15.008 7.2549V12.451H37.357V7.2549C35.8867 6.76471 34.9064 5.39216 34.9064 3.72549C34.9064 1.66667 36.5728 -9.83477e-07 38.6313 -9.83477e-07C40.6897 -9.83477e-07 42.3561 1.66667 42.3561 3.72549C42.3561 5.39216 41.2779 6.76471 39.9056 7.2549V12.451C40.8858 12.451 44.6106 12.451 44.8066 12.451C45.2967 12.451 45.7869 12.8431 45.9829 13.3333C45.9829 13.4314 55.0989 49.3137 57.1574 57.451H58.7257C59.4119 57.451 60 58.0392 60 58.7255C60 59.4118 59.4119 60 58.7257 60C56.7653 60 5.00983 60 1.28501 60C0.598858 60 0.0107281 59.4118 0.0107281 58.7255C-0.0872936 57.9412 0.500837 57.3529 1.18699 57.3529Z" fill="#F61E26"/>
<path d="M30.1227 10H19.8771C19.174 10 18.5713 9.34066 18.5713 8.57143C18.5713 7.8022 19.174 7.14286 19.8771 7.14286H30.1227C30.8258 7.14286 31.4285 7.8022 31.4285 8.57143C31.4285 9.34066 30.8258 10 30.1227 10Z" fill="#F61E26"/>
<path d="M55.7144 4.28544H52.8572V7.14258H55.7144V4.28544Z" fill="#F61E26"/>
<path d="M55.7144 9.99916H52.8572V11.4277H55.7144V9.99916Z" fill="#F61E26"/>
<path d="M52.8572 7.14286H50V10H52.8572V7.14286Z" fill="#F61E26"/>
<path d="M58.5715 7.14286H55.7144V10H58.5715V7.14286Z" fill="#F61E26"/>
</svg>
