<svg width="37" height="36" viewBox="0 0 37 36" fill="none" xmlns="http://www.w3.org/2000/svg">
<path d="M14.8754 26.5275C16.6821 24.9785 18.0672 23.1316 19.1513 21.0465L21.5 16.4592L23.6078 18.5443L21.0182 23.6082C20.0546 25.5147 18.7297 27.2424 17.1036 28.6722L10.9608 34.034L8.79272 31.8893L14.8754 26.5275ZM15.2367 17.1145C13.1289 18.1869 11.2619 19.6167 9.69608 21.3444L4.33613 27.3019L2.16807 25.2168L7.58824 19.1401C9.03361 17.5315 10.7199 16.2209 12.7073 15.2676L17.8263 12.7059L19.9342 14.791L15.2367 17.1145ZM24.993 12.3484C24.8726 12.4676 24.6317 12.5867 24.451 12.5867C24.0294 12.5867 23.6681 12.2293 23.6681 11.8123C23.6681 11.3952 24.0294 11.0378 24.451 11.0378C24.6317 11.0378 24.8726 11.0973 24.993 11.2761C25.2941 11.5739 25.2941 12.0506 24.993 12.3484ZM27.1008 2.63759L29.8712 5.37807L25.4146 9.7271C24.5714 9.31007 23.4874 9.4888 22.7647 10.1441C21.8613 11.0378 21.8613 12.4676 22.7647 13.3612C23.6681 14.2549 25.1134 14.2549 26.0168 13.3612C26.7395 12.6463 26.8599 11.5739 26.4384 10.7399L30.895 6.33128L33.6653 9.07177L27.1008 16.6379L24.6317 17.3528C24.0294 16.757 19.3922 12.1697 18.7899 11.5739L19.5126 9.13134L27.1008 2.63759ZM36.0742 34.451H12.7675L18.1275 29.7445C19.9342 28.1956 21.3193 26.3487 22.4034 24.2636L25.1737 18.7826L27.7633 18.0081C27.8838 17.9486 28.0042 17.889 28.1247 17.7698L35.2913 9.60795C35.5322 9.31007 35.5322 8.83346 35.2311 8.59516L27.7031 1.08862C27.402 0.790741 26.9804 0.790741 26.6793 1.02904L18.3683 8.11856C18.2479 8.23771 18.1877 8.35686 18.1275 8.47601L17.2843 11.2761L11.9244 13.8974C9.81653 14.9698 7.94958 16.3996 6.38375 18.1273L0.481793 24.7402C0.240896 25.0381 0.240896 25.5147 0.542017 25.753L3.79412 28.9701C4.09524 29.2679 4.63726 29.2679 4.93838 28.9105L10.8403 22.2976C12.2857 20.689 13.972 19.3784 15.9594 18.4252L19.7535 16.5187L17.8263 20.272C16.8627 22.1784 15.5378 23.9061 13.9118 25.3359L7.22689 31.1744C6.86555 31.4722 6.86555 31.9488 7.16667 32.3063L9.33473 34.451H0.782913C0.361345 34.451 0 34.8085 0 35.2255C0 35.6425 0.361345 36 0.782913 36H36.0742C36.4958 36 36.8571 35.6425 36.8571 35.2255C36.8571 34.8085 36.4958 34.451 36.0742 34.451Z" fill="#000814"/>
<path d="M10.2858 1.41117C10.7595 1.41117 11.1655 1.74952 11.1655 2.14425C11.1655 2.53899 10.7595 2.87733 10.2858 2.87733C9.8121 2.87733 9.40608 2.53899 9.40608 2.14425C9.40608 1.69312 9.8121 1.41117 10.2858 1.41117ZM10.2858 4.28711C11.7068 4.28711 12.8572 3.32846 12.8572 2.14425C12.8572 0.960042 11.7068 0.00139475 10.2858 0.00139475C8.86473 0.00139475 7.71436 0.960042 7.71436 2.14425C7.71436 3.27207 8.86473 4.28711 10.2858 4.28711Z" fill="#000814"/>
<path d="M33.1241 24.8583C33.1241 24.3846 33.4625 23.9786 33.8572 23.9786C34.2519 23.9786 34.5903 24.3846 34.5903 24.8583C34.5903 25.3319 34.2519 25.738 33.8572 25.738C33.4625 25.6703 33.1241 25.3319 33.1241 24.8583ZM36.0001 24.8583C36.0001 23.4372 35.0414 22.2868 33.8572 22.2868C32.673 22.2868 31.7144 23.4372 31.7144 24.8583C31.7144 26.2793 32.673 27.4297 33.8572 27.4297C35.0414 27.4297 36.0001 26.2793 36.0001 24.8583Z" fill="#000814"/>
<path d="M22.2859 30.858H24.0002V32.5723H22.2859V30.858Z" fill="#000814"/>
<path d="M25.7144 30.858H26.5715V32.5723H25.7144V30.858Z" fill="#000814"/>
<path d="M28.2859 30.858H30.0002V32.5723H28.2859V30.858Z" fill="#000814"/>
<path d="M31.7144 30.858H32.5715V32.5723H31.7144V30.858Z" fill="#000814"/>
<path d="M3.42847 6.85798H5.14275V8.57227H3.42847V6.85798Z" fill="#000814"/>
<path d="M6.85742 6.85798H7.71456V8.57227H6.85742V6.85798Z" fill="#000814"/>
<path d="M9.42847 6.85798H11.1428V8.57227H9.42847V6.85798Z" fill="#000814"/>
<path d="M12.8574 6.85798H13.7146V8.57227H12.8574V6.85798Z" fill="#000814"/>
</svg>
