<svg width="36" height="36" viewBox="0 0 36 36" fill="none" xmlns="http://www.w3.org/2000/svg">
<path d="M9.35294 34.4707L15 29.4123V34.4707H9.35294ZM4.52941 4.53193C5.76471 4.53193 31.1176 4.53193 31.9412 4.53193L33.4118 6.0024C33 6.0024 6.23529 6.0024 4.47059 6.0024C4.52941 6.0024 4.52941 4.53193 4.52941 4.53193ZM1.52941 6.76704V3.76728H3V6.76704H1.52941ZM9 1.88508L11.8824 3.00264H9V1.88508ZM4.52941 3.00264L7.52941 1.82626V3.00264H4.52941ZM15.8824 3.00264L14.1176 2.29681L19.4706 3.00264H15.8824ZM15 13.0607L9.94118 7.53168H15V13.0607ZM9.41177 21.707L15 16.6486V26.1773L9.41177 21.707ZM9 23.2951L14.5882 27.7654L9 32.8238V23.2951ZM14.7059 14.9429L9 20.0601V8.70806L14.7059 14.9429ZM35.2353 34.4707H16.5294V7.53168H25.5294V17.2956C25.5294 17.7073 25.8824 18.0603 26.2941 18.0603C28.3529 18.0603 30.0588 19.766 30.0588 21.8247C30.0588 23.8833 28.3529 25.5891 26.2941 25.5891C24.2353 25.5891 22.5294 23.8833 22.5294 21.8247C22.5294 21.4129 22.1765 21.06 21.7647 21.06C21.3529 21.06 21 21.4129 21 21.8247C21 24.7068 23.3529 27.0595 26.2353 27.0595C29.1176 27.0595 31.4706 24.7068 31.4706 21.8247C31.4706 19.1778 29.5294 17.0015 27 16.6486V7.53168H35.2353C35.5294 7.53168 35.8235 7.35523 35.9412 7.06113C36.0588 6.76704 36 6.47295 35.7647 6.23767L32.7647 3.23791C32.6471 3.12027 32.4118 3.00264 32.2353 3.00264H30.7647C7.29412 -0.114761 8.29412 0.00287628 8.11765 0.00287628C8 0.00287628 8.47059 -0.17358 2.11765 2.23799H0.764706C0.352941 2.23799 0 2.5909 0 3.00264V7.47287C0 7.8846 0.352941 8.23751 0.764706 8.23751H3.76471C4.17647 8.23751 4.52941 7.8846 4.52941 7.47287H7.52941V34.4707H0.764706C0.352941 34.4707 0 34.8236 0 35.2354C0 35.6471 0.352941 36 0.764706 36C10.0588 36 31.5294 36 35.2353 36C35.6471 36 36 35.6471 36 35.2354C36 34.8236 35.6471 34.4707 35.2353 34.4707Z" fill="#000814"/>
<path d="M19.2565 30.0006H20.9309V31.7148H19.2565V30.0006Z" fill="#000814"/>
<path d="M22.6055 30.0006H23.4427V31.7148H22.6055V30.0006Z" fill="#000814"/>
<path d="M25.1162 30.0006H26.7906V31.7148H25.1162V30.0006Z" fill="#000814"/>
<path d="M28.4656 30.0006H30.14V31.7148H28.4656V30.0006Z" fill="#000814"/>
<path d="M30.9763 30.0006H32.6507V31.7148H30.9763V30.0006Z" fill="#000814"/>
<path d="M3.12817 15.8571C3.12817 15.5 3.41887 15.2024 3.76771 15.2024C4.11654 15.2024 4.40724 15.5 4.40724 15.8571C4.40724 16.2143 4.11654 16.5119 3.76771 16.5119C3.41887 16.4524 3.12817 16.2143 3.12817 15.8571ZM5.86073 15.8571C5.86073 14.6667 4.9305 13.7143 3.76771 13.7143C2.60492 13.7143 1.67468 14.6667 1.67468 15.8571C1.67468 17.0476 2.60492 18 3.76771 18C4.9305 18 5.86073 17.0476 5.86073 15.8571Z" fill="#000814"/>
<path d="M32.2329 14.7971C31.8841 14.7971 31.5934 14.4994 31.5934 14.1423C31.5934 13.7852 31.8841 13.4875 32.2329 13.4875C32.5818 13.4875 32.8725 13.7852 32.8725 14.1423C32.8725 14.4994 32.5818 14.7971 32.2329 14.7971ZM34.3259 14.1423C34.3259 12.9518 33.3957 11.9994 32.2329 11.9994C31.0701 11.9994 30.1399 12.9518 30.1399 14.1423C30.1399 15.3328 31.0701 16.2852 32.2329 16.2852C33.3957 16.2852 34.3259 15.3328 34.3259 14.1423Z" fill="#000814"/>
</svg>
