<svg width="36" height="36" viewBox="0 0 36 36" fill="none" xmlns="http://www.w3.org/2000/svg">
<path d="M18.8378 4.30854C18.4522 4.30854 18.1217 4.70928 18.1217 5.17681C18.1217 5.64434 18.4522 6.04509 18.8378 6.04509C19.2233 6.04509 19.4987 5.57755 19.4987 5.11002C19.4987 4.64249 19.2233 4.30854 18.8378 4.30854ZM18.8378 7.71484C17.6811 7.71484 16.7447 6.57941 16.7447 5.17681C16.7447 3.77421 17.6811 2.57199 18.8378 2.57199C19.9944 2.57199 20.9308 3.70742 20.9308 5.11002C20.9308 6.51262 19.9944 7.71484 18.8378 7.71484Z" fill="#000814"/>
<path d="M10 34.4144C10.2941 34.4144 10.5294 34.1794 10.5294 33.8858V33.6509H6.76471C6.35294 33.6509 6 33.2985 6 32.8874C6 32.4763 6.35294 32.124 6.76471 32.124H10.5294V31.8891C10.5294 31.5954 10.2941 31.3605 10 31.3605H2.05882C1.76471 31.3605 1.52941 31.5954 1.52941 31.8891V33.8271C1.52941 34.1207 1.76471 34.3556 2.05882 34.3556H10V34.4144ZM28.4706 34.4144V26.956C28.4706 26.5449 28.8235 26.1925 29.2353 26.1925C29.6471 26.1925 30 26.5449 30 26.956V34.4144H31.4706V7.51713H27.1176C27.2941 8.92659 27.5882 11.863 27.6471 15.5628C27.7059 20.2023 27.4118 26.8972 25.4706 32.3589C25.5294 32.7113 26.3529 33.6509 27.2941 34.4144H28.4706ZM34.4706 1.52692H27V3.75856C27 4.16966 26.6471 4.52202 26.2353 4.52202C25.8235 4.52202 25.4706 4.16966 25.4706 3.75856V1.52692H15V11.9804H19.0588L22.5882 6.34258C22.7059 6.10767 22.9412 5.99021 23.2353 5.99021C27.2353 5.99021 32.1765 5.99021 34.4706 5.99021V1.52692ZM6.41176 24.6069C5.94118 24.3719 5.88235 23.7847 6.23529 23.4323L7.29412 22.3752L6.11765 20.6134C5.94118 20.3197 5.94118 19.9086 6.23529 19.6737L7.17647 18.7341L6.23529 17.7945C6 17.5595 5.94118 17.2072 6.11765 16.9135L6.64706 15.9152L5.52941 14.7993C5.23529 14.5057 5.23529 14.0359 5.52941 13.7423L6.47059 12.8026L5.52941 11.863C5.23529 11.5693 5.23529 11.0995 5.52941 10.8059L6.52941 9.63132L5.35294 7.86949C5.11765 7.51713 5.23529 7.04731 5.58824 6.8124L6.88235 5.93148L5.58824 5.05057C5.11765 4.75693 5.11765 4.11093 5.58824 3.81729L6.94118 2.99511L5 1.52692H3V29.9511H3.76471V22.4339C3.76471 22.0228 4.11765 21.6705 4.52941 21.6705C4.94118 21.6705 5.29412 22.0228 5.29412 22.4339V29.8923H9.05882V25.8989L6.41176 24.6069ZM0 31.9478C0 31.0082 0.64706 30.2447 1.47059 30.0098V0.763458C1.47059 0.352364 1.82353 0 2.23529 0H5.23529C5.41176 0 5.52941 0.0587273 5.70588 0.176182L8.70588 2.40783C9.11765 2.70147 9.11765 3.34747 8.64706 3.64111L7.35294 4.52202L8.64706 5.34421C9.11765 5.63785 9.11765 6.28385 8.64706 6.57749L7 7.63458L8.05882 9.27896C8.23529 9.57259 8.23529 9.98369 7.94118 10.2186L7 11.1582L7.94118 12.0979C8.23529 12.3915 8.23529 12.8613 7.94118 13.155L7 14.0946L7.94118 15.0343C8.17647 15.2692 8.23529 15.6215 8.05882 15.9152L7.52941 16.9135L8.64706 18.0294C8.94118 18.323 8.94118 18.7928 8.64706 19.0865L7.58824 20.1436L8.76471 21.9054C8.94118 22.199 8.94118 22.6101 8.64706 22.845L7.88235 23.6085L9.94118 24.6656C10.1765 24.783 10.3529 25.0767 10.3529 25.3116V30.0098C11.2353 30.2447 11.8235 31.0082 11.8235 31.9478V33.8858C11.8235 34.062 11.8235 34.2382 11.7647 34.4144H25.1176C24.1176 33.3573 23.8235 32.5938 24.0588 31.9478C25.9412 26.6623 26.2353 20.1436 26.1765 15.5628C26.1176 11.8042 25.7647 8.75041 25.6471 7.4584H23.7059L20.1765 13.0962C20.0588 13.3312 19.8235 13.4486 19.5294 13.4486H14.2941C13.8824 13.4486 13.5294 13.0962 13.5294 12.6852V0.763458C13.5294 0.352364 13.8824 0 14.2941 0H35.2353C35.6471 0 36 0.352364 36 0.763458V6.75367C36 7.16476 35.6471 7.51713 35.2353 7.51713H33V34.4731H35.2353C35.6471 34.4731 36 34.8254 36 35.2365C36 35.6476 35.6471 36 35.2353 36C33.3529 36 3.23529 36 0.764706 36C0.35294 36 0 35.6476 0 35.2365C0 35.0604 0.0588226 34.8842 0.176472 34.7667C0.0588226 34.5318 0 34.2382 0 33.9445V31.9478Z" fill="#000814"/>
<path d="M12.9762 16.3314C12.5906 16.3314 12.2602 16.7374 12.2602 17.2111C12.2602 17.6848 12.5906 18.0908 12.9762 18.0908C13.3617 18.0908 13.6922 17.6848 13.6922 17.2111C13.6922 16.6697 13.3617 16.3314 12.9762 16.3314ZM15.0692 17.1434C15.0692 18.5645 14.1329 19.7148 12.9762 19.7148C11.8195 19.7148 10.8832 18.5645 10.8832 17.1434C10.8832 15.7224 11.8195 14.572 12.9762 14.572C14.1329 14.572 15.0692 15.7224 15.0692 17.1434Z" fill="#000814"/>
<path d="M18.9582 29.1434C18.9582 29.6171 19.2886 30.0231 19.6742 30.0231C20.0597 30.0231 20.3902 29.6171 20.3902 29.1434C20.3902 28.6697 20.0597 28.2637 19.6742 28.2637C19.2886 28.2637 18.9582 28.6697 18.9582 29.1434ZM21.7672 29.1434C21.7672 30.5645 20.8309 31.7148 19.6742 31.7148C18.5175 31.7148 17.5812 30.5645 17.5812 29.1434C17.5812 27.7224 18.5175 26.572 19.6742 26.572C20.8309 26.572 21.7672 27.7224 21.7672 29.1434Z" fill="#000814"/>
<path d="M20.0929 18.856H18.4185V20.5703H20.0929V18.856Z" fill="#000814"/>
<path d="M20.0929 21.4283H18.4185V23.1426H20.0929V21.4283Z" fill="#000814"/>
<path d="M18.4182 20.5725H17.581V21.4297H18.4182V20.5725Z" fill="#000814"/>
<path d="M21.7672 20.5725H20.0928V21.4297H21.7672V20.5725Z" fill="#000814"/>
</svg>
