<svg width="36" height="36" viewBox="0 0 36 36" fill="none" xmlns="http://www.w3.org/2000/svg">
<path d="M10.6746 15.2852L6.13722 17.5279V14.6951L10.6746 12.4525V15.2852ZM10.6746 19.7705L6.13722 22.0131V19.1803L10.6746 16.9377V19.7705ZM10.6746 24.3148L6.07752 26.5574V23.7246L10.6149 21.482V24.3148H10.6746ZM10.6746 28.8L6.37603 30.9246L6.13722 30.5115V28.2098L10.6746 25.9672V28.8ZM10.6746 30.5705L8.40591 33.9344L7.21186 32.223L10.6746 30.5115V30.5705ZM6.07752 9.73771H10.6149V10.8L6.07752 13.0426V9.73771ZM14.6746 1.47541L10.9134 8.2623H5.71931L3.62973 4.48525H10.5552C10.9731 4.48525 11.3313 4.13115 11.3313 3.71803C11.3313 3.30492 10.9731 2.95082 10.5552 2.95082C2.49539 2.95082 2.9133 2.95082 2.7939 2.95082L1.95807 1.41639H14.6746V1.47541ZM13.2418 11.1541C13.6 10.9771 13.7791 10.5049 13.6 10.1508C13.4209 9.79672 12.9433 9.61967 12.5851 9.79672L12.1671 10.0328V9.20656L16.6448 1.12131C16.9433 0.649181 16.5254 0 15.9881 0H0.764021C0.166999 0 -0.191215 0.590164 0.107296 1.12131L4.58496 9.20656V13.8098L3.51032 14.341C3.15211 14.518 2.973 14.9902 3.15211 15.3443C3.33122 15.6984 3.80884 15.8754 4.16705 15.6984L4.58496 15.4623V18.2951L3.51032 18.8262C3.15211 19.0033 2.973 19.4754 3.15211 19.8295C3.33122 20.1836 3.80884 20.3607 4.16705 20.1836L4.58496 19.9475V22.7803L3.51032 23.3115C3.15211 23.4885 2.973 23.9607 3.15211 24.3148C3.33122 24.6689 3.80884 24.8459 4.16705 24.6689L4.58496 24.4328V27.2656L3.51032 27.7967C3.15211 27.9738 2.973 28.4459 3.15211 28.8C3.33122 29.1541 3.80884 29.3311 4.16705 29.1541L4.58496 28.918V30.6885C4.58496 30.8656 4.64467 30.9836 4.70437 31.1016L5.00288 31.5148L3.51032 32.282C3.15211 32.459 2.973 32.9311 3.15211 33.2852C3.33122 33.6393 3.80884 33.8164 4.16705 33.6393L5.83871 32.8131L7.74918 35.6459C8.0477 36.118 8.70442 36.118 9.00293 35.6459L12.0477 31.1607C12.1074 31.0426 12.1671 30.8656 12.1671 30.7475V29.6852L13.2418 29.1541C13.6 28.977 13.7791 28.5049 13.6 28.1508C13.4209 27.7967 12.9433 27.6197 12.5851 27.7967L12.1671 28.0328V25.2L13.2418 24.6689C13.6 24.4918 13.7791 24.0197 13.6 23.6656C13.4209 23.3115 12.9433 23.1344 12.5851 23.3115L12.1671 23.5475V20.7148L13.2418 20.1836C13.6 20.0066 13.7791 19.5344 13.6 19.1803C13.4209 18.8262 12.9433 18.6492 12.5851 18.8262L12.1671 19.0623V16.2295L13.2418 15.6984C13.6 15.5213 13.7791 15.0492 13.6 14.6951C13.4209 14.341 12.9433 14.1639 12.5851 14.341L12.1671 14.577V11.7443L13.2418 11.1541Z" fill="#000814"/>
<path d="M21.3256 34.4656L22.1614 32.9311C22.3405 32.9902 21.8032 32.9311 29.9227 32.9311C30.3406 32.9311 30.6988 32.577 30.6988 32.1639C30.6988 31.7508 30.3406 31.3967 29.9227 31.3967H22.9972L25.0868 27.6197H30.2809L34.0422 34.4066L21.3256 34.4656ZM29.9227 25.2V26.2623H25.3853V22.9574L29.9227 25.2ZM25.3256 18.4131L29.863 20.6557V23.4885L25.3256 21.2459V18.4131ZM25.3256 13.8689L29.863 16.1115V18.9443L25.3256 16.7016V13.8689ZM25.3256 9.38361L29.863 11.6262V14.459L25.3256 12.2164V9.38361ZM25.3256 5.37049L25.5644 4.95738L29.863 7.08197V9.97377L25.3256 7.73115V5.37049ZM27.654 2.00656L29.9227 5.37049V5.42951L26.46 3.71803L27.654 2.00656ZM35.8929 34.8787L31.4153 26.7934V25.9082L31.8332 26.1443C32.1914 26.3213 32.669 26.2033 32.8481 25.7902C33.0272 25.4361 32.9078 24.9639 32.4899 24.7869L31.4153 24.2557V21.423L31.8332 21.659C32.1914 21.8361 32.669 21.718 32.8481 21.3049C33.0272 20.9508 32.9078 20.4787 32.4899 20.3016L31.4153 19.7705V16.9377L31.8332 17.1738C32.1914 17.3508 32.669 17.2328 32.8481 16.8197C33.0272 16.4656 32.9078 15.9934 32.4899 15.8164L31.4153 15.2852V12.4525L31.8332 12.6885C32.1914 12.8656 32.669 12.7475 32.8481 12.3344C33.0272 11.9803 32.9078 11.5082 32.4899 11.3311L31.4153 10.8V7.96721L31.8332 8.20328C32.1914 8.38033 32.669 8.2623 32.8481 7.84918C33.0272 7.49508 32.9078 7.02295 32.4899 6.8459L31.4153 6.31475V5.25246C31.4153 5.07541 31.3556 4.95738 31.2958 4.83935L28.251 0.354099C27.9525 -0.118031 27.2958 -0.118031 26.9973 0.354099L25.0868 3.18689L23.4152 2.24262C23.0569 2.06557 22.5793 2.18361 22.4002 2.59672C22.2211 2.95082 22.3405 3.42295 22.7584 3.6L24.251 4.36721L23.9525 4.78033C23.8928 4.89836 23.8331 5.07541 23.8331 5.19344V6.96394L23.4152 6.72787C23.0569 6.55082 22.5793 6.66885 22.4002 7.08197C22.2211 7.43607 22.3405 7.9082 22.7584 8.08525L23.8331 8.61639V11.4492L23.4152 11.2721C23.0569 11.0951 22.5793 11.2131 22.4002 11.6262C22.2211 11.9803 22.3405 12.4525 22.7584 12.6295L23.8331 13.1607V15.9934L23.4152 15.7574C23.0569 15.5803 22.5793 15.6984 22.4002 16.1115C22.2211 16.4656 22.3405 16.9377 22.7584 17.1148L23.8331 17.6459V20.4787L23.4152 20.3016C23.0569 20.1246 22.5793 20.2426 22.4002 20.6557C22.2211 21.0098 22.3405 21.482 22.7584 21.659L23.8331 22.1902V26.7934L19.3554 34.8787C19.0569 35.3508 19.4748 36 20.0121 36H35.2362C35.8332 36 36.1914 35.3508 35.8929 34.8787Z" fill="#000814"/>
<path d="M17.1634 14.0199C16.7778 14.0199 16.4473 13.6816 16.4473 13.2868C16.4473 12.8921 16.7778 12.5537 17.1634 12.5537C17.5489 12.5537 17.8794 12.8921 17.8794 13.2868C17.8794 13.6816 17.5489 14.0199 17.1634 14.0199ZM17.1634 11.144C16.0067 11.144 15.0703 12.1026 15.0703 13.2868C15.0703 14.471 16.0067 15.4297 17.1634 15.4297C18.32 15.4297 19.2564 14.471 19.2564 13.2868C19.2564 12.1026 18.32 11.144 17.1634 11.144Z" fill="#000814"/>
<path d="M17.1634 31.738C16.7778 31.738 16.4473 31.3319 16.4473 30.8583C16.4473 30.3846 16.7778 29.9786 17.1634 29.9786C17.5489 29.9786 17.8794 30.3846 17.8794 30.8583C17.8794 31.3996 17.5489 31.738 17.1634 31.738ZM17.1634 28.2868C16.0067 28.2868 15.0703 29.4372 15.0703 30.8583C15.0703 32.2793 16.0067 33.4297 17.1634 33.4297C18.32 33.4297 19.2564 32.2793 19.2564 30.8583C19.2564 29.5049 18.32 28.2868 17.1634 28.2868Z" fill="#000814"/>
<path d="M16.7446 19.7154H18.4191V21.4297H16.7446V19.7154Z" fill="#000814"/>
<path d="M16.7446 22.2857H18.4191V24H16.7446V22.2857Z" fill="#000814"/>
<path d="M18.4182 21.428H19.2554V22.2852H18.4182V21.428Z" fill="#000814"/>
<path d="M15.0703 21.428H16.7447V22.2852H15.0703V21.428Z" fill="#000814"/>
<path d="M18.4182 4.28571H20.0926V6H18.4182V4.28571Z" fill="#000814"/>
<path d="M18.4182 7.71345H20.0926V9.42773H18.4182V7.71345Z" fill="#000814"/>
<path d="M20.0928 6.00056H21.7672V7.71484H20.0928V6.00056Z" fill="#000814"/>
<path d="M17.582 6.00056H18.4192V7.71484H17.582V6.00056Z" fill="#000814"/>
</svg>
