<svg width="36" height="36" viewBox="0 0 36 36" fill="none" xmlns="http://www.w3.org/2000/svg">
<path d="M5.65818 1.6034H10.132V5.54736C10.132 6.84147 9.13128 7.88908 7.89509 7.88908C6.6589 7.88908 5.65818 6.84147 5.65818 5.54736C5.65818 5.48573 5.65818 1.6034 5.65818 1.6034ZM7.95395 9.42969C10.0143 9.42969 11.7214 7.64258 11.7214 5.48573V0.802289C11.7214 0.370918 11.3682 0.00117302 10.9561 0.00117302H4.95178C4.53972 0.00117302 4.18652 0.370918 4.18652 0.802289V5.48573C4.18652 7.64258 5.83477 9.42969 7.95395 9.42969Z" fill="#000814"/>
<path d="M14.9214 2.39475H17.9146V7.6558H14.9214V2.39475ZM22.2577 3.16322H28.3614C28.3614 3.93169 28.3614 5.05483 28.3614 6.94645H22.2577C21.8468 5.76419 20.5557 5.17306 19.3819 5.58685V4.58193C20.6144 4.99572 21.8468 4.34548 22.2577 3.16322ZM32.9979 3.93169L33.7609 8.60161C32.8219 7.36024 31.4133 5.76419 29.8874 5.88241V3.93169H32.9979ZM14.1585 9.19274H18.6189C19.0297 9.19274 19.3819 8.83806 19.3819 8.42427V7.6558C19.3819 7.24201 19.734 6.88733 20.1448 6.88733C20.5557 6.88733 20.9078 7.24201 20.9078 7.6558C20.9078 8.06959 21.2599 8.42427 21.6708 8.42427H22.4337V18.9464C22.4337 19.3602 22.7859 19.7148 23.1967 19.7148C23.6075 19.7148 23.9597 19.3602 23.9597 18.9464V8.42427H26.9529V18.9464C26.9529 19.3602 27.305 19.7148 27.7158 19.7148C28.1267 19.7148 28.4788 19.3602 28.4788 18.9464V8.42427H29.2418C29.6526 8.42427 30.0047 8.06959 30.0047 7.6558V7.36024C30.1221 7.36024 30.1808 7.36024 30.3569 7.36024C31.7067 7.6558 33.7022 10.6706 34.5825 12.5622C34.7586 12.9169 35.1108 13.0351 35.4629 12.9169C35.815 12.7986 36.0498 12.444 35.9911 12.0893L34.5239 3.04499C34.4652 2.69032 34.1717 2.39475 33.7609 2.39475H30.0047C30.0047 1.98096 29.6526 1.62628 29.2418 1.62628H21.6708C21.2599 1.62628 20.9078 1.98096 20.9078 2.39475C20.9078 2.80854 20.5557 3.16322 20.1448 3.16322C19.734 3.16322 19.3819 2.80854 19.3819 2.39475V1.62628C19.3819 1.21249 19.0297 0.857815 18.6189 0.857815H14.1585C13.7476 0.857815 13.3955 1.21249 13.3955 1.62628V8.42427C13.4542 8.83806 13.7476 9.19274 14.1585 9.19274Z" fill="#000814"/>
<path d="M23.2975 34.4968V32.297H24.8194C25.2292 32.297 25.5804 31.9497 25.5804 31.5445C25.5804 31.1392 25.2292 30.7919 24.8194 30.7919H23.356V29.3447H24.8194C25.2292 29.3447 25.5804 28.9973 25.5804 28.5921C25.5804 28.1869 25.2292 27.8395 24.8194 27.8395H23.356V26.3923H24.8194C25.2292 26.3923 25.5804 26.045 25.5804 25.6397C25.5804 25.2345 25.2292 24.8872 24.8194 24.8872H23.356V23.4399C23.356 22.2243 24.3511 21.2401 25.5804 21.2401C26.8097 21.2401 27.8048 22.2243 27.8048 23.4399V34.4968H23.2975ZM4.68291 33.0496H7.66827C8.07802 33.0496 8.42924 32.7023 8.42924 32.297C8.42924 31.8918 8.07802 31.5445 7.66827 31.5445H4.03901C3.98048 31.3129 3.98048 31.0813 3.98048 30.7919V28.5921H6.96583C7.37559 28.5921 7.72681 28.2448 7.72681 27.8395C7.72681 27.4343 7.37559 27.087 6.96583 27.087H3.98048V24.0188C5.26828 23.6715 6.20486 22.5137 6.20486 21.1823C6.20486 20.6612 6.02925 20.1402 5.7951 19.735H9.59997C9.36583 20.1981 9.19022 20.6612 9.19022 21.1823C9.19022 22.5716 10.1268 23.7294 11.4146 24.0188V29.2868H8.42924C8.01949 29.2868 7.66827 29.6341 7.66827 30.0393C7.66827 30.4446 8.01949 30.7919 8.42924 30.7919H11.3561C11.3561 32.818 9.65851 34.4968 7.60973 34.4968C6.439 34.4968 5.32681 33.9179 4.68291 33.0496ZM1.69756 16.8405H13.639V18.2878H1.69756V16.8405ZM35.2389 34.4968H29.2682V23.4399C29.2682 21.4138 27.5707 19.735 25.5219 19.735C23.4731 19.735 21.7755 21.4138 21.7755 23.4399V34.4968H11.239C12.2341 33.5706 12.8195 32.2391 12.8195 30.7919V23.4399C12.8195 23.0347 12.4683 22.6874 12.0585 22.6874C11.239 22.6874 10.5951 22.0506 10.5951 21.2401C10.5951 20.4297 11.239 19.7929 12.0585 19.7929H14.2829C14.6926 19.7929 15.0439 19.4456 15.0439 19.0403V16.088C15.0439 15.6828 14.6926 15.3354 14.2829 15.3354H10.5366V10.1833C10.5366 9.77802 10.1853 9.43069 9.77558 9.43069C9.36583 9.43069 9.01461 9.77802 9.01461 10.1833V15.3354H6.02925V10.1833C6.02925 9.77802 5.67803 9.43069 5.26828 9.43069C4.85852 9.43069 4.5073 9.77802 4.5073 10.1833V15.3354H0.760973C0.351218 15.3354 0 15.6828 0 16.088V19.0403C0 19.4456 0.351218 19.7929 0.760973 19.7929H3.16097C3.98048 19.7929 4.62438 20.4297 4.62438 21.2401C4.62438 22.0506 3.98048 22.6874 3.16097 22.6874C2.75121 22.6874 2.39999 23.0347 2.39999 23.4399V30.7919C2.39999 32.2391 2.98536 33.5706 3.98048 34.4968H0.936583C0.526828 34.4968 0.175609 34.8442 0.175609 35.2494C0.175609 35.6546 0.526828 36.002 0.936583 36.002C2.39999 36.002 33.717 36.002 35.2389 36.002C35.6487 36.002 35.9999 35.6546 35.9999 35.2494C35.9999 34.8442 35.6487 34.4968 35.2389 34.4968Z" fill="#000814"/>
<path d="M32.9482 21.0017C32.9482 21.3964 32.6177 21.7348 32.2322 21.7348C31.8466 21.7348 31.5161 21.3964 31.5161 21.0017C31.5161 20.607 31.8466 20.2686 32.2322 20.2686C32.6177 20.2686 32.9482 20.607 32.9482 21.0017ZM30.1392 21.0017C30.1392 22.1859 31.0755 23.1445 32.2322 23.1445C33.3888 23.1445 34.3252 22.1859 34.3252 21.0017C34.3252 19.8175 33.3888 18.8588 32.2322 18.8588C31.0755 18.8588 30.1392 19.8175 30.1392 21.0017Z" fill="#000814"/>
<path d="M17.8789 27.0017C17.8789 27.3964 17.5484 27.7348 17.1628 27.7348C16.7773 27.7348 16.4468 27.3964 16.4468 27.0017C16.4468 26.607 16.7773 26.2686 17.1628 26.2686C17.5484 26.2686 17.8789 26.607 17.8789 27.0017ZM15.0698 27.0017C15.0698 28.1859 16.0062 29.1445 17.1628 29.1445C18.3195 29.1445 19.2559 28.1859 19.2559 27.0017C19.2559 25.8175 18.3195 24.8588 17.1628 24.8588C16.0062 24.8588 15.0698 25.8175 15.0698 27.0017Z" fill="#000814"/>
<path d="M18 14.8758C17.6144 14.8758 17.284 14.5377 17.284 14.1431C17.284 13.7486 17.6144 13.4104 18 13.4104C18.3856 13.4104 18.716 13.7486 18.716 14.1431C18.716 14.5377 18.3856 14.8758 18 14.8758ZM20.093 14.1431C20.093 12.9596 19.1567 12.0014 18 12.0014C16.8433 12.0014 15.907 12.9596 15.907 14.1431C15.907 15.3267 16.8433 16.2849 18 16.2849C19.1567 16.3412 20.093 15.3267 20.093 14.1431Z" fill="#000814"/>
</svg>
