<svg width="36" height="36" viewBox="0 0 36 36" fill="none" xmlns="http://www.w3.org/2000/svg">
<path d="M34.4167 4.72576H27.7327C27.6154 4.72576 27.4982 4.78365 27.3809 4.84154L22.3386 7.67817H14.2474V6.23091C14.8338 6.23091 20.8142 6.23091 22.4559 6.23091C22.5731 6.23091 22.6904 6.17302 22.8076 6.11513L27.8499 3.2785H34.358L34.4167 4.72576ZM19.4656 10.6306H16.5341V9.18331H19.4656V10.6306ZM23.9803 15.0302H12.0195C12.0195 13.9882 12.0195 13.1199 12.0195 12.0778C13.2507 12.0778 22.749 12.0778 23.9803 12.0778C23.9803 13.1199 23.9803 13.9882 23.9803 15.0302ZM28.4363 14.2777C28.4363 15.3197 28.4363 23.4822 28.4363 24.5821H25.4461V14.2777H28.4363ZM34.4167 17.2301V21.6297H29.9607V17.2301H34.4167ZM23.9803 26.8399H12.0195C12.0195 25.7978 12.0195 24.9295 12.0195 23.8874H23.9803C23.9803 24.9295 23.9803 25.7978 23.9803 26.8399ZM7.56346 24.64C7.56346 22.9612 7.56346 18.9668 7.56346 14.3355H10.5537V24.64H7.56346ZM1.58305 21.6876V17.288H6.03904V21.6876H1.58305ZM23.9803 22.3823H12.0195V16.5354H23.9803V22.3823ZM16.5341 3.51007C16.5341 3.33639 16.6513 3.22061 16.8272 3.22061H19.2311C19.407 3.22061 19.5243 3.33639 19.5243 3.51007V4.66787H16.5341V3.51007ZM35.9411 5.42044V2.46804C35.9411 2.06281 35.5893 1.71547 35.1789 1.71547H27.7327C27.6154 1.71547 27.4982 1.77336 27.3809 1.83125L22.3386 4.66787H21.0487V3.51007C21.0487 2.52593 20.2279 1.71547 19.2311 1.71547H16.8272C15.8305 1.71547 15.0097 2.52593 15.0097 3.51007V4.66787H13.5439C13.1334 4.66787 12.7817 5.01521 12.7817 5.42044V8.37285C12.7817 8.77808 13.1334 9.12542 13.5439 9.12542H15.0097V10.5727H11.2572C10.8468 10.5727 10.495 10.92 10.495 11.3253V12.7725H6.74262C6.3322 12.7725 5.98041 13.1199 5.98041 13.5251V15.7249H0.762209C0.351789 15.7249 0 16.0723 0 16.4775V22.3823C0 22.7875 0.351789 23.1349 0.762209 23.1349H5.98041V25.3347C5.98041 25.7399 6.3322 26.0873 6.74262 26.0873H10.495V27.5345C10.495 27.9398 10.8468 28.2871 11.2572 28.2871H24.7425C25.1529 28.2871 25.5047 27.9398 25.5047 27.5345V26.0873H29.2571C29.6675 26.0873 30.0193 25.7399 30.0193 25.3347V23.1349H35.2375C35.6479 23.1349 35.9997 22.7875 35.9997 22.3823V16.5354C35.9997 16.1301 35.6479 15.7828 35.2375 15.7828H30.0193V13.583C30.0193 13.1777 29.6675 12.8304 29.2571 12.8304H25.5047V11.3253C25.5047 10.92 25.1529 10.5727 24.7425 10.5727H20.9901V9.12542H22.4559C22.5731 9.12542 22.6904 9.06753 22.8076 9.00964L27.8499 6.17302H35.1203C35.5893 6.17302 35.9411 5.82568 35.9411 5.42044Z" fill="#000814"/>
<path d="M14.2317 18.858H15.9061V20.5723H14.2317V18.858Z" fill="#000814"/>
<path d="M17.5811 18.858H18.4183V20.5723H17.5811V18.858Z" fill="#000814"/>
<path d="M20.0935 18.858H21.7679V20.5723H20.0935V18.858Z" fill="#000814"/>
<path d="M7.647 33.8906C7.47053 33.529 7.41171 33.1674 7.58818 32.8058L8.58817 30.7567L9.58816 32.8058C9.76463 33.1674 9.76463 33.5893 9.52934 33.8906C9.35287 34.2522 8.99993 34.433 8.58817 34.433C8.17641 34.433 7.88229 34.2522 7.647 33.8906ZM35.1762 34.433H10.9411C11.294 33.7098 11.294 32.866 10.9411 32.0826L9.23522 28.7075C9.11758 28.4665 8.82346 28.2857 8.58817 28.2857C8.29405 28.2857 8.05876 28.4665 7.94112 28.7075L6.29407 32.0826C5.94113 32.8058 5.94113 33.6495 6.29407 34.433H0.7647C0.352938 34.433 0 34.7946 0 35.2165C0 35.6384 0.352938 36 0.7647 36H35.235C35.6468 36 35.9997 35.6384 35.9997 35.2165C35.9409 34.7946 35.588 34.433 35.1762 34.433Z" fill="#000814"/>
<path d="M27.3306 31.2868C27.3306 30.8921 27.6611 30.5537 28.0466 30.5537C28.4322 30.5537 28.7626 30.8921 28.7626 31.2868C28.7626 31.6816 28.4322 32.0199 28.0466 32.0199C27.606 31.9635 27.3306 31.6816 27.3306 31.2868ZM30.1396 31.2868C30.1396 30.1026 29.2033 29.1439 28.0466 29.1439C26.89 29.1439 25.9536 30.1026 25.9536 31.2868C25.9536 32.471 26.89 33.4297 28.0466 33.4297C29.1482 33.4297 30.1396 32.471 30.1396 31.2868Z" fill="#000814"/>
<path d="M4.60594 1.41115C4.9913 1.41115 5.3216 1.74949 5.3216 2.14423C5.3216 2.53897 4.9913 2.87732 4.60594 2.87732C4.22059 2.87732 3.89029 2.53897 3.89029 2.14423C3.89029 1.6931 4.22059 1.41115 4.60594 1.41115ZM4.60594 4.28711C5.762 4.28711 6.69786 3.32845 6.69786 2.14423C6.69786 0.960014 5.762 0.00135994 4.60594 0.00135994C3.44989 0.00135994 2.51403 0.960014 2.51403 2.14423C2.45898 3.27206 3.44989 4.28711 4.60594 4.28711Z" fill="#000814"/>
<path d="M5.02258 6.00054H5.85979V7.71484H5.02258V6.00054Z" fill="#000814"/>
<path d="M5.02258 9.42801H5.85979V10.2852H5.02258V9.42801Z" fill="#000814"/>
<path d="M5.86194 7.71539H7.53634V9.42969H5.86194V7.71539Z" fill="#000814"/>
<path d="M3.34827 7.71539H5.02267V9.42969H3.34827V7.71539Z" fill="#000814"/>
<path d="M30.9773 8.57254H32.6517V9.42969H30.9773V8.57254Z" fill="#000814"/>
<path d="M30.9773 11.1431H32.6517V12.8574H30.9773V11.1431Z" fill="#000814"/>
<path d="M32.6509 10.2854H34.3253V11.1426H32.6509V10.2854Z" fill="#000814"/>
<path d="M30.1383 10.2854H30.9755V11.1426H30.1383V10.2854Z" fill="#000814"/>
</svg>
